{"glyphs":{"0":{"ha":708,"x_min":46,"x_max":663,"o":"m 46 208 l 46 244 q 48 272 46 251 q 54 316 51 292 q 59 359 56 339 q 61 386 61 380 q 63 400 61 390 q 68 423 66 411 q 73 445 71 435 q 75 460 75 456 q 78 469 75 463 q 83 481 80 475 q 88 494 85 488 q 90 503 90 500 q 91 522 90 507 q 94 553 92 536 q 96 585 95 570 q 97 603 97 600 q 102 618 99 610 q 107 630 104 624 q 114 639 111 635 q 117 646 114 642 q 125 656 121 651 q 133 666 130 661 q 136 675 136 671 q 147 688 139 678 q 165 710 155 699 q 183 733 175 722 q 195 747 192 743 q 207 758 201 753 q 225 774 217 766 l 239 783 l 268 783 l 290 783 l 307 774 q 316 772 310 774 q 328 769 321 771 q 341 766 335 768 q 351 765 348 765 q 365 764 353 765 q 391 760 377 762 q 417 757 405 758 q 433 755 430 755 q 444 753 436 755 q 459 746 451 750 q 474 740 467 743 q 484 737 481 737 q 494 729 487 734 q 509 721 501 725 q 528 711 517 716 q 547 689 534 705 q 574 657 560 674 q 600 625 588 640 q 618 603 612 610 q 620 595 618 600 q 625 585 623 590 q 630 575 627 580 q 632 567 632 570 q 638 548 635 560 q 646 523 642 536 q 651 500 649 511 q 653 486 653 490 q 658 453 655 469 q 661 426 659 439 q 663 406 663 412 l 663 396 l 663 386 q 661 370 663 380 q 658 350 659 359 q 653 326 655 338 q 650 312 653 322 q 642 289 646 301 q 632 267 637 277 q 625 253 628 256 q 622 243 625 250 q 614 231 618 237 q 604 217 609 224 q 595 208 598 211 q 588 199 593 205 q 577 186 583 193 q 567 173 572 179 q 559 163 562 166 q 552 159 556 163 q 544 150 548 155 q 535 140 539 144 q 528 136 531 136 q 507 120 522 132 q 473 95 491 109 q 439 70 455 82 q 418 56 424 58 q 409 53 415 56 q 396 45 403 50 q 382 36 389 41 q 374 28 376 31 q 366 25 371 28 q 354 19 360 22 q 343 12 349 15 q 335 9 338 9 q 323 5 329 7 q 314 3 319 4 q 307 1 310 1 q 297 0 303 1 q 283 -3 290 -2 q 268 -8 276 -6 q 248 -11 257 -9 q 234 -13 241 -12 q 225 -14 227 -14 q 212 -13 219 -14 q 197 -11 204 -12 q 180 -8 189 -9 q 171 -6 177 -8 q 158 -2 165 -5 q 145 3 151 0 q 136 9 139 6 l 114 28 q 104 38 111 31 q 91 51 98 44 q 80 64 85 58 q 75 74 75 70 q 72 84 75 77 q 65 100 69 92 q 59 116 62 109 q 56 126 56 123 q 54 136 56 130 q 51 149 53 142 q 47 162 49 156 q 46 172 46 169 l 46 208 m 154 260 l 154 214 q 155 204 154 210 q 157 191 156 198 q 159 177 158 184 q 160 168 160 171 q 165 158 163 163 q 171 149 168 153 q 176 140 174 144 l 183 132 l 207 113 l 222 104 l 239 102 q 250 100 245 100 q 257 100 256 100 q 267 100 260 100 q 280 102 273 100 q 296 104 288 103 q 305 109 300 106 q 313 111 309 110 q 321 113 317 113 q 333 122 323 116 q 355 136 343 129 q 378 149 367 142 q 396 158 390 155 q 404 161 399 158 q 414 169 408 164 q 425 178 420 173 q 433 187 430 183 q 451 199 440 191 q 471 218 461 208 q 490 234 481 227 q 501 241 498 241 q 510 252 506 246 q 517 261 513 256 q 525 269 522 266 q 532 280 528 273 q 542 295 536 288 q 554 314 547 304 l 564 351 l 570 379 l 570 406 l 570 432 q 558 468 564 450 q 548 498 553 483 q 539 525 543 514 q 537 534 539 528 q 532 546 534 540 q 525 561 529 553 q 512 576 518 568 q 502 588 507 582 q 493 599 496 595 q 486 607 490 602 q 476 615 481 611 q 464 625 470 620 q 455 628 460 625 q 444 634 450 631 q 433 640 438 637 q 425 643 428 643 q 418 645 423 643 q 407 648 413 646 q 396 651 401 650 q 387 653 391 653 l 367 653 l 351 653 q 336 650 345 653 q 317 644 326 648 q 299 637 307 640 q 289 635 292 635 q 277 625 283 629 q 266 615 271 620 q 257 607 260 610 q 251 597 256 604 q 241 584 246 591 q 230 571 235 577 q 222 561 224 564 l 215 543 l 207 515 q 201 498 207 511 q 188 469 195 484 q 175 440 181 454 q 170 424 170 427 q 165 404 167 413 q 161 389 163 397 q 160 379 160 382 q 159 361 160 372 q 157 340 158 351 q 154 314 155 328 l 154 260 z "},"1":{"ha":338,"x_min":71,"x_max":268,"o":"m 110 47 l 110 54 l 115 77 l 115 229 l 115 376 q 115 397 115 383 q 114 429 115 411 q 113 466 113 446 q 111 503 112 486 q 110 535 111 521 q 110 555 110 549 q 108 566 110 558 q 105 582 106 573 q 101 597 103 590 q 100 608 100 605 q 98 618 100 610 q 93 636 96 627 q 88 655 90 646 q 86 667 86 663 l 79 703 l 71 717 l 71 739 l 71 758 q 76 766 73 762 q 86 783 81 774 l 94 790 q 111 803 99 795 q 123 811 117 807 l 144 811 l 172 811 l 187 804 q 194 802 190 804 q 201 797 198 800 q 210 790 205 794 l 225 772 l 229 758 l 229 745 l 229 730 q 227 722 229 728 q 223 709 225 715 q 218 697 220 703 q 216 689 216 691 l 216 591 l 216 492 q 217 461 216 482 q 220 414 218 441 q 223 357 221 387 q 226 300 224 328 q 228 249 227 272 q 229 214 229 226 q 231 206 229 212 q 235 194 233 201 q 238 181 237 187 q 240 172 240 175 q 244 156 240 169 q 254 128 249 143 q 263 99 259 113 q 268 83 268 86 l 268 61 l 268 47 q 266 39 268 45 q 259 26 263 33 q 252 14 256 20 q 245 5 248 8 q 241 -3 245 2 q 230 -14 236 -9 q 218 -24 224 -20 q 210 -32 212 -29 q 196 -42 204 -37 q 187 -47 192 -45 l 167 -47 l 151 -47 q 144 -42 147 -45 q 140 -37 142 -40 q 138 -32 138 -35 q 135 -25 138 -29 q 130 -18 133 -22 q 123 -9 127 -14 q 121 0 123 -7 q 117 15 119 7 q 112 30 114 23 q 110 40 110 37 l 110 47 z "},"2":{"ha":733,"x_min":21,"x_max":707,"o":"m 21 31 l 21 56 l 31 72 q 42 83 33 76 q 63 98 52 90 q 84 113 74 106 q 97 122 94 119 q 109 135 100 126 q 127 153 117 143 q 145 171 137 163 q 157 183 153 180 q 169 199 160 189 q 186 219 177 209 q 203 238 195 229 q 215 250 212 246 q 228 266 219 254 q 245 293 236 279 q 263 319 255 307 q 275 335 272 332 l 282 343 l 309 378 q 315 388 309 380 q 331 402 322 395 q 346 417 339 410 q 353 428 353 424 q 361 439 355 431 q 372 457 366 448 q 384 475 378 467 q 393 486 390 484 l 403 503 l 410 529 q 414 537 410 532 q 423 550 418 543 q 432 562 428 556 q 436 572 436 568 q 440 584 436 575 q 449 602 444 592 q 458 619 454 611 q 463 631 463 627 l 478 657 l 478 682 l 478 705 l 469 714 l 453 714 l 436 714 q 427 709 431 711 q 418 707 422 708 q 410 705 413 705 l 368 690 l 343 682 q 333 674 340 679 q 318 666 326 670 q 302 660 310 663 q 292 657 295 657 q 274 643 282 650 q 260 632 267 637 q 250 623 254 626 q 240 616 247 623 q 224 602 233 610 q 209 587 216 593 q 199 581 201 581 q 185 571 192 575 q 174 565 180 568 q 165 562 169 562 q 158 561 162 562 q 149 559 153 560 q 139 555 144 557 l 132 555 l 122 555 q 113 556 119 555 q 102 559 107 557 q 87 562 95 560 q 81 565 85 562 q 73 571 77 568 q 64 581 68 575 l 47 606 l 47 623 l 47 639 q 49 648 47 642 q 52 659 50 654 q 56 673 54 666 l 71 690 l 87 697 q 98 700 91 697 q 114 706 106 703 q 129 711 122 709 q 139 714 136 714 q 152 716 142 714 q 173 722 162 719 q 194 728 184 725 q 207 730 203 730 q 221 738 210 730 q 245 753 232 745 q 269 768 258 761 q 282 775 279 775 q 292 778 286 775 q 304 783 298 780 q 318 791 311 787 l 353 799 q 362 801 355 799 q 377 807 369 804 q 392 812 385 810 q 403 815 399 815 q 411 818 406 815 q 423 824 416 821 q 436 829 430 827 q 446 832 442 832 q 465 837 452 832 q 478 842 471 839 l 529 842 l 572 842 q 579 833 575 838 q 589 824 584 829 q 598 814 593 819 q 606 807 602 810 l 614 791 l 614 765 l 614 741 q 612 730 614 736 q 610 718 611 724 q 607 706 608 711 q 606 697 606 700 q 603 688 606 694 q 597 673 600 681 q 591 658 594 665 q 589 647 589 651 q 580 628 586 641 q 566 598 574 614 q 549 563 558 581 q 531 528 540 545 q 515 498 522 511 q 503 479 507 485 q 498 468 503 475 q 489 452 494 460 q 478 437 484 444 q 469 428 473 431 q 364 287 419 358 q 258 140 309 216 l 267 132 q 274 131 270 132 q 282 127 278 129 l 292 122 l 547 122 q 563 127 553 122 q 579 132 574 132 l 606 132 l 631 132 q 645 127 638 130 q 664 122 658 122 l 681 115 q 689 107 684 112 q 697 99 693 102 q 707 90 702 94 l 707 82 l 707 65 l 697 47 q 689 38 694 44 q 677 26 684 33 q 665 14 671 20 q 657 4 660 7 l 640 -3 l 376 -3 q 312 -8 342 -5 q 258 -14 286 -11 q 215 -20 231 -16 q 198 -21 209 -20 q 176 -24 186 -23 q 149 -29 163 -27 q 138 -32 145 -29 q 122 -38 130 -35 q 107 -43 115 -41 q 97 -46 100 -46 l 87 -46 l 71 -46 l 56 -36 l 47 -29 q 39 -19 43 -26 q 31 -4 35 -12 q 21 14 26 4 l 21 31 z "},"3":{"ha":800,"x_min":22,"x_max":754,"o":"m 75 12 l 75 37 q 77 47 75 41 q 79 60 78 54 q 83 74 81 67 l 102 90 q 117 103 108 97 q 127 109 122 106 l 144 109 l 172 109 l 207 100 l 252 100 l 288 100 q 314 111 294 103 q 357 126 334 118 q 401 142 380 134 q 428 153 421 149 q 446 159 431 153 q 478 175 460 166 q 511 193 495 184 q 533 205 527 202 q 542 208 536 205 q 551 214 547 211 q 561 224 555 218 q 570 238 566 231 q 579 249 574 243 q 587 258 584 255 l 596 277 l 587 294 l 578 304 q 569 307 574 304 q 556 312 563 309 q 543 318 549 315 q 533 321 537 321 q 515 328 527 323 q 491 336 503 332 q 469 342 479 339 q 456 345 458 345 l 393 345 l 322 345 q 304 340 312 342 q 289 336 296 338 q 278 335 281 335 l 252 326 l 216 310 q 204 303 213 306 q 186 297 195 300 q 163 292 175 294 l 136 292 l 102 292 l 83 300 l 66 311 l 57 329 l 57 357 l 57 382 q 60 391 57 386 q 67 400 63 395 q 76 410 71 406 q 83 416 80 414 q 98 425 90 421 q 110 432 103 429 q 119 435 116 435 l 163 453 q 174 461 166 456 q 190 470 181 466 q 205 477 198 474 q 216 479 213 479 q 227 487 220 482 q 243 497 235 492 q 258 507 251 502 q 269 515 266 511 q 280 524 273 518 q 296 537 288 530 q 311 550 304 543 q 322 559 319 556 q 336 578 330 569 q 348 592 342 585 q 357 603 353 600 l 366 621 q 370 637 366 628 q 375 647 372 642 l 375 665 l 375 673 l 357 684 q 346 687 353 684 q 330 694 338 690 q 310 704 321 698 q 298 705 304 705 q 286 705 292 705 q 275 706 280 705 q 267 707 270 706 q 258 708 262 707 q 247 707 255 708 q 231 705 239 707 q 211 703 222 704 q 192 696 201 703 q 174 683 183 690 q 156 669 165 675 q 134 663 146 663 q 125 661 130 661 q 111 659 118 659 l 93 659 q 67 665 79 659 q 47 684 55 672 q 31 700 40 690 q 22 718 22 711 l 22 726 l 22 736 q 27 745 24 741 q 32 753 29 749 q 39 761 35 758 l 49 771 l 75 789 q 84 794 79 791 q 96 800 90 798 q 110 806 102 803 q 121 807 113 806 q 136 810 128 808 q 152 812 144 811 q 163 814 159 814 l 191 823 q 206 824 194 823 q 233 825 218 825 q 247 825 241 825 q 260 823 254 825 l 281 823 l 322 823 q 337 822 325 823 q 362 819 349 821 q 388 815 376 817 q 403 814 399 814 q 412 810 408 812 q 420 807 416 808 q 428 806 425 806 l 446 796 q 457 789 449 793 q 472 781 465 785 q 490 771 481 776 q 498 768 493 771 q 507 761 503 765 q 514 751 511 756 q 517 743 517 747 l 517 708 l 517 665 q 511 647 514 656 q 505 632 509 640 q 498 621 502 624 q 468 573 485 593 q 437 532 451 553 q 416 505 424 519 q 403 469 408 490 q 429 458 415 464 q 456 453 442 453 q 466 452 458 453 q 481 449 473 450 q 497 446 490 447 q 509 444 505 444 q 520 443 511 444 q 539 439 529 441 q 557 436 549 437 q 570 435 566 435 q 582 432 572 435 q 601 426 591 429 q 620 419 611 422 q 631 416 628 416 q 642 413 634 416 q 658 404 650 409 q 673 396 666 399 q 684 392 681 392 l 693 392 l 701 392 q 718 381 709 392 q 734 353 726 370 q 747 313 741 335 q 754 268 752 291 q 749 258 751 262 q 743 249 746 254 q 736 241 739 245 q 726 231 730 236 q 719 222 722 227 q 711 214 715 217 q 694 202 705 210 q 672 183 683 193 q 652 165 661 174 q 640 153 643 156 l 624 143 q 607 133 620 140 q 578 118 593 126 q 550 101 564 109 q 533 90 537 94 q 511 80 527 87 q 478 65 495 73 q 446 49 460 57 q 428 37 431 41 q 411 33 425 37 q 381 23 398 29 q 349 12 365 18 q 322 3 332 6 q 259 -17 289 -3 q 201 -43 230 -31 l 163 -50 q 143 -44 153 -47 q 126 -38 135 -41 q 110 -32 117 -35 q 101 -30 106 -32 q 90 -24 95 -27 q 75 -16 83 -20 l 75 12 z "},"4":{"ha":732,"x_min":25,"x_max":690,"o":"m 457 -114 q 448 -101 454 -111 q 437 -81 443 -92 q 428 -60 432 -70 q 424 -47 424 -51 l 424 -22 l 424 3 l 440 26 q 444 44 442 36 q 447 59 446 52 q 449 69 449 66 l 449 77 l 449 85 q 444 102 446 94 q 441 116 443 110 q 440 126 440 123 q 437 162 440 136 q 432 217 435 188 q 426 273 429 247 q 424 309 424 299 l 407 317 l 400 317 l 390 317 q 355 314 378 317 q 310 308 333 311 q 267 302 286 305 q 241 300 248 300 q 228 296 235 298 q 217 293 222 294 q 208 292 212 292 l 183 294 q 171 292 180 294 q 154 286 163 289 q 136 280 144 283 q 125 278 128 278 q 116 275 121 278 q 104 270 111 273 q 92 264 98 267 q 83 261 86 261 q 73 259 80 261 q 57 260 66 257 q 40 274 49 263 q 26 311 32 285 l 25 350 l 25 392 l 33 400 l 50 408 l 75 416 q 82 419 79 416 q 90 425 86 421 q 100 433 94 428 q 110 445 103 436 q 124 463 117 453 q 139 483 132 473 q 150 498 146 492 l 174 542 l 200 574 q 217 599 206 583 q 239 630 228 614 q 257 658 250 646 q 265 673 265 670 q 270 687 265 676 q 282 710 275 698 q 293 734 288 723 q 298 747 298 745 l 315 764 q 327 769 318 764 q 345 781 336 774 q 363 792 355 787 q 374 798 371 798 l 383 806 q 388 815 383 808 q 399 830 393 823 q 410 845 405 838 q 415 856 415 852 l 424 864 q 440 868 430 864 q 457 872 451 872 l 473 872 l 482 872 q 492 868 487 870 q 500 865 496 867 q 507 864 504 864 q 516 861 511 864 q 527 855 522 859 q 541 847 534 852 l 549 839 l 557 822 q 561 806 557 816 q 566 789 566 795 l 566 781 l 566 764 l 557 730 l 557 657 q 555 642 557 654 q 553 615 554 629 q 550 589 551 601 q 549 574 549 576 l 549 542 l 549 509 q 550 497 549 505 q 553 483 551 490 q 555 468 554 475 q 557 458 557 461 l 574 450 l 599 458 l 624 458 l 640 458 q 653 453 646 456 q 664 448 659 450 q 673 441 670 445 q 679 439 676 441 q 685 433 682 437 q 690 425 688 430 l 690 408 l 690 392 q 679 380 687 389 q 661 362 670 372 q 643 345 651 353 q 631 334 634 336 l 614 325 q 604 322 611 325 q 590 316 597 319 q 575 311 583 313 q 566 309 568 309 l 557 300 l 557 208 l 557 110 q 558 96 557 106 q 561 72 559 85 q 564 49 563 60 q 566 36 566 39 q 568 25 566 33 q 573 10 570 18 q 579 -4 576 3 q 582 -14 582 -11 l 582 -31 l 582 -56 l 574 -72 q 570 -79 574 -75 q 561 -87 566 -83 q 549 -97 555 -92 q 534 -106 541 -102 q 524 -112 529 -109 q 515 -114 518 -114 q 508 -115 512 -114 q 500 -118 504 -117 q 490 -122 495 -120 l 482 -122 l 473 -122 l 457 -114 m 241 433 l 249 425 l 292 425 l 323 425 q 343 427 330 425 q 370 429 356 428 q 397 432 385 431 q 415 433 410 433 l 424 441 l 432 458 l 432 632 l 424 640 l 415 640 q 405 636 412 640 q 390 627 398 632 q 376 615 382 621 q 367 607 370 610 l 349 590 q 333 573 342 584 q 314 551 323 562 q 292 525 303 539 l 265 482 l 249 458 l 241 441 l 241 433 z "},"5":{"ha":696,"x_min":54,"x_max":642,"o":"m 119 22 q 122 28 119 26 q 127 33 124 31 q 136 37 131 35 l 163 37 l 187 37 q 199 27 190 35 q 220 10 209 19 q 240 -7 231 1 q 253 -18 250 -16 q 260 -21 256 -18 q 270 -26 265 -23 q 278 -31 274 -28 q 286 -33 283 -33 l 302 -33 l 319 -33 q 334 -31 326 -33 q 351 -26 343 -28 q 366 -21 359 -23 q 376 -18 373 -18 q 398 0 388 -9 q 415 16 407 7 q 428 31 424 24 l 452 61 l 467 78 q 469 85 467 81 q 476 93 472 89 q 482 102 479 98 q 485 110 485 106 q 493 134 488 119 q 505 164 499 149 q 514 191 510 179 q 518 207 518 203 l 518 245 l 518 294 q 513 303 515 298 q 509 319 509 311 q 506 327 509 322 q 500 337 504 332 q 493 350 497 343 q 483 359 488 355 q 474 367 479 363 q 467 374 470 371 l 458 382 q 450 389 454 386 q 443 392 446 392 q 434 394 439 392 q 423 399 429 396 q 410 407 416 402 q 396 410 403 408 q 385 413 391 412 q 376 414 380 414 q 367 415 373 414 q 353 418 360 416 q 336 422 346 420 l 319 422 l 294 422 q 286 421 291 422 q 274 418 280 420 q 261 415 267 416 q 253 414 256 414 q 234 409 250 414 q 199 398 218 404 q 164 387 180 392 q 144 382 148 382 l 113 382 l 89 382 q 79 386 85 382 q 68 395 73 390 q 58 406 62 401 q 54 414 54 411 l 54 606 q 64 632 59 620 q 72 654 68 643 q 79 671 76 665 l 89 688 l 113 711 l 154 726 l 178 743 q 189 746 181 743 q 204 751 196 748 q 219 757 212 754 q 229 760 226 760 q 237 762 232 760 q 249 767 243 764 q 260 773 254 770 q 268 775 265 775 q 279 778 272 775 q 294 783 286 780 q 309 788 302 785 q 319 790 316 790 q 329 798 322 793 q 343 805 336 802 q 358 811 351 809 q 368 814 365 814 q 379 824 371 817 q 397 839 388 831 q 415 852 407 846 q 428 861 424 859 q 441 869 435 866 q 451 875 446 873 q 460 878 456 878 q 476 882 465 878 q 493 886 487 886 l 509 886 l 525 886 l 542 878 q 550 875 545 878 q 559 869 555 873 q 568 861 564 866 l 576 854 l 576 782 q 563 770 570 776 q 551 759 557 764 q 542 750 545 753 l 532 742 q 525 736 528 739 q 518 734 521 734 l 501 726 q 487 722 494 724 q 476 720 481 721 q 467 718 470 718 q 453 716 464 718 q 431 710 443 713 q 407 705 418 707 q 393 703 396 703 q 384 702 390 703 q 373 699 378 701 q 359 696 366 697 q 353 694 357 696 q 345 692 349 693 q 336 688 341 690 q 322 679 333 684 q 297 667 311 673 q 271 655 283 661 q 253 647 258 650 q 245 644 250 647 q 238 638 241 642 l 229 629 q 221 623 226 627 q 213 615 217 618 q 203 606 208 610 l 203 582 l 203 551 q 204 543 203 548 q 207 535 205 538 q 211 526 209 530 l 229 526 l 244 526 q 253 528 248 526 q 266 530 259 529 q 277 533 272 532 q 286 534 283 534 l 343 534 l 393 534 l 418 526 l 452 518 q 464 515 454 518 q 484 509 473 513 q 505 501 495 505 q 518 493 515 496 l 533 486 q 544 477 536 484 q 559 463 551 470 q 574 448 567 455 q 583 439 581 441 q 592 429 586 435 q 603 414 597 422 q 612 401 608 407 q 616 392 616 395 q 619 381 616 388 q 624 366 621 374 q 630 352 627 359 q 632 342 632 345 q 633 333 632 339 q 637 319 635 326 q 640 304 639 311 q 642 294 642 297 l 642 278 l 642 262 q 640 249 642 260 q 636 226 638 239 q 631 201 633 213 q 625 183 628 189 q 624 174 625 180 q 621 163 622 169 q 616 150 618 157 q 614 142 616 147 q 608 130 611 136 q 602 118 604 124 q 599 110 599 113 l 591 78 q 584 64 587 71 q 578 54 581 59 q 576 46 576 49 q 569 36 573 43 q 561 22 565 29 q 551 5 556 15 q 537 -8 548 3 q 512 -31 526 -18 q 486 -57 499 -44 q 467 -75 473 -69 q 458 -83 462 -80 q 450 -88 454 -86 q 443 -90 446 -90 l 428 -98 q 401 -108 418 -102 q 368 -121 384 -114 q 328 -138 349 -128 l 294 -138 l 253 -138 l 243 -134 q 236 -131 239 -132 q 229 -129 232 -129 q 220 -126 226 -129 q 209 -121 214 -124 q 195 -113 202 -117 l 178 -98 q 174 -91 178 -96 q 166 -82 170 -87 q 158 -74 161 -78 q 154 -65 154 -69 l 144 -50 q 137 -34 141 -44 q 129 -15 133 -24 q 122 2 125 -5 q 119 14 119 10 l 119 22 z "},"6":{"ha":675,"x_min":58,"x_max":629,"o":"m 58 313 l 58 414 q 60 431 58 418 q 62 459 61 444 q 65 488 64 474 q 66 509 66 503 q 68 517 66 511 q 71 529 69 523 q 74 542 73 536 q 75 551 75 548 q 78 559 75 554 q 83 571 80 565 q 89 584 86 578 q 92 593 92 589 l 102 636 q 105 647 102 639 q 114 665 109 655 q 122 683 119 674 q 126 694 126 691 q 129 703 126 697 q 135 715 132 709 q 142 728 139 722 q 144 737 144 734 l 151 761 q 155 772 151 765 q 164 787 159 779 q 174 802 170 795 q 178 812 178 809 q 180 821 178 816 q 186 829 182 825 q 195 839 189 834 q 198 846 195 842 q 207 854 202 850 q 220 864 212 859 l 237 872 l 254 872 l 271 872 q 284 864 277 867 q 296 858 290 861 q 306 856 302 856 l 322 839 l 332 822 q 333 811 332 819 q 335 797 334 804 q 339 779 337 789 q 334 763 339 773 q 322 745 330 752 q 310 733 319 742 q 292 715 302 725 q 274 697 283 706 q 262 686 265 689 q 255 674 259 683 q 246 656 250 666 q 237 638 241 647 q 229 627 232 630 q 227 616 229 623 q 220 601 224 609 q 214 586 216 593 q 211 576 211 579 l 195 542 q 192 525 195 539 q 186 494 189 511 q 180 462 183 477 q 178 440 178 446 l 178 414 l 178 390 l 186 372 q 195 381 189 375 q 207 394 201 387 q 220 406 214 400 q 229 414 226 411 l 245 440 l 262 457 q 270 460 266 457 q 279 466 275 463 q 289 475 283 469 l 332 492 l 355 509 q 365 511 359 509 q 378 517 372 513 q 392 525 385 520 q 400 526 395 525 q 412 530 406 528 q 424 533 418 532 q 433 534 430 534 l 458 534 l 485 534 q 498 530 492 532 q 518 525 511 525 q 526 524 522 525 q 534 521 530 522 q 543 517 538 519 q 553 514 547 517 q 564 508 559 511 q 578 500 571 505 l 586 492 l 603 457 l 619 433 l 629 414 l 629 364 l 629 306 q 624 288 629 298 q 619 271 619 277 q 616 260 619 267 q 610 246 614 254 q 603 231 606 238 q 596 221 599 224 q 593 213 596 217 q 587 204 590 208 q 578 195 583 199 q 565 182 574 192 q 544 161 555 172 q 523 140 532 150 q 510 126 513 130 q 501 119 507 123 q 489 111 495 115 q 476 102 482 106 q 468 93 471 97 q 450 83 461 90 q 426 68 438 77 q 404 53 414 60 q 392 43 395 46 q 381 39 388 43 q 366 31 374 35 q 350 22 357 26 q 339 18 342 18 q 329 16 336 18 q 314 10 322 13 q 299 4 306 7 q 289 1 292 1 q 275 0 286 1 q 254 -3 265 -1 q 233 -7 243 -5 q 220 -8 223 -8 l 203 -17 q 194 -18 199 -17 q 183 -21 189 -20 q 170 -25 176 -23 q 159 -21 164 -23 q 151 -18 155 -20 q 144 -17 147 -17 q 135 -14 141 -17 q 123 -8 128 -12 q 109 1 115 -4 l 92 18 l 85 35 q 82 53 85 41 q 76 76 79 64 q 69 98 72 88 q 66 110 66 107 q 65 130 66 116 q 62 160 64 144 q 60 191 61 176 q 58 211 58 205 l 58 313 m 220 170 l 220 144 l 237 126 q 251 123 244 124 q 271 119 263 119 l 289 119 l 296 119 q 306 123 301 121 q 314 125 310 124 q 322 126 319 126 q 336 135 326 130 q 357 144 346 140 q 378 154 368 149 q 392 161 388 158 q 401 169 395 164 q 416 178 408 174 q 431 188 424 183 q 441 195 438 192 q 451 200 445 195 q 463 213 456 205 q 476 227 470 220 q 485 237 481 234 q 492 246 488 240 q 502 258 497 252 q 510 270 506 264 q 518 279 515 276 l 526 296 q 531 313 526 303 q 536 322 534 317 l 536 330 l 536 339 q 533 348 536 342 q 527 359 530 353 q 518 372 523 366 q 502 389 512 378 q 485 407 491 399 l 450 407 l 408 407 l 392 397 q 379 389 388 394 q 361 378 371 383 q 339 364 351 371 q 329 354 336 361 q 314 339 322 347 q 299 323 306 331 q 289 313 292 316 l 279 303 q 273 295 276 299 q 271 289 271 292 q 260 268 267 282 q 246 237 254 253 q 231 208 238 222 q 220 187 223 193 l 220 170 z "},"7":{"ha":693,"x_min":0,"x_max":685,"o":"m 260 -3 l 260 31 l 260 56 l 278 83 q 280 91 278 86 q 286 100 283 95 q 292 109 289 104 q 294 117 294 113 l 302 143 q 308 157 302 146 q 321 181 314 168 q 333 205 328 194 q 339 221 339 217 q 341 231 339 224 q 347 247 344 239 q 353 261 350 254 q 355 272 355 269 q 358 285 355 276 q 366 304 361 294 q 374 325 370 314 q 380 342 378 335 q 407 406 394 374 q 433 471 420 438 l 441 514 q 444 524 441 517 q 451 536 447 530 q 457 549 454 543 q 460 557 460 554 l 468 591 q 469 600 468 595 q 472 608 471 604 q 476 618 474 613 l 513 636 l 486 644 q 470 646 479 644 q 451 649 460 647 q 432 652 441 650 q 416 653 422 653 q 388 650 410 653 q 341 644 366 648 q 293 637 315 640 q 264 635 271 635 q 253 633 262 635 q 231 630 244 632 q 204 626 218 629 q 176 622 189 624 q 154 619 163 621 q 143 618 145 618 q 134 616 140 618 q 122 611 128 614 q 109 606 115 608 q 100 604 103 604 l 74 600 q 60 606 67 603 q 48 611 55 608 q 39 618 42 614 l 18 627 q 12 636 15 630 q 6 648 9 642 q 0 661 3 654 l 0 696 l 0 730 q 6 740 3 735 q 12 749 9 744 q 18 757 15 753 q 26 762 22 760 q 35 768 31 765 q 45 774 39 770 l 131 774 q 149 761 137 766 q 174 747 161 755 l 233 747 l 286 747 q 305 749 289 747 q 340 753 321 751 q 378 758 359 755 q 407 764 397 761 l 452 774 q 469 777 454 774 q 499 783 483 779 q 529 789 515 786 q 546 791 543 791 l 562 799 q 581 804 570 799 q 599 808 591 808 l 615 808 l 624 808 q 632 806 627 808 q 642 800 637 803 q 651 794 646 797 q 659 791 655 791 l 675 774 l 685 757 l 685 747 q 673 722 681 739 q 654 686 665 706 q 633 644 644 666 q 612 602 623 622 q 594 566 602 582 q 582 541 586 549 q 576 523 582 537 q 563 491 570 509 q 548 455 555 473 q 538 428 541 438 q 528 404 534 421 q 515 366 522 386 q 503 327 509 345 q 493 298 496 308 l 486 264 l 476 237 q 469 218 473 231 q 461 192 465 205 q 454 166 457 178 q 452 151 452 155 q 450 142 452 148 q 447 130 448 136 q 443 117 445 123 q 441 109 441 111 l 441 100 l 441 90 l 452 56 l 452 31 l 452 14 l 441 4 q 431 -4 438 1 q 416 -16 424 -10 q 400 -26 408 -22 q 390 -31 393 -31 q 380 -36 387 -33 q 369 -41 374 -39 q 355 -47 362 -44 l 339 -47 l 319 -47 l 302 -37 q 278 -24 290 -32 q 260 -3 266 -16 z "},"8":{"ha":586,"x_min":25,"x_max":567,"o":"m 25 127 l 25 153 q 31 175 28 165 q 36 192 33 184 q 41 204 39 201 q 50 215 45 207 q 58 233 54 223 q 65 252 62 243 q 68 264 68 260 q 76 273 73 269 q 82 281 79 277 q 85 288 85 285 q 98 305 91 297 q 109 320 103 313 q 118 330 115 327 q 126 340 121 333 q 139 355 132 347 q 151 370 145 363 q 161 380 157 377 l 170 396 l 103 446 q 81 477 90 463 q 65 500 72 489 q 58 515 58 511 l 58 566 l 58 608 q 64 622 61 615 q 69 633 66 627 q 75 642 72 638 q 78 649 75 644 q 85 658 81 654 q 93 667 89 663 q 102 675 98 671 q 110 684 104 678 q 122 696 115 690 q 135 708 129 702 q 144 717 141 713 q 151 721 147 717 q 160 730 155 725 q 170 739 165 735 q 178 743 174 743 q 201 756 189 750 q 220 767 210 762 q 237 777 231 772 l 254 783 q 279 791 263 787 q 311 800 295 796 q 339 807 326 804 q 354 810 351 810 l 397 810 l 431 810 q 448 804 440 807 q 463 799 456 802 q 473 793 470 795 l 490 783 q 500 775 493 781 q 516 763 508 770 q 531 751 524 757 q 541 743 538 746 q 545 737 543 740 q 548 732 547 734 q 550 726 550 729 q 555 716 553 723 q 561 701 558 709 q 567 684 564 693 l 567 667 l 567 659 q 557 635 562 646 q 549 615 553 625 q 541 599 544 605 l 533 582 q 523 566 533 576 q 507 549 513 556 q 444 477 475 511 q 380 406 413 444 l 380 397 l 389 380 q 400 368 392 377 q 418 347 409 358 q 436 326 428 336 q 447 314 444 317 q 456 296 452 304 q 465 281 460 289 q 473 271 470 274 q 479 262 477 268 q 485 252 482 257 q 490 237 488 245 l 490 195 l 490 161 q 485 147 490 158 q 472 122 479 136 q 458 97 465 109 q 447 78 451 84 q 438 68 442 73 q 431 60 435 64 q 424 53 427 56 q 415 44 420 49 q 406 36 410 40 q 396 29 401 32 q 389 26 392 26 q 366 14 376 20 q 346 2 356 8 q 330 -7 336 -3 l 313 -14 q 305 -15 309 -14 q 297 -19 301 -17 l 288 -24 l 254 -24 l 228 -24 l 75 26 q 66 36 70 31 q 58 44 62 40 q 52 53 54 49 q 43 62 46 58 q 37 71 39 66 q 35 78 35 75 l 25 94 l 25 127 m 149 157 l 149 140 q 158 130 153 135 q 167 122 162 126 q 175 114 172 117 l 193 106 q 200 104 196 106 q 208 101 204 102 q 218 97 213 99 l 261 97 l 294 97 l 313 106 q 321 113 315 109 q 334 123 328 118 q 344 132 340 127 q 349 140 349 137 q 351 148 349 143 q 357 157 354 153 q 363 166 360 162 q 366 174 366 171 l 366 183 l 366 200 q 359 218 362 210 q 354 232 357 226 q 349 241 351 239 l 339 261 l 332 268 q 320 279 328 272 q 305 294 313 286 l 288 311 l 278 311 l 261 311 q 243 298 251 304 q 229 287 235 292 q 218 277 222 281 q 207 264 215 273 q 189 245 198 255 q 165 218 178 233 q 163 208 165 214 q 157 196 160 202 q 151 183 154 189 q 149 174 149 177 l 149 157 m 183 551 q 196 541 187 549 q 214 523 205 532 q 232 504 224 513 q 243 490 240 494 l 261 484 l 271 484 l 278 484 l 294 490 q 310 506 298 494 q 336 532 322 518 q 363 559 350 546 q 382 579 376 572 q 391 588 385 582 q 402 602 397 594 q 416 619 409 609 l 427 647 q 416 651 422 647 q 404 662 410 656 q 391 672 397 667 q 382 676 385 676 q 368 675 378 676 q 347 671 358 673 q 326 668 336 669 q 313 667 315 667 q 300 664 309 667 q 279 658 290 661 q 257 652 268 655 q 243 650 247 650 l 200 612 l 183 596 l 183 579 l 183 551 z "},"9":{"ha":654,"x_min":32,"x_max":646,"o":"m 330 -79 l 330 -62 q 333 -53 330 -60 q 339 -39 336 -46 q 347 -25 342 -32 q 354 -16 351 -19 l 418 257 l 418 290 q 419 301 418 293 q 421 318 420 309 q 424 335 423 327 q 425 346 425 342 q 427 362 425 352 q 430 381 428 372 q 433 398 432 391 q 435 410 435 406 l 435 418 l 425 427 l 418 427 q 405 421 414 427 q 386 411 396 416 q 366 400 375 405 q 354 395 357 395 q 344 392 351 395 q 330 387 338 390 q 315 381 322 384 q 306 379 309 379 q 296 378 302 379 q 283 375 290 376 q 267 371 275 373 q 243 375 254 373 q 224 378 234 376 q 208 379 214 379 q 201 380 205 379 q 191 382 196 380 q 178 385 184 383 q 167 387 174 385 q 153 394 160 390 q 138 402 145 398 q 129 410 132 406 l 104 427 q 92 446 101 433 q 72 475 83 460 q 53 503 62 490 q 40 522 43 517 q 36 535 38 529 q 33 546 35 541 q 32 554 32 551 l 32 593 l 32 635 l 40 652 q 42 657 40 654 q 48 665 45 661 q 57 673 52 669 q 68 685 60 677 q 85 702 76 693 q 101 719 94 711 q 113 729 109 726 l 129 737 l 153 746 l 178 762 l 193 770 l 216 779 l 232 786 q 248 789 239 786 q 257 793 252 791 l 297 802 q 306 804 300 802 q 318 809 312 806 q 330 815 324 812 q 338 818 335 818 q 347 819 341 818 q 357 822 352 821 q 371 827 364 824 l 386 827 l 403 827 l 425 818 l 441 818 q 452 814 447 816 q 460 811 456 812 q 467 810 464 810 q 484 795 476 802 q 497 786 490 790 q 507 782 504 782 l 526 774 q 533 772 529 774 q 541 770 536 771 q 550 766 545 768 l 574 762 l 606 754 l 621 746 l 637 729 l 646 715 l 646 705 q 638 688 642 700 q 630 665 634 676 q 621 635 625 651 l 611 610 q 604 597 608 606 q 595 578 600 588 q 586 558 591 568 q 579 546 582 549 q 575 533 577 539 q 572 523 574 528 q 571 514 571 517 q 564 486 568 505 q 555 448 559 467 q 549 413 551 429 q 546 395 546 397 q 545 381 546 391 q 543 361 544 372 q 541 341 542 351 q 541 329 541 332 l 530 297 q 528 278 530 294 q 522 241 525 261 q 516 205 519 222 q 514 184 514 188 q 512 170 514 182 q 506 145 509 159 q 501 120 503 132 q 498 106 498 109 q 497 91 498 100 q 494 74 496 82 q 492 59 493 66 q 490 49 490 52 l 490 -87 q 482 -95 487 -90 q 471 -106 477 -100 q 459 -118 465 -112 q 450 -126 454 -123 q 440 -134 447 -130 q 426 -142 433 -138 q 412 -149 418 -146 q 403 -151 406 -151 l 386 -151 l 371 -151 l 354 -143 l 338 -126 q 334 -117 336 -121 q 330 -103 330 -109 l 330 -79 m 153 578 l 153 562 l 161 546 q 168 537 164 543 q 177 527 172 532 q 185 518 181 522 q 193 514 190 514 q 203 506 196 511 q 217 496 210 501 q 231 486 224 490 q 241 482 238 482 l 267 482 l 289 482 q 299 484 292 482 q 315 486 307 485 q 330 489 323 488 q 339 490 337 490 q 349 496 344 493 q 357 501 353 498 q 364 507 361 504 q 377 516 367 510 q 399 530 388 523 q 421 544 411 538 q 435 554 431 551 l 435 571 l 447 602 q 441 628 444 616 q 436 649 439 639 q 431 665 433 660 q 419 677 427 673 q 407 681 412 681 l 346 690 q 341 694 344 692 q 330 699 336 699 l 306 699 l 282 699 q 255 685 267 692 q 233 674 244 680 q 216 665 222 669 q 209 663 213 665 q 201 659 205 661 q 193 652 197 656 q 185 642 190 648 q 174 631 180 636 q 161 618 168 624 q 157 608 159 613 q 154 600 155 604 q 153 593 153 596 l 153 578 z "}," ":{"ha":319,"x_min":0,"x_max":0,"o":""}," ":{"ha":319,"x_min":0,"x_max":0,"o":""},"A":{"ha":583,"x_min":0,"x_max":639,"o":"m 364 241 l 340 241 q 327 237 334 239 q 316 235 321 236 q 307 233 311 233 q 297 231 304 233 q 283 226 290 229 q 267 218 276 222 l 243 210 q 227 201 237 206 q 207 191 217 196 q 189 181 197 185 q 178 178 180 178 l 161 161 l 161 65 l 154 40 q 150 31 154 37 q 140 17 146 24 q 129 2 135 9 q 121 -7 123 -4 l 114 -16 q 105 -23 111 -19 q 93 -30 100 -26 q 81 -36 87 -34 q 72 -39 75 -39 l 65 -39 l 49 -32 q 39 -23 45 -29 q 25 -12 32 -18 q 13 -1 18 -6 q 8 8 8 5 q 4 18 6 13 q 1 26 3 22 q 0 33 0 30 l 0 40 l 0 49 q 4 65 0 55 q 8 81 8 75 l 17 97 l 24 106 l 32 121 q 35 131 32 123 q 40 145 37 138 q 46 159 43 153 q 49 170 49 166 q 51 180 49 172 q 55 200 52 189 q 60 225 58 212 q 66 251 63 239 q 70 271 68 262 q 72 282 72 280 q 75 294 72 285 q 80 315 77 304 q 86 335 83 326 q 89 347 89 344 q 92 365 89 350 q 97 399 94 380 q 103 433 100 417 q 106 452 106 448 l 114 475 q 116 496 114 478 q 121 535 119 514 q 126 575 124 557 q 129 596 129 593 q 132 611 129 599 q 137 637 134 623 q 143 665 140 652 q 146 685 146 679 l 154 717 q 155 726 154 720 q 158 741 156 733 q 160 755 159 749 q 161 765 161 762 q 163 775 161 768 q 165 792 164 783 q 168 809 167 802 q 170 821 170 817 q 171 828 170 824 q 174 836 172 832 q 178 846 176 841 q 180 852 178 848 q 187 860 183 857 q 195 867 191 864 q 203 869 199 869 l 235 869 l 267 869 q 274 868 270 869 q 282 865 278 867 q 292 861 287 863 q 300 856 294 861 q 311 844 305 851 q 323 831 317 838 q 332 821 328 824 q 343 808 338 814 q 352 797 348 802 q 355 789 355 792 l 364 772 q 366 764 364 769 q 368 753 367 759 q 372 741 370 747 l 372 708 q 376 693 372 705 q 384 668 380 682 q 392 643 389 654 q 396 628 396 631 l 404 587 q 407 572 404 582 q 413 553 410 563 q 418 535 416 543 q 421 524 421 526 q 425 510 421 520 q 433 488 429 500 q 440 465 437 475 q 444 452 444 454 l 453 419 q 455 410 453 416 q 461 399 458 405 q 469 386 465 393 l 501 379 q 509 378 505 379 q 516 375 513 376 q 525 371 520 373 l 542 354 l 542 347 l 542 339 l 501 298 l 501 290 l 501 273 q 504 259 501 271 q 510 232 507 247 q 518 202 514 217 q 525 178 522 186 q 526 170 525 174 q 529 163 528 166 q 533 154 531 159 q 539 139 533 151 q 553 113 546 127 q 567 88 561 100 q 574 74 574 77 q 576 64 574 71 q 582 49 578 57 q 587 35 585 41 q 590 25 590 28 l 599 8 q 604 -2 599 5 q 615 -16 609 -8 q 626 -30 621 -23 q 631 -39 631 -36 l 639 -56 l 639 -64 l 639 -72 l 631 -87 q 622 -101 626 -95 q 607 -119 614 -113 q 593 -131 601 -125 q 574 -136 586 -136 l 567 -136 l 550 -127 q 543 -120 547 -124 q 534 -113 538 -117 q 525 -104 530 -109 q 521 -93 525 -101 q 512 -75 517 -85 q 501 -55 507 -64 q 493 -39 496 -45 l 478 0 q 474 11 478 3 q 466 28 470 19 q 457 45 461 37 q 453 57 453 54 q 450 69 453 60 q 445 89 448 79 q 439 109 441 100 q 436 121 436 118 q 429 139 433 127 q 421 164 425 152 q 415 188 418 177 q 412 201 412 198 q 405 211 409 205 q 397 224 401 218 q 387 241 392 232 l 364 241 m 203 330 l 210 322 l 227 322 q 275 327 250 322 q 323 339 300 332 q 331 340 327 339 q 338 343 335 342 q 347 347 342 345 l 355 354 l 355 363 l 355 371 q 353 383 355 374 q 348 403 351 393 q 343 422 345 413 q 340 435 340 431 q 339 447 340 437 q 336 467 338 456 q 333 487 334 478 q 332 500 332 496 q 328 511 332 503 q 318 528 323 519 q 307 548 313 538 q 298 564 302 557 l 283 579 l 275 579 l 267 572 q 264 565 267 569 q 259 556 262 560 q 254 547 256 551 q 252 541 252 543 q 243 519 246 528 q 237 503 239 510 q 235 492 235 495 q 232 480 235 488 q 226 463 229 472 q 221 446 223 454 q 218 435 218 437 q 217 426 218 431 q 214 415 216 420 q 211 403 212 409 q 210 395 210 397 q 209 384 210 391 q 206 367 208 376 q 204 350 205 358 q 203 339 203 342 l 203 330 z "},"B":{"ha":839,"x_min":66,"x_max":802,"o":"m 66 129 l 66 153 q 76 170 71 162 q 83 184 79 178 q 90 193 87 190 l 107 210 l 107 227 l 107 241 q 104 261 107 248 q 99 290 102 275 q 93 319 96 305 q 90 339 90 333 l 83 363 l 83 371 l 83 387 q 84 403 83 391 q 85 430 84 414 q 87 463 86 446 q 89 497 87 481 q 90 525 90 513 q 90 541 90 536 l 90 604 l 90 661 q 88 671 90 664 q 83 685 85 677 q 78 700 80 693 q 75 710 75 707 q 74 718 75 713 q 71 728 72 723 l 66 742 l 66 757 l 66 765 q 72 774 69 770 q 77 783 75 779 q 83 790 80 787 q 95 798 89 795 q 107 806 100 800 q 115 807 111 806 q 123 810 119 808 q 132 814 127 812 l 155 814 l 172 814 q 184 809 175 814 q 204 798 193 804 q 223 787 214 792 q 236 782 233 782 q 245 778 241 780 q 254 775 250 777 q 261 774 258 774 q 269 772 264 774 q 281 769 275 771 q 292 766 287 768 q 301 765 298 765 l 317 765 q 344 764 326 765 q 380 761 361 762 q 413 758 398 760 q 431 757 427 757 l 463 750 q 476 749 465 750 q 498 746 486 747 q 521 743 511 745 q 534 742 531 742 q 545 739 538 742 q 558 733 551 736 q 575 725 566 730 q 582 720 578 725 q 591 708 587 715 q 600 694 596 701 q 607 685 604 688 q 611 676 609 680 q 614 669 612 673 q 615 661 615 665 l 615 653 l 607 629 q 605 621 607 626 q 599 610 602 615 q 591 596 595 603 q 581 586 588 593 q 566 569 574 578 q 549 551 558 559 q 534 541 541 543 q 517 527 525 533 q 504 516 511 522 q 494 509 498 511 q 487 505 491 509 q 478 496 483 500 q 470 488 474 492 q 463 484 465 484 q 482 481 469 484 q 511 476 496 479 q 540 470 526 473 q 559 468 553 468 q 579 465 566 468 q 608 459 593 463 q 636 451 623 455 q 656 443 650 446 q 666 440 659 443 q 679 435 672 438 q 696 428 686 432 l 721 419 q 731 415 726 419 q 736 411 734 413 q 749 394 743 401 q 761 381 755 387 q 770 371 766 374 l 785 347 q 791 338 788 344 q 796 328 793 333 q 802 314 799 321 l 802 298 l 802 273 l 793 258 q 790 251 793 255 q 785 243 788 247 q 778 233 782 238 l 753 210 q 739 198 749 206 q 717 181 729 191 q 694 164 705 172 q 681 153 684 156 q 660 138 675 147 q 629 118 645 128 q 600 100 613 109 q 583 89 586 92 q 572 86 580 89 q 554 80 564 83 q 537 72 545 76 q 526 65 529 68 q 504 57 520 63 q 467 44 488 52 q 422 28 446 37 q 377 13 398 20 q 339 0 355 5 q 317 -8 323 -6 q 286 -25 299 -14 q 261 -49 273 -36 q 252 -56 256 -54 q 243 -62 248 -60 q 236 -64 239 -64 l 220 -72 l 204 -72 l 179 -72 l 164 -64 q 152 -52 157 -58 q 147 -40 147 -47 l 139 -16 l 132 0 l 115 17 l 98 25 l 83 40 l 75 57 q 74 65 75 60 q 71 77 73 71 q 68 88 69 83 q 66 97 66 94 l 66 129 m 212 307 l 212 290 l 220 267 l 220 241 q 221 230 220 238 q 224 213 222 222 q 227 196 225 204 q 228 186 228 189 q 230 175 228 182 q 236 158 233 167 q 241 140 239 149 q 244 129 244 132 l 253 97 l 261 89 l 293 89 l 325 89 q 335 90 328 89 q 350 93 342 92 q 364 96 357 94 q 374 97 370 97 q 382 99 376 97 q 394 105 388 102 q 405 110 399 108 q 414 113 410 113 q 428 117 417 113 q 450 125 438 121 q 473 134 463 130 q 486 138 483 138 q 494 140 489 138 q 503 145 498 142 q 512 150 507 148 q 519 153 516 153 q 530 158 522 153 q 548 170 538 163 q 567 184 557 177 q 583 193 577 191 q 593 202 586 196 q 608 213 600 208 q 622 222 615 218 q 632 227 629 227 l 640 233 q 647 243 643 236 q 655 257 652 250 q 661 272 659 265 q 664 282 664 279 l 664 298 l 664 307 q 655 315 659 311 l 640 330 l 624 339 q 601 348 614 342 q 574 358 587 353 q 543 371 559 364 q 532 372 540 371 q 514 375 524 374 q 497 378 505 376 q 486 379 489 379 l 431 379 l 374 379 q 362 378 370 379 q 344 375 354 376 q 325 372 334 374 q 309 371 315 371 q 299 370 305 371 q 286 367 293 368 q 268 363 277 365 q 258 360 265 363 q 244 354 252 357 q 230 346 237 351 q 220 339 222 342 l 212 322 l 212 307 m 204 509 l 204 484 l 212 475 l 228 475 l 236 475 q 256 483 242 478 q 283 492 269 487 q 310 501 298 496 q 325 509 321 505 q 335 514 328 509 q 350 525 342 519 q 364 535 357 530 q 374 541 370 541 q 388 550 376 543 q 414 565 400 557 q 439 579 427 572 q 454 589 451 585 q 462 591 458 589 q 469 596 466 593 q 478 604 473 600 l 486 612 l 486 621 l 486 629 l 478 636 q 469 640 473 638 q 462 643 466 642 q 454 644 458 644 q 443 646 451 644 q 426 649 435 647 q 408 652 416 650 q 397 653 400 653 l 334 653 l 268 653 q 260 650 265 653 q 248 645 254 648 q 236 639 242 642 q 228 636 231 636 l 212 629 q 211 609 212 623 q 208 581 210 595 q 205 552 207 566 q 204 532 204 538 l 204 509 z "},"C":{"ha":646,"x_min":52,"x_max":646,"o":"m 52 179 l 52 229 q 53 241 52 232 q 56 262 54 251 q 58 282 57 273 q 60 294 60 291 q 62 306 60 297 q 67 323 64 314 q 73 341 71 333 q 75 353 75 349 q 79 362 75 355 q 87 378 83 370 q 95 393 91 386 q 98 403 98 399 q 101 413 98 406 q 107 428 104 420 q 113 442 110 435 q 115 452 115 449 l 122 486 q 124 500 122 492 q 130 516 127 509 q 139 534 134 525 l 170 570 l 186 593 q 197 608 189 600 q 214 626 205 617 q 230 642 222 635 q 241 653 238 649 l 265 661 l 282 668 q 291 674 285 668 q 305 689 298 681 q 319 704 313 697 q 329 710 326 710 q 339 714 332 710 q 353 722 346 718 q 367 731 360 727 q 376 734 373 734 l 400 751 q 409 754 404 751 q 419 760 414 756 q 432 768 425 763 l 464 777 q 475 781 467 777 q 492 789 483 785 q 508 798 500 793 q 519 802 516 802 q 535 806 526 802 q 550 810 545 810 l 575 810 l 599 810 q 608 804 604 807 q 615 799 611 802 q 623 793 619 796 q 628 790 625 793 q 633 785 631 788 q 637 777 635 781 l 637 751 l 637 726 q 635 718 637 723 q 630 706 633 712 q 625 694 627 700 q 623 685 623 688 l 599 661 l 447 661 q 438 657 442 659 q 431 654 435 656 q 424 653 427 653 q 413 645 420 649 q 397 636 405 640 q 376 627 387 631 q 346 600 361 612 q 319 577 333 589 q 297 561 306 566 l 289 553 q 280 537 286 545 q 267 520 274 528 q 250 501 260 511 q 241 488 247 498 q 229 465 235 477 q 217 440 222 452 q 208 422 211 429 q 205 415 208 419 q 200 406 203 410 q 194 396 197 401 q 192 389 192 392 q 187 379 189 383 q 184 371 186 375 q 183 364 183 368 l 175 330 q 173 321 175 328 q 168 306 170 314 q 162 292 165 298 q 160 282 160 285 l 160 222 l 160 164 q 164 155 162 159 q 167 148 165 152 q 168 140 168 144 l 183 114 q 192 106 186 111 q 203 95 197 100 q 216 81 210 88 q 224 76 220 78 q 232 73 228 75 q 239 72 235 72 q 257 67 245 72 q 282 62 269 62 l 297 62 l 304 62 l 329 69 l 359 78 q 462 117 414 98 q 558 161 510 137 l 575 170 l 607 196 l 614 196 l 629 196 l 646 179 l 646 170 l 646 153 q 643 146 646 150 q 637 138 641 142 q 629 129 634 134 q 615 118 627 125 q 590 103 604 111 q 565 89 576 96 q 550 78 553 81 q 541 73 547 78 q 527 62 534 68 q 513 51 519 56 q 503 46 506 46 q 483 36 496 43 q 455 21 470 28 q 427 6 440 13 q 408 -4 414 -1 q 398 -7 405 -4 q 384 -13 392 -9 q 370 -18 376 -16 q 359 -21 363 -21 l 321 -29 l 289 -37 l 241 -37 l 203 -37 q 181 -28 192 -33 q 162 -20 172 -24 q 147 -12 153 -16 q 136 -8 141 -12 q 131 -4 133 -6 q 121 4 127 -1 q 107 16 114 10 q 95 28 100 22 q 90 37 90 34 q 78 64 84 52 q 68 87 73 76 q 60 104 63 98 q 58 111 60 107 q 56 119 57 115 q 52 129 54 124 l 52 179 z "},"D":{"ha":806,"x_min":-28,"x_max":754,"o":"m 69 75 l 69 83 q 71 92 69 86 q 77 106 73 98 l 85 123 l 93 147 l 102 164 l 117 187 l 125 204 l 125 211 l 125 228 q 123 242 125 231 q 121 268 122 254 q 118 293 119 281 q 117 309 117 305 l 117 349 q 116 358 117 351 q 113 373 115 365 q 111 387 112 380 q 110 397 110 394 l 110 414 q 109 449 110 422 q 106 506 107 476 q 103 563 104 536 q 102 599 102 590 l 93 615 l 85 623 q 68 627 75 625 q 55 629 61 628 q 45 631 48 631 l 36 631 q 29 632 33 631 q 22 635 25 633 q 12 639 17 637 q 2 647 9 642 q -11 659 -4 653 q -23 670 -18 665 q -28 679 -28 675 l -28 696 l -28 711 q -26 721 -28 714 q -24 735 -25 728 q -21 750 -22 743 q -20 760 -20 756 l -11 768 l 4 777 q 20 780 11 777 q 29 783 24 781 q 40 785 32 783 q 57 787 47 786 q 74 790 66 789 q 85 791 81 791 q 93 797 90 794 q 99 802 96 800 q 102 808 102 805 l 110 823 l 117 832 q 124 833 120 832 q 132 836 128 835 q 142 840 137 838 q 150 839 144 840 q 161 835 155 838 q 170 830 166 833 q 174 823 174 827 l 191 791 l 205 783 q 227 780 217 781 q 243 778 235 779 q 254 777 251 777 q 273 775 258 777 q 306 770 287 773 q 347 764 326 767 q 388 758 369 761 q 422 753 408 755 q 440 751 436 751 q 472 746 458 751 q 504 736 486 741 l 521 728 q 533 724 524 728 q 552 715 542 720 q 572 707 563 711 q 585 703 581 703 q 594 695 589 698 q 602 690 598 692 q 610 688 606 688 q 627 676 616 684 q 649 659 637 668 q 669 642 660 650 q 682 631 679 633 l 697 615 q 706 605 700 612 q 717 591 711 599 q 726 576 722 583 q 730 567 730 570 q 737 550 733 561 q 745 527 741 538 q 751 506 749 515 q 754 494 754 497 l 754 446 l 754 389 q 753 377 754 385 q 750 360 751 370 q 747 343 749 351 q 746 332 746 335 q 741 323 743 327 q 739 316 740 319 q 737 309 737 312 q 735 300 737 305 q 730 290 732 295 q 722 277 726 283 q 718 269 722 273 q 710 260 714 264 q 701 251 705 255 q 697 244 697 247 q 685 232 694 241 q 666 212 676 222 q 646 191 655 201 q 633 179 636 182 q 616 166 624 172 q 603 156 610 161 q 593 147 596 151 q 582 138 589 144 q 565 127 574 133 q 547 116 555 121 q 536 107 539 110 l 496 83 l 472 66 l 432 50 l 400 35 l 359 26 q 342 24 353 26 q 321 18 332 21 q 294 9 309 14 q 287 5 290 7 q 279 -5 279 0 l 262 -31 q 250 -42 259 -33 q 230 -62 241 -52 q 211 -82 220 -73 q 199 -94 201 -92 l 191 -94 q 181 -92 187 -94 q 170 -86 176 -90 q 157 -78 163 -83 q 149 -69 152 -73 q 144 -62 146 -66 q 142 -54 142 -58 l 134 -22 l 77 35 q 73 43 75 39 q 69 58 69 52 l 69 75 m 199 607 l 199 526 q 200 506 199 523 q 202 470 201 490 q 204 433 203 450 q 205 414 205 416 l 205 397 q 208 377 205 394 q 214 340 211 360 q 220 304 217 321 q 222 285 222 288 q 224 272 222 281 q 227 252 225 263 q 229 232 228 241 q 231 220 231 222 q 232 204 231 214 q 235 186 233 195 q 239 164 237 175 q 243 139 239 151 q 254 115 248 127 q 267 104 260 109 q 279 98 273 98 l 286 98 q 296 101 289 98 q 310 107 302 104 q 325 113 318 110 q 335 115 332 115 l 351 123 l 383 131 l 407 139 l 440 147 q 457 157 450 152 q 471 164 464 160 q 481 171 477 168 q 491 180 484 174 q 507 191 498 185 q 528 204 516 197 q 544 215 534 207 q 563 232 553 222 q 581 249 573 241 q 593 260 589 256 q 602 277 597 269 q 610 290 606 283 q 616 300 614 296 q 624 311 620 303 q 632 328 628 319 q 642 349 637 337 q 643 357 642 351 q 646 369 644 363 q 648 380 647 374 q 650 389 650 385 l 650 421 l 650 446 q 644 467 647 456 q 639 483 642 475 q 633 494 637 491 l 625 510 q 608 527 619 516 q 586 550 597 538 q 565 570 575 561 q 553 582 555 579 q 536 591 543 587 q 523 600 529 595 q 513 607 516 604 q 503 614 509 610 q 488 622 496 618 q 473 628 480 625 q 464 631 467 631 l 454 635 q 447 637 450 636 q 440 639 443 639 q 425 645 434 642 q 406 650 415 648 q 383 656 395 653 q 373 657 380 656 q 359 659 367 658 q 345 662 351 661 q 335 663 338 663 l 254 663 l 205 663 l 199 656 l 199 607 z "},"E":{"ha":586,"x_min":66,"x_max":586,"o":"m 83 43 l 83 253 q 82 263 83 256 q 79 280 81 271 q 77 297 78 289 q 75 309 75 305 l 75 334 l 75 349 q 78 356 75 351 q 83 365 80 360 q 89 374 86 370 q 92 380 92 378 l 92 623 q 84 627 88 623 q 76 636 80 631 q 69 647 72 642 q 66 656 66 652 l 66 679 l 66 703 q 71 712 68 707 q 74 720 72 716 q 75 728 75 724 l 83 743 q 93 753 86 746 q 107 767 100 760 q 122 782 115 775 q 132 791 129 788 l 147 800 l 164 800 l 180 800 q 191 799 184 800 q 205 796 197 798 q 219 793 213 794 q 229 791 226 791 q 244 791 233 791 q 271 789 256 790 q 302 787 286 789 q 333 785 319 786 q 359 784 348 785 q 375 783 371 783 q 385 782 378 783 q 399 780 391 781 q 414 778 407 779 q 424 777 420 777 q 450 769 433 773 q 483 761 466 765 q 512 754 499 757 q 529 751 526 751 l 554 736 l 561 720 l 561 703 l 561 679 l 554 663 l 546 656 l 521 656 l 497 656 q 479 658 494 656 q 448 663 465 661 q 417 668 431 666 q 400 671 403 671 l 335 671 l 269 671 q 262 668 266 671 q 253 663 258 666 q 244 658 249 661 q 237 656 240 656 l 229 647 l 225 637 q 222 630 224 633 q 221 623 221 626 q 217 607 221 617 q 212 590 212 597 q 211 580 212 587 q 208 566 210 574 q 205 551 207 558 q 204 542 204 545 l 196 510 l 196 501 l 196 486 q 197 477 196 483 q 200 466 199 472 q 203 454 201 460 q 204 446 204 449 l 237 446 l 269 446 q 287 447 273 446 q 317 450 300 448 q 355 453 335 452 q 392 457 375 455 q 423 460 410 459 q 440 461 436 461 l 489 461 l 529 461 l 538 437 l 538 421 l 538 414 l 529 397 q 527 391 529 394 q 521 386 524 389 q 513 380 517 383 q 502 379 510 380 q 485 377 494 378 q 467 375 475 376 q 456 374 458 374 l 432 366 q 419 363 429 366 q 399 357 410 360 q 379 351 389 354 q 367 349 370 349 q 352 346 363 349 q 326 341 340 344 q 301 336 313 338 q 286 334 289 334 q 274 330 283 334 q 254 320 264 326 q 233 309 243 315 q 221 300 224 303 q 213 297 218 300 q 205 291 209 295 q 199 283 201 288 q 196 277 196 279 l 196 228 l 196 172 q 200 163 198 168 q 203 155 201 159 q 204 147 204 151 l 212 132 l 229 123 q 238 122 232 123 q 249 119 243 121 q 260 117 255 118 q 269 115 266 115 l 286 115 l 301 115 q 313 117 304 115 q 331 119 321 118 q 348 122 340 121 q 358 123 355 123 q 375 125 364 123 q 397 127 387 126 q 424 132 410 130 l 449 132 l 472 139 q 484 140 475 139 q 501 143 492 142 q 518 146 510 144 q 529 147 526 147 l 538 147 l 546 147 q 553 146 549 147 q 561 143 557 144 q 570 139 565 141 l 578 132 l 586 107 l 586 92 l 586 83 l 578 66 q 565 58 571 62 q 554 50 559 54 q 546 43 549 46 q 538 36 543 39 q 530 31 534 33 q 521 26 526 28 q 505 22 515 26 q 489 18 495 18 l 440 18 q 427 17 437 18 q 407 15 418 16 q 384 12 395 13 q 367 11 373 11 q 341 8 358 11 q 308 2 325 5 q 278 -3 292 -1 q 261 -5 264 -5 q 251 -9 258 -5 q 237 -17 245 -13 q 222 -25 229 -22 q 212 -29 216 -29 q 202 -32 209 -29 q 188 -38 196 -35 q 174 -43 180 -41 q 164 -46 167 -46 l 155 -46 l 147 -46 q 140 -45 144 -46 q 133 -42 136 -43 q 123 -37 128 -40 l 107 -22 l 98 -5 q 96 4 98 -3 q 91 19 94 11 q 86 33 88 26 q 83 43 83 39 z "},"F":{"ha":615,"x_min":32,"x_max":615,"o":"m 89 66 l 89 74 q 90 86 89 77 q 93 106 92 96 q 96 126 94 117 q 97 139 97 136 q 98 149 97 142 q 101 163 99 155 q 103 177 102 171 q 104 187 104 184 l 104 195 l 104 211 q 104 237 104 217 q 102 283 103 257 q 101 340 102 310 q 99 397 100 370 q 98 443 98 423 q 97 469 97 463 l 97 550 q 96 560 97 553 q 93 573 94 566 q 89 590 91 581 l 56 623 q 47 635 51 629 q 42 646 44 641 q 40 654 40 651 q 39 662 40 658 q 36 669 37 665 l 32 679 l 32 688 l 32 694 l 40 711 l 49 720 q 58 725 52 720 q 72 735 64 730 q 87 746 80 741 q 97 751 94 751 l 104 760 l 113 800 q 122 808 117 804 q 130 816 126 812 q 138 823 134 820 l 153 832 l 178 832 l 195 832 q 201 829 197 832 q 209 823 205 827 q 216 815 213 819 q 218 808 218 811 l 227 768 l 235 760 l 258 760 l 283 760 q 305 762 289 760 q 340 767 321 764 q 377 773 359 770 q 404 775 395 775 l 437 783 q 448 785 440 783 q 465 787 456 786 q 482 790 474 789 q 493 791 490 791 l 510 791 l 518 791 q 527 790 521 791 q 538 787 532 789 q 549 785 544 786 q 558 783 555 783 l 575 775 q 582 772 578 775 q 590 766 587 770 q 596 759 593 763 q 599 751 599 754 l 607 734 l 607 720 l 607 694 l 599 679 l 583 663 l 558 663 l 526 663 l 501 671 q 491 672 498 671 q 477 675 485 673 q 463 677 469 676 q 453 679 456 679 l 437 679 l 412 679 q 401 677 409 679 q 383 675 393 676 q 363 672 373 673 q 347 671 353 671 q 339 669 345 671 q 328 667 334 668 q 316 664 321 665 q 307 663 310 663 l 283 654 q 272 652 280 654 q 255 647 264 650 q 237 641 245 644 q 227 639 229 639 l 210 623 l 205 601 q 203 585 204 592 q 201 574 201 577 l 201 566 l 201 550 q 203 532 201 544 q 205 507 204 519 q 208 483 207 494 q 210 469 210 473 l 227 453 l 243 444 q 255 443 245 444 q 274 441 264 442 q 294 438 285 439 q 307 437 304 437 l 323 437 l 347 437 q 363 438 350 437 q 392 441 377 439 q 421 443 408 442 q 437 444 434 444 l 493 444 l 542 444 q 550 443 545 444 q 563 441 556 442 q 574 438 569 439 q 583 437 580 437 l 599 429 q 605 427 602 429 q 610 420 607 424 l 615 412 l 615 397 l 615 389 q 612 381 615 385 q 606 373 610 377 q 598 367 602 370 q 590 364 593 364 q 572 363 585 364 q 546 360 560 362 q 520 358 532 359 q 501 357 507 357 l 469 349 q 449 346 466 349 q 413 340 433 343 q 376 334 393 337 q 355 332 359 332 l 323 323 l 307 323 q 294 320 300 321 q 275 317 283 317 q 264 314 272 317 q 248 308 256 311 q 227 300 238 304 l 218 292 l 218 260 l 218 220 l 227 187 l 227 163 q 228 153 227 159 q 231 138 229 146 q 233 123 232 130 q 235 114 235 117 l 243 90 l 243 82 l 243 74 l 235 58 q 225 45 230 51 q 217 37 221 41 q 210 33 213 33 l 195 26 q 184 20 191 23 q 170 15 178 18 q 153 9 162 12 l 146 9 l 138 9 l 89 58 l 89 66 z "},"G":{"ha":789,"x_min":50,"x_max":737,"o":"m 600 74 l 591 74 q 579 69 588 74 q 559 58 570 64 q 539 46 549 52 q 528 41 530 41 q 518 37 523 39 q 510 35 514 36 q 503 33 506 33 l 463 25 q 451 23 459 25 q 434 17 443 20 q 416 12 425 14 q 406 9 408 9 q 397 8 402 9 q 387 5 392 7 q 374 1 380 3 l 325 1 l 285 1 q 273 3 281 1 q 256 6 265 4 q 239 12 247 9 q 228 18 231 15 q 218 21 224 18 q 203 27 211 23 q 189 34 196 31 q 179 41 182 38 q 172 44 176 41 q 164 50 168 46 q 155 58 160 53 q 145 67 152 61 q 131 82 139 74 q 117 96 123 90 q 107 106 110 103 q 98 119 102 113 q 90 130 94 125 q 82 138 85 135 q 67 174 71 157 q 58 211 64 192 l 50 235 l 50 258 l 50 283 q 53 313 50 292 q 58 356 55 333 q 64 399 61 378 q 66 428 66 419 q 88 482 78 452 q 111 536 98 512 l 126 561 l 135 568 q 159 609 147 587 q 183 648 171 631 q 193 661 186 652 q 208 681 200 671 q 222 701 216 692 q 232 714 229 711 l 249 737 q 260 751 252 743 q 278 767 269 760 q 297 781 288 774 q 309 790 306 787 q 318 797 311 793 q 333 805 325 801 q 347 811 340 808 q 357 814 353 814 l 382 814 l 406 814 q 413 811 408 814 q 422 805 418 808 q 431 800 427 802 q 439 798 435 798 l 452 785 q 462 774 457 779 q 471 765 467 768 q 478 756 474 762 q 486 746 482 751 q 494 733 490 740 l 494 725 l 494 710 l 479 693 l 454 685 l 349 685 l 325 669 l 317 661 l 293 629 q 288 621 293 626 q 276 609 283 615 q 265 597 270 603 q 260 589 260 592 q 249 573 257 585 q 232 547 241 562 q 215 519 222 533 q 204 500 207 506 l 196 485 q 188 460 193 475 q 177 430 182 445 q 169 403 172 415 q 165 387 165 391 q 164 376 165 384 q 161 358 163 368 q 158 339 159 349 q 157 323 157 330 l 157 298 l 157 275 q 158 265 157 272 q 161 251 159 258 q 164 236 163 243 q 165 227 165 229 q 168 219 165 223 q 172 211 170 215 q 177 202 175 206 q 179 195 179 197 q 193 182 186 188 q 203 171 198 176 q 211 163 208 166 q 221 154 214 159 q 235 144 228 149 q 253 131 243 138 q 263 123 256 127 q 280 115 271 119 q 298 109 290 111 q 309 106 306 106 l 342 106 l 374 106 q 386 107 376 106 q 406 110 395 109 q 426 113 417 111 q 439 114 435 114 q 460 122 450 119 q 476 128 468 125 q 486 131 484 131 q 509 139 496 134 q 536 149 523 144 q 568 163 552 155 q 577 166 571 163 q 588 175 583 170 q 600 186 594 180 q 608 195 605 191 l 616 211 q 620 226 616 218 q 624 235 622 230 l 624 267 l 624 298 q 623 309 624 302 q 620 323 622 315 q 617 337 618 331 q 616 347 616 344 l 608 355 l 576 355 l 543 355 l 528 347 q 514 337 524 344 q 491 323 503 331 q 468 309 479 315 q 454 298 457 302 l 431 292 l 406 292 l 390 292 l 374 298 l 357 315 q 351 323 353 319 q 346 330 348 327 q 342 339 343 334 l 342 347 l 342 364 q 345 382 342 370 q 349 396 347 389 l 366 411 l 382 419 q 396 422 385 419 q 422 428 408 425 q 448 433 436 431 q 463 436 459 436 q 476 441 465 436 q 500 453 487 446 q 525 466 513 460 q 543 476 537 473 l 568 492 l 583 500 q 591 501 587 500 q 599 504 595 503 q 608 509 604 506 l 640 509 l 665 509 l 681 500 q 688 492 684 496 q 696 485 692 488 q 705 476 700 481 q 711 459 708 467 q 715 446 713 452 q 721 436 718 439 q 729 408 727 423 q 737 379 731 392 q 736 343 737 367 q 733 291 734 320 q 729 231 731 262 q 725 170 727 199 q 722 118 724 141 q 721 82 721 94 l 721 58 l 721 41 q 722 20 721 35 q 725 -11 724 5 q 728 -42 726 -28 q 729 -62 729 -57 l 737 -79 l 737 -94 l 737 -103 l 732 -113 q 727 -120 729 -117 q 721 -127 724 -124 l 714 -135 q 707 -141 711 -138 q 699 -146 703 -144 q 689 -151 694 -149 l 665 -151 l 648 -151 q 640 -146 644 -149 q 634 -141 637 -144 q 632 -135 632 -138 l 624 -119 q 623 -112 624 -116 q 620 -104 621 -108 q 616 -94 618 -99 q 615 -84 616 -92 q 612 -67 614 -76 q 610 -50 611 -58 q 608 -39 608 -42 q 607 -16 608 -33 q 604 18 606 0 q 602 52 603 36 q 600 74 600 68 z "},"H":{"ha":718,"x_min":58,"x_max":685,"o":"m 541 46 l 541 53 l 549 78 l 541 110 q 539 136 541 116 q 536 178 538 156 q 533 220 534 201 q 532 245 532 240 q 529 266 532 252 q 523 294 526 279 q 518 323 520 309 q 515 343 515 337 l 507 358 l 492 367 q 478 359 488 363 q 455 352 467 355 q 432 346 443 348 q 418 343 421 343 l 378 335 l 346 326 q 327 325 342 326 q 293 323 311 324 q 260 320 275 321 q 241 319 244 319 q 232 315 237 317 q 224 313 228 314 q 216 311 220 311 l 208 302 q 207 294 208 299 q 204 283 205 289 q 200 271 202 277 q 201 258 200 267 q 204 238 203 249 q 207 218 205 227 q 208 205 208 208 q 210 187 208 203 q 213 151 211 171 q 219 112 216 132 q 225 83 222 93 q 228 75 225 81 q 233 64 230 70 q 238 52 235 58 q 240 43 240 46 l 240 36 l 240 20 l 232 11 q 213 -5 222 2 q 196 -17 203 -12 q 180 -28 188 -23 l 157 -28 l 117 12 l 104 40 l 106 98 l 109 140 l 109 239 q 105 264 107 252 q 101 286 104 275 q 96 302 99 296 l 87 319 l 72 343 q 62 363 66 351 q 58 395 58 376 q 62 413 59 406 q 69 425 65 420 q 77 437 73 431 q 82 452 81 443 l 90 467 q 90 487 90 473 q 91 519 90 501 q 91 558 91 538 q 91 596 91 578 q 92 629 92 614 q 92 648 92 643 l 92 657 l 83 681 q 82 692 83 684 q 80 709 81 700 q 79 726 79 718 q 78 737 78 734 l 78 753 l 78 770 l 90 793 l 98 802 l 132 810 l 153 818 l 160 818 q 169 816 163 818 q 180 812 174 814 q 193 806 186 809 l 205 789 l 215 770 l 215 753 l 215 745 q 213 731 215 742 q 208 709 210 721 q 202 686 205 696 q 200 672 200 675 q 199 662 200 669 q 197 644 198 654 q 194 624 195 634 q 193 608 193 614 l 193 536 l 193 456 l 200 439 l 216 432 q 241 433 222 432 q 282 435 260 434 q 321 438 303 437 q 346 439 340 439 q 355 441 349 439 q 370 447 362 444 q 385 453 378 450 q 395 456 391 456 l 435 464 q 443 465 438 464 q 454 468 448 467 q 467 472 460 470 l 484 479 l 492 488 l 500 511 q 498 536 500 517 q 496 576 497 555 q 493 616 494 597 q 492 640 492 635 q 490 650 492 643 q 488 665 489 657 q 485 679 486 672 q 484 689 484 686 l 475 721 q 473 730 475 724 q 471 745 472 737 q 468 760 469 753 q 467 770 467 766 q 464 782 467 772 q 458 802 461 791 q 452 821 454 812 q 449 833 449 830 q 447 841 449 837 q 444 849 446 845 q 440 859 442 854 q 442 867 441 863 q 444 874 443 870 q 444 882 444 878 l 444 897 q 462 916 451 903 q 479 935 473 928 q 488 939 484 937 q 496 942 492 940 q 504 943 500 943 l 528 943 l 545 943 q 552 938 549 941 q 557 932 555 935 q 559 926 559 930 q 567 919 563 924 q 575 908 571 913 q 585 895 580 901 l 585 888 l 585 793 l 585 785 q 586 772 585 782 q 589 749 587 762 q 591 726 590 737 q 593 713 593 715 q 594 703 593 709 q 596 688 595 696 q 599 674 598 681 q 600 665 600 668 l 600 625 q 602 612 600 622 q 604 592 603 603 q 607 572 606 582 q 608 559 608 563 q 610 537 608 553 q 613 498 611 520 q 617 451 614 476 q 621 405 619 427 q 624 366 623 382 q 625 343 625 349 q 627 332 625 340 q 629 314 628 323 q 632 297 631 305 q 633 286 633 289 q 636 251 633 274 q 641 205 638 229 q 646 163 644 182 q 648 142 648 144 l 648 102 q 650 93 648 98 q 652 82 651 87 q 657 69 654 76 q 660 60 657 66 q 667 49 663 55 q 673 38 670 43 q 676 29 676 32 l 685 12 l 685 5 l 685 -11 q 680 -24 682 -18 q 677 -34 679 -29 q 676 -43 676 -39 q 675 -50 676 -46 q 672 -58 673 -54 q 668 -66 670 -62 q 654 -78 663 -73 q 640 -89 646 -83 l 625 -93 q 614 -91 622 -93 q 598 -86 607 -89 q 583 -80 590 -83 q 572 -74 575 -77 q 568 -68 570 -71 q 565 -63 566 -66 q 564 -57 564 -60 q 559 -44 562 -50 q 557 -34 558 -39 q 555 -25 555 -28 q 553 -11 555 -19 q 548 5 551 -3 q 543 19 545 13 q 541 29 541 26 l 541 46 z "},"I":{"ha":282,"x_min":65,"x_max":229,"o":"m 72 41 l 72 65 l 81 89 q 82 106 81 95 q 84 129 83 117 q 86 150 85 140 q 87 163 87 159 q 88 184 87 165 q 88 227 88 203 q 89 276 88 251 q 89 315 89 300 q 89 355 89 330 q 88 404 88 380 q 88 447 88 429 q 87 468 87 465 q 86 499 87 477 q 83 545 85 521 q 81 591 82 570 q 79 623 79 613 l 77 646 q 71 661 73 652 q 68 680 69 671 q 65 703 66 691 l 65 718 l 65 734 q 66 743 65 738 q 69 753 68 748 q 74 766 71 760 q 76 775 74 770 q 82 787 79 781 q 90 799 86 793 q 97 807 94 804 l 114 815 q 121 817 117 815 q 130 819 125 818 q 139 823 134 821 q 159 822 151 823 q 176 815 168 821 l 193 800 q 207 762 205 781 q 208 718 208 743 l 208 711 q 206 701 208 708 q 202 687 204 694 q 198 672 200 679 q 196 663 196 665 q 195 654 196 659 q 193 643 194 648 q 190 631 191 637 q 189 623 189 625 l 189 525 l 189 428 q 190 405 189 420 q 191 371 191 390 q 193 332 192 353 q 195 294 195 312 q 197 262 196 276 q 197 243 197 249 q 199 232 197 239 q 201 215 200 224 q 204 197 203 205 q 205 186 205 189 q 206 173 205 182 q 208 153 207 164 q 211 131 209 142 q 216 114 213 120 l 221 82 q 222 75 221 79 q 225 66 224 71 q 229 57 227 62 l 229 41 l 229 33 q 224 25 227 28 q 218 19 221 22 q 212 17 216 17 q 207 13 209 17 q 202 5 204 9 q 197 -3 200 1 q 192 -7 195 -7 l 175 -16 l 155 -16 l 122 -16 l 106 -7 q 98 -5 102 -7 q 91 1 94 -3 q 82 8 87 3 q 77 11 79 8 q 74 16 75 13 q 72 25 73 20 l 72 41 z "},"J":{"ha":690,"x_min":26,"x_max":848,"o":"m 26 243 l 26 252 q 28 259 26 255 q 31 267 29 263 q 35 275 33 271 q 42 282 38 279 q 50 290 46 286 q 58 300 54 294 l 131 300 l 139 292 l 164 252 q 171 243 167 248 q 178 233 175 238 q 187 220 182 227 l 228 179 q 241 170 235 174 q 252 161 247 165 q 260 154 257 157 l 277 147 l 300 122 q 313 120 303 122 q 333 115 322 117 q 353 110 343 112 q 366 107 362 107 l 397 107 l 429 107 q 440 118 435 113 q 446 131 446 124 q 452 141 449 134 q 456 154 454 147 q 461 171 459 161 l 461 187 l 461 211 q 458 231 461 218 q 454 252 454 245 q 452 280 454 258 q 446 328 449 302 q 440 376 443 354 q 437 404 437 398 q 435 417 437 407 q 429 440 432 428 q 424 463 426 452 q 421 476 421 473 q 413 497 418 482 q 402 528 408 512 q 393 557 397 544 q 389 574 389 570 l 366 606 l 357 623 l 349 646 l 334 663 l 300 663 l 260 663 q 241 657 254 663 q 216 645 229 652 q 190 632 202 638 q 171 623 177 625 l 164 623 q 154 625 161 623 q 140 630 147 627 q 123 637 133 633 l 114 647 l 98 663 q 83 681 92 669 q 75 694 79 687 l 75 710 l 75 726 l 80 736 q 85 743 82 739 q 90 750 87 747 l 115 775 q 122 778 118 775 q 131 783 127 780 q 140 788 136 785 q 147 790 144 790 l 164 790 l 179 790 q 190 789 182 790 q 207 787 198 788 q 224 784 216 785 q 236 783 233 783 l 277 783 l 309 783 q 319 794 311 786 q 337 811 328 802 q 354 828 346 820 q 366 839 362 836 l 380 847 l 389 847 q 399 846 392 847 q 412 843 406 844 q 429 839 420 841 l 446 831 l 454 823 l 469 799 l 486 783 l 494 783 q 513 784 500 783 q 538 787 525 785 q 561 789 551 788 q 575 790 572 790 q 586 791 578 790 q 603 794 593 793 q 620 798 612 796 q 631 799 627 799 l 671 807 q 688 808 677 807 q 711 811 699 810 q 732 814 722 812 q 745 815 741 815 l 777 815 l 800 815 q 809 814 804 815 q 819 811 814 812 q 832 807 825 809 l 848 790 l 848 775 l 848 758 l 840 743 l 825 726 q 816 722 821 724 q 808 720 812 721 q 800 718 804 718 q 788 717 797 718 q 768 714 779 715 q 748 711 758 713 q 736 710 739 710 q 721 708 732 710 q 696 702 709 705 q 670 697 682 699 q 656 694 659 694 l 607 694 q 597 693 604 694 q 584 690 591 692 q 567 686 576 688 q 555 685 564 686 q 538 682 547 684 q 521 679 529 680 q 510 677 513 677 l 494 669 l 486 663 l 486 654 l 486 637 q 488 628 486 634 q 490 613 489 621 q 493 599 492 606 q 494 589 494 592 l 501 566 q 522 464 514 517 q 542 355 530 410 l 550 323 q 553 304 553 315 q 555 284 554 294 q 558 263 556 273 q 567 243 561 252 l 567 107 l 558 90 l 542 50 q 533 37 537 43 q 526 27 530 32 q 518 18 522 22 q 510 10 515 15 q 499 -1 505 5 l 486 -14 q 478 -16 483 -14 q 470 -22 474 -19 q 461 -28 465 -25 q 454 -31 457 -31 l 437 -31 l 421 -31 q 412 -29 418 -31 q 397 -26 405 -28 q 383 -24 389 -25 q 374 -22 376 -22 q 355 -17 370 -22 q 319 -5 339 -12 q 281 8 300 1 q 253 18 262 15 l 236 26 q 189 55 212 38 q 147 90 165 73 l 115 122 q 102 132 108 127 q 91 140 96 136 q 83 147 86 144 q 76 149 80 147 q 68 155 72 151 q 58 163 63 158 l 43 171 q 39 180 41 176 q 36 187 37 183 q 35 195 35 191 q 33 203 35 198 q 31 214 32 209 q 26 228 28 221 l 26 243 z "},"K":{"ha":831,"x_min":29,"x_max":956,"o":"m 126 -5 q 125 27 126 5 q 124 78 125 50 q 122 139 123 107 q 120 200 121 172 q 119 252 119 229 q 118 285 118 275 q 117 308 118 290 q 114 345 115 325 q 111 382 113 364 q 110 406 110 399 q 106 427 108 416 q 103 446 104 437 q 102 461 102 455 q 100 471 102 464 q 97 485 99 477 q 94 500 96 493 q 93 510 93 507 q 92 524 93 513 q 90 547 91 534 q 87 569 88 559 q 86 582 86 579 q 83 593 86 585 q 77 610 81 601 q 68 627 73 619 q 61 639 64 635 q 57 647 61 642 q 49 659 54 653 q 41 670 45 665 q 37 679 37 675 q 33 692 35 686 q 31 703 32 697 q 29 711 29 708 l 29 720 q 32 729 29 722 q 38 744 35 736 q 46 758 42 751 q 53 768 50 765 l 61 777 q 71 780 66 778 q 79 782 75 781 q 86 783 83 783 q 94 785 89 783 q 104 787 99 786 l 118 791 l 134 791 l 142 791 l 167 783 l 199 777 l 214 768 q 218 763 216 766 q 221 758 219 760 q 222 751 222 755 q 224 744 222 748 q 227 736 225 740 q 231 728 229 732 l 231 711 l 231 696 q 227 686 231 692 q 219 672 223 680 q 211 657 214 664 q 207 647 207 650 l 207 607 l 207 550 l 214 518 q 215 499 214 512 q 218 473 216 487 q 221 448 220 460 q 222 429 222 435 l 231 421 q 243 426 237 423 q 254 431 249 428 q 262 437 259 434 q 272 447 265 440 q 287 462 279 454 q 301 476 294 469 q 311 486 308 483 l 343 510 l 359 526 q 370 537 363 529 q 384 554 376 545 q 398 571 392 564 q 408 582 405 579 q 419 593 411 585 q 436 610 427 601 q 453 627 445 619 q 464 639 460 635 q 473 652 469 646 q 481 662 477 657 q 489 671 486 667 q 499 687 492 673 q 516 715 507 700 q 533 743 526 730 q 545 760 541 756 q 562 778 554 769 q 575 793 568 785 q 585 808 581 802 l 593 817 q 600 819 596 817 q 609 824 604 821 q 618 830 614 827 q 625 832 622 832 q 632 833 629 832 q 640 836 636 835 l 650 840 q 659 839 652 840 q 674 836 666 838 q 688 833 682 835 q 697 832 694 832 l 714 823 q 722 810 719 817 q 728 800 726 805 q 730 791 730 795 l 730 783 l 722 768 q 713 759 717 764 q 708 751 710 755 q 705 743 705 747 q 698 735 702 740 q 690 724 694 730 q 682 711 686 718 l 650 688 q 632 672 644 682 q 610 652 621 662 q 589 634 599 642 q 576 623 579 625 q 562 607 572 618 q 537 580 551 595 q 508 547 524 564 q 479 513 493 529 q 455 485 465 497 q 440 469 444 473 l 415 446 q 407 436 412 442 q 397 422 402 429 q 383 406 390 415 l 383 397 l 383 380 l 400 366 q 424 353 406 362 q 464 333 443 343 q 504 313 486 322 q 529 300 523 303 q 546 292 538 295 q 559 287 553 289 q 570 285 566 285 l 593 277 q 606 273 596 277 q 626 263 615 269 q 645 252 636 258 q 657 244 654 247 q 666 240 660 244 q 677 232 671 237 q 689 223 684 227 q 697 220 694 220 l 730 211 q 740 207 733 211 q 754 199 747 203 q 768 191 762 195 q 778 187 775 187 q 803 177 787 184 q 833 164 818 171 q 860 152 848 157 q 875 147 871 147 l 939 147 l 956 131 l 956 107 l 956 83 q 943 70 949 77 q 932 59 937 64 q 924 50 927 54 q 916 48 920 50 q 907 42 911 45 q 899 37 903 39 q 892 35 895 35 l 875 35 l 859 35 q 845 37 856 35 q 821 43 834 40 q 796 51 808 47 q 778 58 784 55 l 762 66 q 746 77 759 70 q 718 91 733 83 q 690 105 703 99 q 673 115 677 112 l 650 123 q 639 130 648 125 q 618 139 631 134 q 593 151 606 145 q 568 163 580 157 q 547 173 555 168 q 536 179 538 177 l 504 187 l 489 196 l 449 211 q 437 215 446 211 q 420 223 429 219 q 403 232 411 228 q 392 236 395 236 q 379 240 389 236 q 359 248 370 243 q 339 256 349 252 q 328 260 330 260 q 313 266 321 263 q 297 271 304 269 q 279 277 288 274 l 239 277 l 239 115 q 240 104 239 112 q 243 86 241 96 q 246 69 245 77 q 248 58 248 61 l 248 35 l 248 18 l 239 3 q 236 -5 239 -1 q 231 -13 234 -9 q 222 -22 227 -18 q 219 -30 222 -26 q 210 -37 215 -34 q 199 -46 205 -41 l 182 -54 l 174 -54 l 167 -54 l 150 -46 l 142 -37 q 139 -31 142 -35 q 134 -22 137 -26 q 129 -13 131 -18 q 126 -5 126 -9 z "},"L":{"ha":550,"x_min":62,"x_max":550,"o":"m 62 110 l 62 142 l 71 165 l 71 262 q 73 277 71 265 q 79 303 76 289 q 85 328 82 317 q 87 343 87 340 l 87 392 q 89 404 87 395 q 91 424 90 414 q 93 444 92 435 q 94 456 94 453 l 94 529 l 94 602 q 93 611 94 604 q 91 626 92 618 q 89 640 90 633 q 87 650 87 646 q 85 660 87 653 q 79 674 82 667 q 73 689 76 682 q 71 699 71 695 q 69 706 71 701 q 66 717 68 711 l 62 730 l 62 754 l 62 771 l 71 779 l 94 794 l 111 803 q 120 804 114 803 q 131 807 125 806 q 142 810 137 808 q 151 811 148 811 l 168 811 q 201 795 192 811 q 216 754 210 779 q 218 745 216 751 q 220 732 219 739 q 225 714 222 724 q 224 702 225 711 q 221 682 222 692 q 218 662 219 671 q 216 650 216 653 q 215 631 216 644 q 212 607 214 619 q 210 583 211 594 q 208 570 208 572 l 208 545 q 207 520 208 538 q 204 477 206 502 q 201 424 203 452 q 197 371 199 396 q 194 327 195 346 q 193 302 193 309 l 193 286 l 193 271 q 197 257 195 263 q 199 247 198 252 q 200 239 200 241 l 208 214 l 208 191 l 216 174 q 219 168 216 170 q 224 163 221 165 q 233 158 228 160 l 257 158 l 282 158 q 291 160 285 158 q 302 166 296 163 q 313 171 308 169 q 322 174 319 174 q 339 178 328 174 q 355 182 349 182 q 366 183 358 182 q 384 186 374 184 q 401 189 393 188 q 412 191 409 191 l 468 191 l 518 191 q 525 188 521 191 q 533 181 529 185 q 539 173 536 177 q 542 165 542 168 q 546 157 544 161 q 549 149 547 153 q 550 142 550 145 l 550 125 l 550 118 q 545 110 547 113 q 539 104 542 106 q 533 102 536 102 q 505 90 522 95 q 476 85 489 85 l 444 77 q 430 74 441 77 q 408 69 420 72 q 385 63 395 66 q 371 61 374 61 q 362 58 368 61 q 351 53 357 56 q 339 47 345 50 q 330 45 334 45 l 290 36 q 281 33 286 34 q 265 29 272 29 l 250 21 l 208 4 l 193 -11 l 176 -20 q 166 -21 173 -20 q 152 -24 160 -22 q 138 -26 144 -25 q 127 -28 131 -28 l 111 -20 l 103 -11 l 94 4 l 71 36 q 66 50 68 43 q 64 60 65 55 q 62 69 62 66 l 62 110 z "},"M":{"ha":895,"x_min":57,"x_max":879,"o":"m 637 552 q 616 517 623 529 q 606 495 611 506 q 597 478 601 484 q 593 468 597 475 q 585 451 589 460 q 576 433 581 441 q 572 422 572 425 q 569 406 572 419 q 559 378 565 393 q 549 350 554 363 q 541 334 543 336 q 535 325 541 330 q 525 313 530 319 q 514 301 519 307 q 509 293 509 296 l 485 256 q 475 248 480 251 q 467 242 471 244 q 460 240 463 240 q 452 239 456 240 q 445 236 448 237 q 436 232 441 234 l 422 236 q 412 239 417 237 q 404 240 407 240 l 396 248 q 392 256 396 251 q 384 269 388 262 q 375 283 379 277 q 371 293 371 290 l 355 318 l 347 334 l 323 366 l 315 390 q 311 400 315 393 q 302 417 307 408 q 291 434 296 427 q 283 446 286 442 l 267 471 l 241 511 l 223 532 l 215 524 q 212 506 215 519 q 210 486 210 492 l 210 414 l 210 342 q 211 332 210 338 q 214 317 212 325 q 217 303 216 310 q 218 293 218 296 q 223 280 218 290 q 234 261 229 271 q 245 241 240 251 q 250 229 250 232 q 251 218 250 227 q 252 196 252 209 q 254 169 253 183 q 256 142 256 155 q 258 120 257 129 q 258 109 258 111 l 267 85 l 267 77 l 267 68 l 258 53 q 255 44 258 50 q 246 34 251 39 q 235 21 241 28 q 227 12 231 18 q 218 1 222 7 q 209 -8 214 -4 q 201 -12 204 -12 l 186 -20 l 170 -20 l 154 -20 l 138 -4 q 133 5 135 1 q 130 14 132 9 q 129 21 129 18 q 127 30 129 24 q 125 43 126 36 q 121 60 123 50 l 121 140 q 120 155 121 143 q 117 182 119 168 q 115 210 116 196 q 114 229 114 223 q 113 241 114 232 q 110 261 111 251 q 107 280 109 271 q 106 293 106 290 l 106 567 l 97 583 l 65 615 l 57 631 l 57 671 l 57 711 q 61 720 59 715 q 64 728 62 724 q 65 736 65 732 l 74 743 l 97 760 q 105 766 100 763 q 116 770 111 768 q 129 775 122 773 l 161 775 l 201 775 l 218 768 q 229 760 221 765 q 242 746 237 754 q 253 731 246 737 q 262 723 259 726 l 280 692 l 298 665 l 307 648 q 311 638 308 644 q 318 625 315 633 q 323 611 321 618 q 326 601 326 604 q 339 580 333 589 q 350 564 345 572 q 358 553 355 556 q 374 530 364 547 q 393 500 383 514 q 410 473 402 486 q 422 458 418 461 l 439 443 l 448 444 l 460 457 q 468 467 463 460 q 479 480 473 473 q 492 503 485 493 q 496 513 492 506 q 504 527 500 519 q 513 541 509 534 q 517 550 517 547 l 532 575 l 541 590 q 553 623 547 609 q 566 656 559 637 q 568 669 566 661 q 573 686 570 677 q 578 701 576 694 q 581 711 581 708 l 589 751 l 597 768 q 601 775 597 771 q 609 784 605 779 q 617 792 613 788 q 621 800 621 797 q 624 807 621 804 q 633 814 628 811 q 646 823 638 819 l 661 832 l 677 832 l 701 832 q 710 830 705 832 q 721 827 715 829 q 734 823 728 825 l 747 810 l 766 791 l 775 775 l 775 751 l 775 736 q 772 727 775 732 q 767 715 770 722 q 761 704 764 709 q 758 696 758 699 q 754 665 756 680 q 751 638 753 652 q 750 615 750 624 l 750 607 q 751 582 750 598 q 754 549 753 566 q 757 519 755 532 q 758 503 758 506 q 760 493 758 499 q 762 479 761 486 q 766 463 764 472 q 769 445 766 459 q 774 414 771 431 q 780 383 777 397 q 782 366 782 368 l 790 334 q 791 322 790 330 q 794 305 793 314 q 798 289 796 296 q 799 278 799 281 q 800 268 799 275 q 803 254 802 261 q 807 237 805 247 q 817 209 810 228 q 831 169 823 190 q 846 128 839 147 q 856 100 852 109 q 862 96 859 100 q 870 87 866 92 q 876 77 873 82 q 879 68 879 71 l 879 60 l 879 45 l 875 35 q 872 27 873 31 q 871 21 871 24 q 863 8 865 14 q 856 -4 861 2 q 846 -12 851 -9 q 838 -18 842 -16 q 831 -20 834 -20 l 815 -28 l 799 -28 l 782 -28 q 773 -23 777 -26 q 766 -18 770 -21 q 758 -12 762 -16 l 750 -4 q 748 3 750 -1 q 742 12 745 7 q 737 21 739 17 q 734 28 734 25 q 733 35 734 31 q 730 43 732 39 q 726 53 728 48 q 725 63 726 56 q 722 80 724 71 q 720 97 721 89 q 718 109 718 105 q 714 127 718 111 q 706 161 711 143 q 698 194 702 179 q 694 212 694 210 q 682 297 688 255 q 669 382 675 339 l 661 422 q 660 432 661 425 q 657 447 659 439 q 654 461 656 454 q 653 471 653 467 q 652 484 653 473 q 649 507 651 494 q 647 529 648 519 q 646 543 646 540 l 637 552 z "},"N":{"ha":718,"x_min":54,"x_max":669,"o":"m 200 465 q 196 416 198 439 q 193 373 195 395 q 192 336 192 351 l 192 319 l 192 311 q 193 293 192 305 q 196 268 195 281 q 199 244 197 255 q 200 231 200 233 l 216 199 q 217 190 216 195 q 220 178 218 184 q 223 167 222 172 q 224 158 224 161 l 224 118 l 224 86 l 216 69 q 214 61 216 66 q 208 54 212 57 q 200 45 205 49 q 193 37 197 41 q 184 30 189 33 q 175 21 180 26 l 151 21 l 126 21 l 117 30 q 110 37 114 33 q 103 45 106 41 q 98 54 100 49 q 96 61 97 57 q 94 69 94 66 q 93 89 94 75 q 90 117 92 102 q 87 143 89 131 q 86 158 86 155 l 86 610 l 71 635 q 59 653 64 641 q 54 667 56 659 l 54 707 l 54 739 q 59 752 56 746 q 64 763 61 758 q 71 771 67 768 l 86 787 q 100 791 93 789 q 111 794 105 793 q 119 796 116 796 l 143 796 l 168 796 l 192 779 l 216 739 l 232 715 l 240 699 q 241 690 240 695 q 244 679 243 684 q 248 667 246 673 q 249 659 249 661 q 260 635 253 650 q 277 601 268 620 q 297 562 287 583 q 317 523 307 541 q 334 489 326 504 q 346 465 342 473 q 355 447 346 462 q 377 414 364 433 q 404 375 390 395 q 427 343 418 355 q 436 330 431 336 q 444 320 440 325 q 452 311 448 315 q 459 302 454 308 q 470 291 465 297 q 479 279 475 285 q 484 271 484 274 l 492 262 l 507 262 l 507 481 q 511 497 507 487 q 515 513 515 507 l 515 602 q 517 611 515 604 q 519 626 518 618 q 522 640 521 633 q 524 650 524 646 l 524 659 q 521 683 524 671 q 515 707 518 694 q 510 731 512 719 q 507 755 507 743 l 507 764 q 516 772 510 766 q 528 784 522 778 q 540 795 534 790 q 549 804 545 801 q 558 811 551 807 q 572 819 565 815 q 587 825 580 823 q 597 828 594 828 q 606 823 602 825 q 613 821 609 822 q 621 819 617 819 l 629 811 q 635 802 633 808 q 640 789 637 795 q 646 771 643 781 l 646 739 l 646 707 l 637 682 q 636 674 637 680 q 633 662 635 668 q 631 650 632 656 q 629 642 629 644 q 628 621 629 636 q 625 590 627 606 q 622 558 623 573 q 621 538 621 543 l 621 440 l 621 351 q 622 339 621 348 q 625 318 623 330 q 628 296 627 307 q 629 279 629 286 q 633 256 629 273 q 641 218 637 238 q 649 181 646 199 q 653 158 653 164 q 655 148 653 155 q 661 134 658 142 q 667 119 664 126 q 669 110 669 113 l 669 93 l 669 69 q 668 59 669 66 q 665 45 667 53 q 663 31 664 37 q 661 21 661 24 l 653 4 l 637 -11 l 621 -20 l 597 -20 l 564 -20 l 555 -11 l 541 12 q 536 20 541 16 q 528 28 532 24 q 515 37 522 33 l 500 45 l 492 53 q 487 62 492 56 q 475 77 481 69 q 464 92 469 85 q 458 102 458 98 q 449 116 456 106 q 432 141 442 127 q 410 170 422 155 q 389 200 399 186 q 371 224 378 214 q 361 239 363 235 l 346 271 l 321 302 q 308 322 317 309 q 289 353 300 336 q 265 388 277 370 q 241 424 252 407 q 221 453 230 440 q 208 472 212 466 l 200 465 z "},"O":{"ha":694,"x_min":52,"x_max":643,"o":"m 52 350 l 52 382 q 53 395 52 385 q 56 419 54 406 q 58 444 57 432 q 60 463 60 456 q 61 473 60 465 q 64 491 62 481 q 66 508 65 500 q 68 519 68 516 l 77 543 q 80 553 77 546 q 88 567 84 559 q 96 582 92 575 q 100 591 100 588 q 104 606 100 595 q 113 629 108 616 q 124 651 119 641 q 132 664 130 661 q 139 674 132 667 q 154 689 145 681 q 170 703 162 696 q 180 713 178 710 q 193 722 184 715 q 213 737 203 729 q 233 751 224 745 q 245 761 242 758 q 258 770 249 764 q 278 780 268 775 q 298 789 289 785 q 311 793 308 793 q 328 797 321 795 q 341 800 335 798 q 351 802 348 802 q 366 803 357 802 q 383 806 375 804 q 398 808 391 807 q 408 810 405 810 l 440 810 l 465 810 q 478 804 472 807 q 489 799 484 802 q 497 793 494 796 q 510 784 504 788 q 520 777 515 781 q 529 770 526 773 l 538 761 q 547 748 541 758 q 562 729 554 739 q 576 709 570 719 q 586 697 583 700 q 588 690 586 694 q 594 682 591 686 q 603 672 597 677 q 610 655 607 663 q 615 642 613 648 q 618 632 618 635 q 624 621 621 629 q 629 604 627 612 q 635 583 632 594 q 636 573 635 581 q 639 556 637 565 q 642 539 640 547 q 643 528 643 531 l 643 439 l 643 350 q 639 334 643 344 q 635 318 635 324 l 627 293 l 618 261 q 615 252 618 258 q 610 241 613 247 q 605 230 608 235 q 603 221 603 224 q 594 212 597 216 q 588 205 591 209 q 586 197 586 201 q 576 185 583 194 q 562 165 570 176 q 547 144 554 154 q 538 132 541 135 q 529 123 534 129 q 518 109 524 117 q 505 92 512 101 q 489 76 499 85 q 472 60 479 66 q 464 51 469 56 q 452 41 458 46 q 440 32 446 35 q 432 28 435 28 q 420 19 429 24 q 403 9 412 14 q 386 0 394 3 q 375 -4 378 -4 q 362 -7 369 -4 q 350 -13 356 -9 q 336 -18 343 -16 q 319 -21 328 -21 q 299 -17 309 -21 q 279 -9 289 -14 q 258 -1 269 -5 q 237 3 248 3 q 227 8 234 3 q 212 20 220 14 q 195 34 204 27 q 180 43 186 40 q 168 52 174 47 q 160 60 163 56 q 157 68 157 64 l 140 92 q 121 118 132 104 q 102 146 111 132 q 86 176 93 161 q 77 205 79 191 q 75 215 77 208 q 72 229 74 221 q 69 243 71 237 q 68 253 68 250 q 65 265 68 256 q 59 286 62 275 q 54 306 56 296 q 52 318 52 315 l 52 350 m 149 358 l 149 350 q 151 340 149 347 q 157 326 154 334 q 163 311 160 318 q 165 301 165 304 l 174 269 l 180 253 l 189 229 q 193 220 189 226 q 201 209 197 215 q 210 198 206 203 q 214 189 214 192 q 219 179 214 186 q 231 164 224 172 q 244 150 237 157 q 254 140 251 143 q 257 134 254 137 q 262 130 259 132 q 271 125 266 127 q 279 122 273 125 q 290 116 284 119 q 302 111 296 113 q 311 109 308 109 l 343 109 l 368 109 q 381 113 375 111 q 392 118 387 115 q 400 125 397 121 q 408 127 404 125 q 415 132 412 129 q 424 140 419 136 q 434 149 427 143 q 448 160 441 155 q 460 172 454 166 q 465 180 465 177 l 489 221 l 514 245 q 521 259 517 248 q 529 281 525 269 q 535 304 532 294 q 538 318 538 315 q 539 333 538 321 q 542 359 541 345 q 545 387 543 374 q 546 407 546 401 l 546 456 l 546 503 q 545 513 546 506 q 542 527 543 519 q 539 542 541 535 q 538 551 538 548 q 535 561 538 554 q 529 575 532 568 q 524 590 526 583 q 521 600 521 597 l 514 616 l 497 632 l 489 632 l 457 616 q 448 615 454 616 q 437 612 443 614 q 424 608 431 610 q 415 612 419 610 q 408 615 412 614 q 400 616 404 616 q 390 622 397 616 q 376 632 383 627 q 361 643 368 638 q 351 648 354 648 q 342 652 347 650 q 334 655 338 654 q 326 657 330 657 l 311 657 l 302 657 q 295 654 299 657 q 286 649 291 652 q 277 643 281 646 q 271 640 273 640 l 262 635 q 257 630 259 632 q 254 624 254 627 q 238 607 248 618 q 220 586 229 597 q 197 559 209 574 q 190 550 194 556 q 182 535 186 543 q 176 521 179 528 q 174 511 174 514 q 171 499 174 508 q 165 479 168 490 q 159 459 162 469 q 157 447 157 450 l 157 415 q 155 406 157 412 q 153 394 154 401 q 150 382 151 388 q 149 374 149 376 l 149 358 z "},"P":{"ha":675,"x_min":3,"x_max":667,"o":"m 132 60 l 132 83 l 140 100 l 140 107 l 140 115 q 139 125 140 118 q 136 139 138 132 q 134 154 135 147 q 132 164 132 161 l 117 164 l 100 164 q 91 163 96 164 q 80 160 85 161 q 68 157 74 158 q 60 155 62 155 q 46 161 53 158 q 35 166 41 163 q 26 172 30 169 l 20 180 l 11 196 l 11 220 l 11 244 q 15 253 13 249 q 18 260 16 256 q 20 268 20 264 l 26 277 l 43 285 l 52 285 l 60 285 l 92 268 l 100 268 q 112 273 106 268 q 123 285 118 279 l 123 340 l 123 397 q 122 411 123 400 q 120 433 121 421 q 118 456 119 446 q 117 469 117 466 q 115 488 117 473 q 113 522 114 504 q 110 555 111 540 q 109 574 109 570 q 104 587 106 581 q 101 598 102 593 q 100 606 100 603 q 98 613 100 609 q 96 621 97 617 q 92 631 94 626 l 83 637 l 43 663 l 11 694 q 7 711 9 704 q 4 725 5 718 q 3 734 3 731 l 3 743 l 11 758 q 22 774 17 764 l 26 783 l 60 790 q 67 793 62 790 q 76 799 71 795 q 84 804 80 802 q 92 807 88 807 l 254 807 l 407 807 q 420 806 410 807 q 445 803 431 804 q 470 800 458 802 q 489 799 483 799 q 498 798 492 799 q 513 794 505 796 q 528 791 521 793 q 538 790 534 790 q 555 783 547 785 q 568 777 562 779 q 578 775 574 775 q 597 767 587 772 q 617 756 607 762 q 635 743 627 750 q 650 726 644 735 q 652 719 650 723 q 658 711 654 715 q 667 703 661 707 l 667 694 l 667 686 q 665 675 667 683 q 663 658 664 667 q 660 641 661 649 q 659 631 659 633 q 656 619 659 627 q 651 602 654 611 q 645 585 648 593 q 643 574 643 576 q 629 555 636 564 q 618 539 624 548 q 610 525 613 531 q 606 518 610 522 q 598 509 602 514 q 590 500 593 505 q 586 493 586 496 q 576 482 583 490 q 563 466 570 474 q 546 446 555 456 q 533 434 543 442 q 512 416 524 426 q 489 396 500 406 q 472 380 478 387 l 440 357 q 430 351 437 357 q 416 337 424 345 q 401 323 408 329 q 392 317 395 317 q 382 313 389 317 q 367 305 375 309 q 353 297 359 300 q 343 293 346 293 l 311 268 q 301 264 308 268 q 286 256 294 260 q 272 248 279 252 q 262 244 265 244 l 254 236 l 245 220 l 245 212 q 247 180 245 200 q 250 140 248 159 q 254 92 252 117 l 262 68 q 266 48 262 60 q 269 35 267 41 l 269 20 l 269 3 l 245 -21 q 236 -30 242 -24 q 222 -40 229 -35 q 205 -53 215 -46 l 189 -53 l 172 -53 q 160 -44 165 -48 q 152 -37 155 -41 q 149 -29 149 -33 q 144 -20 146 -24 q 142 -12 143 -16 q 140 -5 140 -8 q 139 3 140 -2 q 136 14 138 9 q 132 28 134 21 l 132 60 m 221 582 l 221 510 q 222 485 221 504 q 225 445 224 467 q 228 405 227 424 q 229 380 229 387 q 231 371 229 377 q 233 357 232 364 q 237 340 235 350 l 254 334 q 346 391 302 357 q 432 461 389 425 l 481 510 q 489 518 484 513 q 500 530 494 524 q 509 541 505 536 q 513 550 513 547 l 521 574 q 526 585 521 576 q 537 602 531 593 q 548 619 543 611 q 553 631 553 627 l 553 637 l 553 654 l 546 663 l 521 677 q 512 684 517 681 q 502 689 507 686 q 489 694 496 692 q 477 696 486 694 q 460 699 469 697 q 443 701 451 700 q 432 703 435 703 l 367 703 l 302 703 q 294 701 299 703 q 282 699 288 700 q 271 696 276 697 q 262 694 265 694 l 245 686 l 229 671 l 221 646 l 221 582 z "},"Q":{"ha":889,"x_min":52,"x_max":965,"o":"m 52 231 l 52 302 l 52 375 q 57 404 54 391 q 63 428 60 416 q 69 447 66 440 q 72 459 69 451 q 78 475 75 467 q 85 491 82 484 q 87 501 87 498 l 97 519 l 115 566 q 129 581 118 568 q 152 608 139 593 q 177 638 165 623 q 196 664 189 654 q 200 672 196 667 q 210 682 204 677 q 224 692 216 686 l 241 700 q 252 707 245 700 q 268 723 260 714 q 284 739 277 732 q 296 746 292 746 q 315 756 302 749 q 340 772 328 764 q 363 788 353 781 q 378 800 374 796 q 388 804 383 802 q 396 807 392 806 q 404 808 401 808 q 415 810 408 808 q 432 813 423 811 q 448 817 440 815 q 458 818 455 818 l 504 818 l 549 818 q 564 813 556 815 q 575 810 570 811 q 585 808 581 808 q 600 799 592 803 q 611 793 606 795 q 621 790 617 790 q 638 781 627 787 q 660 769 650 775 q 685 754 672 762 q 697 742 688 751 q 717 723 707 733 q 736 704 727 713 q 749 692 745 694 q 756 674 749 688 q 772 644 763 661 q 790 610 781 627 q 803 583 799 593 q 807 573 805 578 q 810 564 808 569 q 811 555 811 559 q 818 538 814 549 q 824 516 821 528 q 828 496 826 505 q 829 484 829 487 q 831 463 829 477 q 834 435 832 450 q 838 409 836 421 q 839 393 839 397 q 824 358 831 375 q 812 328 818 344 q 803 302 806 313 q 794 285 799 296 q 785 264 789 274 q 775 239 781 252 q 765 224 770 231 q 756 212 761 218 q 749 203 752 206 q 736 185 745 196 q 717 163 727 174 q 697 143 707 153 q 685 131 688 134 q 662 104 678 121 q 627 71 645 87 q 594 40 609 54 q 576 22 579 26 q 565 17 573 22 q 549 4 557 11 q 533 -8 541 -2 q 522 -14 525 -14 l 513 -22 l 514 -40 l 522 -50 q 550 -66 532 -57 q 585 -85 568 -76 q 627 -107 604 -96 l 718 -119 l 786 -117 l 856 -115 l 913 -103 l 937 -98 l 956 -104 l 965 -122 l 965 -131 l 965 -140 l 947 -158 l 929 -167 q 911 -175 922 -170 q 890 -184 901 -180 q 865 -195 878 -190 q 854 -196 862 -195 q 839 -199 847 -197 q 822 -201 830 -200 q 811 -203 814 -203 q 792 -208 801 -205 q 777 -211 785 -210 q 766 -212 770 -212 l 676 -212 l 603 -212 q 589 -211 600 -212 q 566 -207 579 -209 q 541 -201 553 -204 q 522 -195 529 -198 l 504 -184 l 476 -176 q 466 -174 473 -176 q 451 -168 458 -171 q 432 -158 442 -163 q 417 -147 429 -155 q 391 -131 405 -139 q 365 -115 377 -122 q 350 -104 353 -108 l 322 -77 l 304 -50 q 297 -42 301 -47 q 288 -33 292 -37 l 278 -22 l 250 -14 q 231 -4 243 -10 q 207 8 218 2 q 178 22 193 15 q 168 28 174 22 q 156 41 162 34 q 143 57 149 49 q 134 68 136 64 q 123 87 128 78 q 114 102 119 94 q 106 113 109 109 q 98 126 102 116 q 88 149 93 137 q 78 171 83 161 q 69 184 73 181 l 61 212 l 52 231 m 160 330 l 160 267 q 165 246 163 256 q 171 228 168 237 q 178 212 174 219 l 187 195 q 193 183 187 191 q 207 166 199 175 q 221 151 214 158 q 232 140 229 143 l 250 122 q 261 114 254 119 q 278 105 269 109 q 294 97 286 100 q 304 94 301 94 q 316 93 308 94 q 332 90 323 92 q 348 87 340 89 q 359 86 356 86 l 414 86 l 458 86 q 473 90 466 88 q 485 93 479 92 q 494 94 491 94 q 504 97 498 94 q 517 103 511 100 q 530 110 524 107 q 541 113 536 113 q 564 136 547 119 q 598 172 580 153 q 634 207 617 191 q 657 231 650 224 q 666 241 661 233 q 676 257 671 249 q 686 274 681 266 q 694 285 691 281 q 697 295 694 288 q 704 312 700 303 q 710 328 707 320 q 713 339 713 336 q 715 355 713 342 q 722 382 718 367 q 728 413 725 397 q 730 439 730 429 l 730 447 l 721 484 l 713 529 q 710 545 713 536 q 703 563 707 554 q 694 583 699 573 q 680 602 691 590 q 657 627 669 614 q 632 650 644 640 q 612 664 619 661 l 595 664 l 576 664 l 549 637 l 530 628 l 486 628 l 440 628 q 430 633 435 630 q 421 636 426 634 q 414 637 417 637 l 396 646 l 386 646 l 368 646 l 350 637 q 339 632 347 637 q 322 620 331 626 q 307 607 314 613 q 296 602 299 602 l 278 591 l 268 581 q 258 573 263 577 q 250 566 254 569 q 241 554 247 562 q 229 538 235 546 q 214 519 221 530 q 209 506 214 516 q 199 483 205 496 q 187 458 193 470 q 178 439 181 446 q 171 427 174 435 q 165 408 168 418 q 160 385 163 397 l 160 330 z "},"R":{"ha":765,"x_min":7,"x_max":885,"o":"m 125 39 l 125 47 q 126 60 125 51 q 129 79 127 69 q 132 99 131 90 q 134 111 134 108 l 134 183 l 134 256 l 125 283 l 107 319 l 97 347 l 97 355 q 100 367 97 359 q 106 384 102 375 q 113 399 110 392 q 115 410 115 406 l 115 464 l 115 519 q 111 534 113 526 q 109 546 110 539 q 107 555 107 552 q 98 574 102 566 q 92 589 94 582 q 89 600 89 597 q 83 614 89 608 q 71 628 77 621 l 53 636 l 25 654 l 17 664 l 7 682 l 7 710 l 7 736 l 17 754 q 21 762 17 758 q 30 772 24 767 q 43 782 35 777 l 61 790 q 72 792 64 790 q 89 795 80 793 q 104 799 97 797 q 115 800 112 800 l 143 808 q 155 810 146 808 q 174 815 163 812 q 194 820 184 818 q 211 822 204 822 q 222 823 214 822 q 238 827 231 825 q 257 832 247 829 l 321 832 l 383 832 q 399 831 387 832 q 425 829 411 830 q 450 827 438 828 q 465 827 462 827 q 478 824 468 827 q 502 818 489 821 q 527 811 515 814 q 546 808 539 808 q 569 803 559 808 q 591 790 578 798 q 603 782 595 787 q 618 774 610 778 q 637 764 627 769 l 656 746 q 662 736 659 742 q 667 724 665 730 q 673 710 670 718 l 673 682 l 673 646 q 669 635 671 640 q 664 618 664 626 q 646 588 657 602 q 621 561 634 574 q 592 536 607 548 q 564 510 577 524 q 553 500 560 507 q 538 488 546 494 q 519 473 530 481 l 492 456 q 476 447 487 453 q 450 432 465 440 q 419 414 435 424 q 389 397 404 405 q 363 382 374 389 q 347 374 352 376 l 339 366 l 339 355 l 357 338 l 375 329 l 419 311 l 437 301 l 447 292 l 465 283 l 492 273 q 518 263 502 270 q 552 248 535 256 q 581 235 568 241 q 597 229 594 229 q 637 207 612 222 q 689 173 662 191 q 741 139 716 155 q 779 115 766 123 q 791 113 782 115 q 810 109 800 111 q 829 104 821 106 q 842 102 838 102 l 860 92 l 875 74 q 880 65 878 71 q 885 43 882 60 q 883 30 885 37 q 876 18 880 22 q 867 9 873 14 q 856 0 861 5 q 844 -8 850 -5 q 836 -11 839 -11 l 827 -11 l 808 -11 q 791 -7 802 -11 q 772 -3 780 -3 l 754 7 q 742 12 751 7 q 723 24 733 18 q 704 36 713 31 q 692 41 694 41 q 679 46 688 41 q 660 57 670 51 q 641 67 650 62 q 628 72 631 72 l 610 82 q 597 88 606 82 q 578 100 588 94 q 558 112 568 106 q 546 118 549 118 l 528 126 q 499 139 517 130 q 462 158 481 149 q 429 175 444 168 q 411 182 414 182 q 401 184 408 182 q 388 191 395 187 q 375 197 382 195 q 366 200 369 200 q 353 207 362 203 q 334 214 344 211 q 314 220 323 218 q 301 222 305 222 l 275 240 q 268 240 272 240 q 259 239 263 239 q 249 237 254 238 l 248 208 l 248 191 l 248 164 q 249 151 248 160 q 252 132 250 142 q 256 110 254 121 q 257 93 257 100 q 261 74 259 83 q 264 59 262 66 q 265 47 265 51 l 265 29 l 265 21 q 260 12 262 16 q 254 5 257 8 q 248 3 251 3 q 238 -7 244 -1 q 225 -19 232 -13 q 212 -29 218 -24 q 203 -33 205 -33 l 184 -39 q 172 -36 177 -39 q 161 -33 168 -33 l 143 -16 l 134 3 q 132 11 134 6 q 129 19 130 15 q 125 29 127 24 l 125 39 m 229 482 l 237 454 l 245 446 l 256 446 l 264 446 q 277 450 267 446 q 297 460 286 454 q 316 473 307 467 q 329 482 326 479 q 350 492 336 486 q 378 505 363 498 q 404 518 392 512 q 419 528 416 524 q 431 532 423 528 q 447 543 439 536 q 463 554 456 549 q 473 564 470 560 l 492 582 q 500 591 495 585 q 509 604 505 597 q 519 618 514 610 q 524 628 522 623 q 526 637 525 632 q 528 646 528 642 l 528 664 l 528 673 l 519 682 l 501 692 l 473 700 q 454 707 467 703 q 431 713 442 711 q 401 720 417 716 l 329 720 q 315 719 326 720 q 291 719 304 719 q 267 719 278 719 q 253 718 256 718 l 235 700 q 233 688 235 696 q 230 669 232 679 q 227 649 228 659 q 225 636 225 640 q 227 607 226 621 q 229 583 228 595 q 229 564 229 570 l 229 482 z "},"S":{"ha":789,"x_min":7,"x_max":743,"o":"m 7 114 q 8 123 7 117 q 11 134 9 129 q 16 149 13 141 l 24 167 q 27 173 24 170 q 33 178 30 175 l 43 183 l 60 183 l 86 183 l 96 175 l 104 157 l 113 122 q 115 114 113 119 q 122 103 118 109 q 128 93 125 98 q 131 85 131 87 l 149 68 l 168 58 q 177 57 172 58 q 189 54 183 56 q 203 50 195 52 l 265 50 l 326 50 q 351 56 338 53 q 371 61 361 58 q 389 68 382 64 q 450 93 422 75 q 504 131 478 111 q 514 138 507 134 q 526 146 520 142 q 539 157 532 151 q 549 167 543 161 q 562 180 555 173 q 574 192 568 186 q 583 201 580 198 l 602 228 q 604 237 602 231 q 610 250 607 243 q 616 262 614 256 q 619 272 619 269 l 619 281 l 619 290 q 618 298 619 294 q 615 307 616 302 q 611 317 613 311 q 601 328 606 323 q 591 337 596 333 q 583 340 587 340 q 570 349 576 345 q 558 355 564 353 q 549 358 552 358 l 522 371 q 512 372 519 371 q 496 375 505 374 q 480 378 488 376 q 469 379 473 379 q 435 380 458 379 q 383 381 412 380 q 322 383 354 382 q 262 385 291 385 q 210 387 233 386 q 176 387 187 387 q 167 389 173 387 q 154 392 161 390 q 140 395 146 393 q 131 396 134 396 q 120 399 127 396 q 104 407 113 402 q 88 416 96 411 q 78 424 81 420 q 65 436 71 430 q 60 450 60 443 q 58 458 60 454 q 56 466 57 462 q 52 476 54 471 q 53 486 52 479 q 56 498 54 492 q 58 510 57 505 q 60 519 60 516 l 78 547 q 92 567 81 553 q 117 593 104 580 q 144 618 131 607 q 165 633 158 630 l 200 661 q 210 667 203 661 q 222 679 216 672 q 235 690 229 685 q 244 696 241 696 q 254 705 250 701 q 263 712 258 709 q 271 715 267 715 l 317 742 l 345 760 l 380 778 q 389 782 383 778 q 401 791 395 786 q 414 800 408 796 q 424 804 420 804 q 435 808 427 804 q 451 818 443 812 q 467 827 460 823 q 478 831 475 831 l 504 848 q 514 854 507 852 q 526 860 520 857 q 539 865 532 863 l 567 865 q 577 864 570 865 q 593 859 584 863 q 614 846 603 855 q 637 821 625 837 l 646 804 l 637 779 l 628 771 q 620 768 625 771 q 612 762 616 765 q 602 753 607 758 q 580 744 595 749 q 550 732 566 738 q 521 721 534 726 q 504 717 508 717 q 492 715 500 717 q 473 711 483 713 q 454 707 463 709 q 441 705 445 705 l 421 695 l 389 679 q 377 671 385 675 q 358 662 368 667 q 339 652 348 656 q 326 643 330 647 q 315 635 323 640 q 300 626 308 631 q 284 616 292 621 q 273 608 277 612 q 264 601 270 605 q 251 591 258 596 q 238 581 245 586 q 229 574 232 576 q 221 570 226 574 q 213 560 217 566 q 203 547 208 554 q 200 539 203 544 q 193 530 197 535 q 184 519 189 525 l 184 511 l 184 503 l 193 494 l 212 485 l 450 485 q 479 480 466 482 q 503 477 491 479 q 522 476 515 476 q 539 475 528 476 q 559 472 549 473 q 583 468 570 470 l 611 458 q 621 455 614 458 q 637 448 629 452 q 653 439 645 444 q 664 432 661 435 q 674 424 667 429 q 688 415 681 420 q 707 404 696 410 q 718 380 712 391 q 727 363 722 371 q 734 351 731 355 q 736 342 734 348 q 739 330 737 336 q 743 317 741 323 l 734 281 l 734 254 q 724 231 729 241 q 715 213 720 221 q 707 201 710 205 q 704 194 707 198 q 699 185 702 189 q 690 175 695 180 q 680 164 687 172 q 664 149 672 157 q 648 133 656 140 q 637 122 640 125 l 602 93 q 588 81 598 90 q 566 63 578 73 q 544 44 554 53 q 530 32 534 35 q 518 26 527 32 q 500 15 510 21 q 481 3 490 8 q 469 -3 473 -3 l 441 -21 q 431 -26 436 -24 q 414 -31 422 -31 q 400 -33 410 -31 q 379 -39 391 -36 q 357 -45 368 -42 q 345 -47 347 -47 l 317 -56 l 157 -56 q 146 -52 151 -54 q 138 -49 142 -50 q 131 -47 134 -47 q 119 -40 127 -44 q 101 -31 111 -35 q 78 -21 90 -26 q 68 -11 74 -17 q 55 1 62 -5 q 43 14 49 8 q 33 24 37 20 q 24 38 28 31 q 18 49 21 43 q 16 58 16 55 q 11 77 13 68 q 8 92 9 85 q 7 104 7 100 l 7 114 z "},"T":{"ha":734,"x_min":-7,"x_max":755,"o":"m 306 12 q 310 32 308 22 q 313 49 311 40 q 314 65 314 58 l 321 98 l 321 107 q 319 125 321 111 q 315 156 317 139 q 312 186 313 172 q 310 204 310 201 l 310 328 q 308 340 310 331 q 305 358 307 349 q 301 377 303 368 q 300 389 300 385 l 300 396 l 300 414 q 301 430 300 417 q 305 458 303 443 q 308 485 307 473 q 310 501 310 498 l 310 538 l 310 572 q 307 592 310 579 q 298 620 303 606 q 288 646 294 634 q 279 661 283 658 l 271 668 l 256 668 l 239 668 q 224 668 235 668 q 201 667 214 667 q 179 667 189 667 q 165 667 168 667 q 152 663 163 667 q 128 653 141 659 q 104 644 115 648 q 90 640 93 640 l 83 640 l 74 640 l 58 648 q 48 655 55 652 q 35 659 42 657 q 20 663 27 661 q 9 668 14 665 l 3 677 l -7 696 l -7 729 l -7 755 q -4 765 -7 759 q 1 777 -2 771 q 9 790 5 783 q 26 799 18 795 q 39 805 33 802 q 50 808 46 808 l 74 808 l 98 808 l 132 800 q 141 799 135 800 q 155 795 147 797 q 172 790 162 792 q 185 789 175 790 q 206 786 195 787 q 229 783 218 785 q 245 782 240 782 l 256 782 l 264 782 q 273 786 268 784 q 281 789 276 787 q 289 790 286 790 q 306 799 298 795 q 319 805 313 802 q 328 808 325 808 l 435 808 q 442 811 437 808 q 452 817 447 814 q 461 823 456 820 q 469 825 466 825 l 525 825 q 549 830 537 827 q 568 833 558 831 q 583 835 578 835 q 593 836 586 835 q 607 839 600 838 q 622 842 615 840 q 632 843 629 843 q 649 848 641 845 q 663 851 656 849 q 673 852 670 852 l 690 852 l 707 852 q 714 851 710 852 q 721 848 718 849 q 729 843 725 845 q 737 839 732 843 q 746 830 742 835 q 755 818 751 825 l 755 790 l 755 772 l 738 753 q 724 739 730 746 q 715 729 718 732 l 697 720 l 673 720 l 648 720 l 632 729 q 620 733 626 731 q 609 736 614 734 q 600 737 604 737 l 590 737 l 551 729 q 541 728 548 729 q 526 724 534 726 q 512 721 519 722 q 503 720 505 720 q 494 717 499 720 q 483 711 488 714 q 473 705 477 708 q 465 703 468 703 l 449 686 q 444 668 446 676 q 440 653 441 661 q 439 643 439 646 q 437 624 439 640 q 435 590 436 608 q 432 556 433 572 q 431 538 431 541 q 430 526 431 534 q 427 511 429 519 q 425 495 426 503 q 424 485 424 488 q 426 437 425 460 q 427 399 427 418 q 428 371 428 380 l 428 248 l 435 222 q 437 195 435 216 q 444 151 440 174 q 450 108 448 128 q 453 82 453 88 q 454 72 453 78 q 456 60 455 66 q 459 47 458 53 q 460 37 460 41 l 469 12 l 469 3 l 469 -5 l 460 -33 l 453 -40 l 435 -50 q 424 -53 432 -50 q 406 -59 416 -56 q 388 -65 397 -62 q 376 -68 379 -68 l 363 -68 l 346 -68 l 328 -58 l 321 -40 q 315 -25 318 -34 q 311 -8 313 -16 q 306 12 308 1 z "},"U":{"ha":686,"x_min":76,"x_max":665,"o":"m 96 131 q 95 140 96 134 q 92 155 94 147 q 90 169 91 163 q 89 179 89 176 l 79 221 q 77 244 77 229 q 76 274 76 259 q 76 301 76 289 q 77 317 77 313 l 77 342 l 77 366 q 77 385 77 370 q 79 419 78 399 q 81 463 80 439 q 84 506 83 486 q 85 541 85 526 q 86 559 86 555 l 86 625 l 86 688 l 77 704 l 77 721 l 77 729 q 79 739 77 732 q 85 753 81 746 q 93 768 89 761 q 102 778 98 774 q 105 785 102 781 q 113 793 109 789 q 125 803 118 798 q 142 806 134 804 q 156 809 149 808 q 167 810 163 810 l 182 810 l 191 810 q 199 809 194 810 q 210 806 205 808 q 224 803 217 804 l 231 794 q 233 785 231 791 q 239 774 235 780 q 248 762 242 768 l 248 753 l 248 737 q 243 728 245 732 q 240 721 241 725 q 239 714 239 717 q 233 694 239 710 q 219 661 227 679 q 205 626 211 642 q 199 607 199 610 q 197 600 199 605 q 195 588 196 594 q 192 576 193 582 q 191 568 191 571 q 190 551 191 565 q 187 521 189 538 q 184 488 185 504 q 183 463 183 471 l 183 456 q 184 416 183 440 q 186 370 184 392 q 189 317 187 344 q 190 298 189 311 q 191 272 191 286 q 193 245 192 258 q 193 227 193 233 q 194 217 193 224 q 197 199 195 209 q 201 179 199 189 q 205 164 203 170 q 210 151 205 161 q 219 129 214 140 q 230 108 224 118 q 237 94 235 98 l 245 86 l 262 78 l 279 86 q 287 89 283 86 q 294 94 290 91 q 302 103 298 98 q 315 110 306 106 q 335 118 325 114 q 353 127 345 123 q 361 135 361 132 q 371 149 363 138 q 385 172 378 159 q 399 196 393 185 q 408 211 406 208 q 441 253 428 229 q 462 301 454 277 q 473 344 470 324 q 476 372 476 363 l 476 424 l 476 479 q 475 492 476 482 q 472 515 473 503 q 469 537 471 527 q 468 551 468 548 q 467 569 468 554 q 464 600 465 583 q 461 631 463 616 q 460 648 460 645 q 457 664 460 652 q 450 689 454 675 q 443 714 446 703 q 440 729 440 726 l 440 762 l 440 794 q 441 802 441 798 q 440 807 441 805 q 435 810 439 810 q 435 813 431 810 q 444 823 439 817 q 455 834 450 828 q 460 843 460 840 q 469 863 464 854 q 490 875 475 871 l 507 875 l 530 875 q 542 872 534 875 q 556 867 549 870 q 570 862 564 865 q 581 860 577 860 l 597 843 q 598 833 597 840 q 600 819 599 826 q 601 804 600 811 q 602 794 602 798 l 602 770 l 602 737 q 600 727 602 734 q 596 713 598 720 q 593 698 595 705 q 591 688 591 691 l 587 664 q 586 656 587 661 q 584 645 585 650 q 582 633 583 639 q 581 625 581 628 q 579 606 581 618 q 577 581 578 593 q 576 557 576 568 q 575 543 575 546 q 576 522 575 537 q 577 491 576 507 q 579 460 578 475 q 581 439 581 445 q 582 426 581 436 q 584 399 583 415 q 588 365 586 384 q 593 328 591 347 q 598 294 595 310 q 602 268 600 278 l 606 254 q 608 244 607 249 q 610 236 610 239 q 611 228 610 233 q 614 220 612 223 q 618 211 616 215 l 625 196 l 642 164 q 644 154 643 159 q 646 146 646 150 q 647 139 647 142 q 648 129 647 136 q 652 115 650 122 q 657 98 654 107 l 657 75 q 659 67 657 71 q 661 59 660 62 q 665 50 663 55 l 656 33 q 650 16 652 24 q 643 3 646 9 q 636 -5 640 -3 l 629 -16 l 612 -22 l 587 -22 l 564 -22 l 547 -16 q 541 -5 545 -12 q 532 18 536 1 q 525 65 528 35 q 521 146 522 95 q 514 152 517 149 q 509 158 511 155 q 507 164 507 161 l 498 171 l 490 164 q 470 137 481 152 q 447 107 458 122 q 423 77 435 92 q 403 50 412 62 l 385 33 q 363 17 379 28 q 331 -6 348 5 q 299 -26 314 -17 q 282 -37 285 -35 l 279 -47 l 237 -47 l 193 -47 l 168 -32 l 151 -16 l 96 131 z "},"V":{"ha":665,"x_min":7,"x_max":749,"o":"m 7 714 l 7 724 q 9 734 7 726 q 16 749 12 741 q 22 765 20 758 q 25 777 25 772 l 35 794 q 45 803 40 799 q 53 809 49 806 q 60 812 57 812 l 78 821 l 106 821 l 123 821 q 137 815 130 818 q 149 809 142 812 q 158 803 155 806 l 168 794 q 176 782 172 791 q 184 764 180 773 q 195 742 189 753 l 195 705 q 196 693 195 702 q 199 674 197 684 q 203 656 201 665 q 204 643 204 647 q 210 625 206 638 q 219 595 214 612 q 230 558 224 578 q 241 522 236 539 q 250 492 246 505 q 257 475 254 479 q 261 456 257 471 q 270 425 265 441 q 279 394 275 408 q 283 376 283 379 q 288 366 286 371 q 291 357 290 361 q 293 349 293 352 q 301 328 296 342 q 311 300 306 315 q 321 272 316 285 q 329 252 326 258 l 338 252 l 346 252 l 355 260 q 368 286 360 269 q 384 326 375 304 q 403 371 393 347 q 421 417 413 395 q 435 456 429 439 q 444 484 441 474 q 447 497 444 486 q 453 519 450 507 q 460 541 457 530 q 463 554 463 551 l 481 581 q 484 590 481 583 q 490 603 486 596 q 496 616 493 610 q 498 625 498 622 l 509 669 q 515 685 509 672 q 530 714 522 699 q 545 743 538 729 q 551 760 551 756 q 553 771 551 762 q 556 789 554 779 q 559 808 558 800 q 561 821 561 817 q 575 840 568 831 q 587 858 581 848 q 597 873 593 867 l 607 884 q 614 886 610 884 q 622 892 618 889 q 632 901 627 896 q 642 904 635 901 q 655 910 648 907 q 668 917 661 914 q 677 920 674 920 l 696 920 l 713 920 l 730 909 l 739 901 q 744 883 739 894 q 749 865 749 871 l 749 839 l 749 821 l 739 803 l 721 777 q 704 763 715 769 q 686 750 694 758 q 643 679 659 716 q 614 607 627 642 l 597 572 q 594 560 597 569 q 587 541 591 551 q 578 522 583 531 q 570 510 573 513 l 551 465 l 543 447 q 539 432 543 444 q 530 407 535 420 q 521 382 525 393 q 517 367 517 370 l 498 330 q 490 307 493 318 q 484 287 486 297 q 481 269 481 276 l 472 233 q 461 203 469 227 q 445 153 453 180 q 429 104 436 127 q 418 74 421 81 l 410 28 q 391 8 399 18 q 375 -9 383 0 q 364 -25 368 -18 l 355 -33 l 338 -43 l 321 -43 l 293 -43 q 283 -38 288 -41 q 274 -35 279 -37 q 265 -33 269 -33 q 252 -28 259 -33 q 239 -16 245 -23 l 231 3 q 229 12 231 6 q 227 23 228 18 q 222 37 224 30 q 221 57 222 41 q 217 91 219 73 q 214 125 216 109 q 212 144 212 141 q 211 156 212 147 q 208 176 210 165 q 205 194 207 186 q 204 205 204 203 q 196 237 201 216 q 185 281 191 258 q 176 322 180 303 q 168 349 171 342 q 162 367 168 352 q 150 398 157 381 q 138 429 144 414 q 132 447 132 444 l 123 484 q 115 503 120 490 q 105 531 110 517 q 95 557 100 545 q 87 572 90 569 q 82 584 87 575 q 70 603 77 593 q 58 622 64 613 q 53 635 53 631 q 48 645 53 637 q 39 661 44 652 q 30 676 34 669 q 25 688 25 684 l 7 714 z "},"W":{"ha":935,"x_min":28,"x_max":907,"o":"m 163 36 l 163 54 l 171 81 l 171 98 l 171 126 q 169 152 171 135 q 164 189 167 168 q 158 231 161 209 q 151 271 154 252 q 146 304 149 290 q 144 322 144 317 q 142 333 144 325 q 135 349 139 340 q 129 365 132 357 q 126 376 126 373 q 125 394 126 379 q 121 425 123 408 q 118 456 119 441 q 117 475 117 471 l 109 511 q 107 523 109 514 q 103 543 105 532 q 100 561 102 553 q 98 572 98 570 q 96 585 98 576 q 90 604 93 594 q 84 624 87 614 q 82 636 82 633 q 78 647 82 639 q 69 663 74 654 q 60 679 64 671 q 56 690 56 687 q 47 706 52 697 q 38 725 43 715 q 31 741 34 734 q 28 751 28 748 l 28 761 l 28 770 q 33 787 28 777 q 37 798 35 792 l 56 815 q 66 819 61 817 q 74 822 70 821 q 82 823 79 823 q 103 828 90 823 q 117 833 110 831 q 129 832 120 833 q 150 827 138 830 q 172 821 161 825 q 189 815 182 818 l 207 806 l 216 787 l 216 672 q 219 651 216 669 q 225 614 222 634 q 232 577 229 594 q 235 555 235 559 q 236 540 235 551 q 239 514 237 529 q 243 484 241 500 q 247 453 245 467 q 250 428 249 439 q 252 412 252 416 l 261 367 q 270 327 267 347 q 279 288 272 307 l 297 304 q 300 315 297 307 q 307 331 303 322 q 316 347 311 339 q 323 358 320 355 l 334 385 q 340 397 336 387 q 349 422 344 408 q 360 453 354 437 q 371 483 366 469 q 380 507 376 497 q 386 519 384 517 q 387 528 386 523 q 390 537 389 532 q 395 547 392 542 q 396 562 395 550 q 399 587 397 574 q 403 612 401 600 q 404 627 404 623 q 407 639 404 630 q 413 659 410 648 q 420 678 417 669 q 422 690 422 687 l 431 708 l 449 725 q 459 729 454 727 q 468 732 463 730 q 476 733 473 733 l 494 733 l 504 733 q 513 728 509 730 q 522 722 517 725 q 529 715 526 719 l 539 708 q 547 697 543 705 q 555 682 551 689 q 566 663 560 673 l 566 582 q 567 568 566 578 q 570 546 568 557 q 574 524 572 534 q 575 511 575 514 q 579 485 575 505 q 590 443 584 465 q 602 398 595 420 q 611 367 608 377 q 618 347 614 360 q 627 319 623 333 q 634 293 631 305 q 637 278 637 281 q 640 270 637 275 q 647 260 643 265 q 653 250 650 255 q 656 241 656 245 l 672 224 q 681 235 676 227 q 690 251 686 243 q 697 267 694 260 q 700 278 700 275 q 702 290 700 281 q 705 309 703 299 q 708 328 707 319 q 710 340 710 336 q 713 351 710 343 q 719 367 715 358 q 725 383 722 375 q 728 395 728 391 q 730 414 728 397 q 737 450 733 430 q 743 490 741 471 q 746 519 746 509 q 747 535 746 523 q 750 560 749 547 q 753 585 751 573 q 754 600 754 596 q 757 621 754 603 q 763 658 760 638 q 770 695 767 678 q 772 715 772 713 l 772 868 l 782 886 q 786 894 782 890 q 794 903 789 899 q 807 913 800 907 l 825 922 l 852 922 l 871 922 l 889 913 l 897 904 l 907 886 l 907 851 l 907 815 l 897 779 l 889 733 q 886 721 889 730 q 880 703 884 713 q 873 684 876 693 q 871 672 871 675 q 866 652 868 662 q 863 634 864 643 q 861 618 861 625 q 860 606 861 614 q 857 587 859 597 q 854 568 855 577 q 852 555 852 559 q 851 540 852 551 q 848 514 850 529 q 844 484 846 500 q 840 453 842 467 q 836 428 838 439 q 835 412 835 416 q 809 265 827 337 q 764 126 791 193 q 761 118 764 123 q 755 107 758 113 q 749 98 751 102 q 746 90 746 93 q 740 79 746 87 q 728 63 734 71 q 716 47 722 54 q 710 36 710 39 l 700 18 l 682 1 l 664 -8 l 647 -8 l 629 -8 q 614 -3 622 -5 q 602 3 608 0 q 593 8 596 5 l 583 18 q 581 27 583 22 q 574 39 578 33 q 566 54 570 47 q 564 66 566 57 q 561 85 563 75 q 558 104 559 96 q 557 117 557 113 q 552 134 557 120 q 542 164 548 147 q 530 197 536 180 q 521 224 524 214 l 513 241 l 504 278 q 501 290 504 281 q 495 309 498 299 q 489 328 492 319 q 486 340 486 336 q 485 351 486 343 q 481 367 483 358 q 478 383 479 375 q 476 395 476 391 l 458 403 q 450 389 455 399 q 440 367 445 379 q 430 345 435 355 q 422 330 425 334 q 392 251 401 291 q 370 170 382 210 q 367 158 370 166 q 360 139 364 149 q 354 120 357 129 q 351 109 351 111 l 342 62 q 340 53 342 59 q 338 41 339 47 q 334 26 336 34 q 328 15 334 23 q 314 -4 322 6 q 299 -23 307 -14 q 288 -35 291 -32 q 280 -43 284 -39 q 271 -52 275 -48 l 261 -62 l 241 -62 l 216 -62 l 199 -53 q 186 -40 191 -47 q 180 -26 180 -33 q 174 -16 177 -23 q 168 -1 171 -8 q 163 18 165 8 l 163 36 z "},"X":{"ha":616,"x_min":-31,"x_max":587,"o":"m -31 -129 l -31 -111 l -22 -92 q -15 -77 -18 -85 q -12 -65 -12 -69 q -1 -42 -9 -58 q 15 -8 6 -26 q 31 25 23 10 q 41 43 38 39 l 69 79 q 82 97 73 82 q 101 130 91 112 q 120 164 111 147 q 134 187 130 180 q 138 198 134 191 q 147 214 142 205 q 156 230 152 222 q 160 241 160 238 q 182 278 170 262 q 203 310 193 294 q 222 344 214 326 q 233 386 230 362 l 237 395 l 233 404 l 224 422 q 217 436 224 425 q 201 460 210 447 q 186 484 193 473 q 179 498 179 495 q 169 516 176 502 q 156 546 163 530 q 143 575 149 562 q 134 593 136 589 q 120 616 126 606 q 106 639 113 625 q 93 652 102 642 q 74 674 84 662 q 55 697 64 686 q 41 711 45 707 q 36 719 39 715 q 33 726 34 722 q 26 737 29 731 q 24 747 24 743 l 24 755 q 28 773 24 763 q 31 778 30 776 q 33 783 32 781 l 47 802 q 59 817 53 810 q 69 828 66 825 l 79 838 q 97 842 85 838 q 115 846 108 846 l 123 846 l 138 846 l 156 838 l 174 819 q 176 809 174 816 q 180 794 178 802 q 184 780 182 787 q 186 770 186 773 q 193 754 186 767 q 206 726 199 741 q 220 699 214 711 q 226 684 226 686 q 236 667 230 677 q 249 646 243 656 q 259 627 254 635 q 263 614 263 618 q 268 601 263 611 q 279 579 273 591 q 293 556 286 567 q 302 542 299 546 l 311 530 l 321 530 l 337 552 q 346 563 340 555 q 355 580 351 571 q 363 597 359 589 q 366 609 366 606 q 370 623 366 612 q 377 646 373 634 q 384 669 380 659 q 387 684 387 680 q 390 695 387 687 q 396 711 393 703 q 403 727 400 720 q 406 737 406 734 q 407 752 406 741 q 410 774 408 762 q 414 796 412 786 q 415 810 415 806 l 415 892 l 424 909 l 441 926 l 452 936 q 457 938 454 937 q 462 941 459 939 q 470 944 466 943 q 478 946 475 946 l 497 946 l 515 946 l 533 936 q 541 931 536 936 q 549 921 545 927 q 556 909 553 916 q 559 900 559 903 q 562 895 561 897 q 564 890 563 892 q 568 881 566 886 q 570 873 570 877 l 570 864 l 570 856 q 567 841 570 852 q 561 819 564 831 q 554 797 557 807 q 551 783 551 786 q 544 767 549 779 q 534 739 540 755 q 523 705 529 723 q 512 670 517 687 q 503 640 507 654 q 497 621 499 627 l 488 603 l 478 575 q 466 555 475 572 q 447 520 456 539 q 428 483 437 500 q 415 458 418 465 l 397 431 l 390 404 l 397 376 q 404 363 398 373 q 417 341 410 353 q 430 318 425 329 q 436 304 436 308 q 443 292 436 301 q 456 273 449 283 q 470 254 464 262 q 477 241 477 245 q 485 230 480 238 q 494 215 490 222 l 504 196 l 514 187 l 559 153 l 570 144 q 576 135 573 140 q 581 126 578 130 l 587 116 l 587 87 l 587 61 q 580 48 584 54 q 572 36 576 42 q 561 15 566 26 q 551 -3 555 4 l 542 -11 l 528 -16 q 515 -20 522 -18 q 505 -21 509 -21 l 488 -18 l 470 -7 l 452 18 q 446 41 452 28 q 432 67 440 54 q 414 93 423 80 q 397 115 404 105 l 388 134 l 380 160 q 375 170 380 163 q 365 183 371 176 q 355 196 359 189 q 351 205 351 202 l 331 250 l 317 265 l 311 265 q 301 260 307 265 q 291 248 296 254 q 282 234 286 241 q 278 224 278 227 q 267 209 275 220 q 251 186 260 199 q 235 161 243 173 q 224 142 227 149 q 212 121 220 135 q 193 94 203 108 q 177 67 184 79 q 170 52 170 55 q 167 41 170 48 q 160 25 164 33 q 154 8 157 16 q 151 -3 151 1 q 144 -19 151 -6 q 129 -47 137 -32 q 113 -76 120 -62 q 106 -93 106 -90 l 97 -119 q 89 -131 94 -123 q 79 -146 83 -138 q 74 -155 77 -151 q 69 -165 72 -160 l 52 -174 l 24 -174 l -3 -174 l -12 -165 q -19 -157 -16 -162 q -24 -148 -22 -152 l -31 -138 l -31 -129 z "},"Y":{"ha":725,"x_min":40,"x_max":676,"o":"m 313 -454 l 313 -426 l 322 -408 l 340 -399 l 412 -399 l 431 -390 l 440 -382 l 458 -354 q 464 -345 458 -351 q 476 -332 470 -338 q 489 -319 483 -325 q 494 -309 494 -313 q 501 -301 498 -306 q 507 -292 505 -296 q 513 -281 510 -287 q 515 -270 513 -279 q 522 -249 518 -260 q 528 -227 525 -238 q 530 -210 530 -216 q 532 -197 530 -206 q 535 -178 534 -189 q 539 -159 537 -168 q 541 -146 541 -150 l 541 -11 l 541 113 q 539 125 541 116 q 535 144 537 134 q 532 163 534 155 q 530 175 530 172 l 522 184 l 513 184 l 504 175 l 476 131 l 449 94 q 443 82 449 91 q 431 63 437 73 q 418 44 424 53 q 412 32 412 35 q 398 17 405 24 q 386 5 392 11 q 376 -4 380 -1 q 366 -14 371 -9 q 357 -8 361 -5 q 349 -11 352 -11 l 330 -20 q 321 -22 327 -20 q 309 -24 315 -23 q 294 -28 302 -26 l 277 -28 l 258 -28 q 234 -18 245 -23 q 216 -10 224 -14 q 204 -14 208 -5 l 195 -4 l 176 22 l 168 40 q 165 53 168 44 q 159 73 163 62 q 153 95 155 84 q 150 113 150 106 l 140 158 l 131 184 q 98 329 111 259 q 77 473 84 398 q 75 493 77 480 q 72 517 73 505 q 68 546 70 530 l 68 600 q 65 616 68 603 q 59 646 62 630 q 53 677 56 662 q 50 699 50 692 l 40 726 l 40 762 l 40 789 q 46 799 43 793 q 52 808 49 803 q 58 817 55 813 l 77 835 l 94 843 q 113 848 102 843 q 131 852 124 852 l 140 852 l 150 852 q 160 848 155 850 q 176 843 170 843 l 195 835 q 203 832 198 835 q 212 824 208 829 q 219 815 216 820 q 222 807 222 810 l 231 789 l 231 762 l 231 734 q 227 722 231 731 q 217 703 222 713 q 208 684 212 693 q 204 672 204 675 q 203 661 204 669 q 199 645 201 653 q 196 629 197 636 q 195 618 195 621 l 195 572 l 195 528 q 196 504 195 521 q 199 469 197 488 q 203 433 201 450 q 204 410 204 416 q 218 329 210 369 q 240 248 227 288 q 243 237 240 244 q 249 221 245 229 q 256 204 253 212 q 258 193 258 197 q 261 182 258 190 q 267 168 264 175 q 277 149 271 159 l 294 131 l 313 122 l 322 122 l 340 131 q 351 140 343 134 q 366 153 359 146 q 380 166 374 160 q 386 175 386 172 q 405 209 396 193 q 420 236 412 222 q 431 257 427 250 q 461 316 444 284 q 486 383 479 349 l 486 482 l 486 582 q 485 592 486 585 q 481 609 483 600 q 478 625 479 617 q 476 636 476 633 l 468 663 q 464 674 468 666 q 454 690 459 682 q 445 706 449 699 q 440 717 440 713 l 440 762 l 440 825 q 441 833 440 829 q 444 842 443 838 q 449 852 446 847 q 455 861 449 856 q 469 870 461 865 q 484 880 476 876 q 494 889 491 885 q 505 893 499 891 q 514 896 509 895 q 522 897 519 897 l 530 897 l 541 897 q 550 894 544 897 q 562 888 555 891 q 576 879 569 884 q 585 874 580 879 q 595 864 590 870 q 605 852 600 859 q 612 843 609 846 l 623 825 q 624 792 623 815 q 627 744 625 770 q 631 696 629 719 q 632 663 632 673 l 632 644 q 627 550 632 597 q 623 456 623 503 l 623 428 q 624 413 623 425 q 627 386 625 401 q 631 358 629 372 q 632 338 632 345 q 633 327 632 334 q 636 311 635 319 q 639 295 637 302 q 640 283 640 287 q 642 272 640 281 q 645 249 643 262 q 649 221 647 236 q 654 193 652 206 q 657 170 656 180 q 659 158 659 160 q 660 139 659 153 q 663 105 661 125 q 667 63 665 85 q 671 22 669 41 q 675 -13 673 2 q 676 -32 676 -27 l 676 -40 q 675 -55 676 -47 q 671 -78 673 -63 q 668 -104 669 -92 q 667 -119 667 -116 q 665 -131 667 -123 q 663 -146 664 -138 q 659 -165 661 -155 q 657 -176 659 -168 q 653 -192 655 -183 q 650 -208 652 -200 q 648 -219 648 -216 q 644 -233 648 -222 q 634 -256 640 -243 q 623 -281 629 -269 q 612 -300 616 -293 q 602 -317 609 -303 q 586 -347 594 -330 q 569 -378 577 -363 q 558 -399 562 -393 q 555 -407 558 -403 q 549 -416 553 -412 q 541 -426 545 -420 q 525 -447 536 -433 q 498 -475 513 -460 q 470 -501 484 -489 q 449 -516 456 -513 l 431 -526 q 423 -528 427 -526 q 414 -530 418 -529 q 404 -534 410 -532 l 386 -534 l 376 -534 q 361 -526 369 -530 q 350 -519 355 -522 q 340 -516 344 -516 l 330 -508 q 324 -498 327 -505 q 318 -486 321 -492 q 313 -472 315 -479 l 313 -454 z "},"Z":{"ha":703,"x_min":25,"x_max":677,"o":"m 43 56 l 43 82 q 48 102 43 89 q 61 128 54 115 q 83 157 68 142 q 101 176 97 173 q 110 182 106 179 q 118 184 115 184 q 131 197 121 187 q 153 218 142 207 q 175 239 165 229 q 189 253 186 250 l 215 269 l 221 279 q 236 295 227 285 q 253 315 245 305 q 273 339 262 326 q 283 354 277 342 q 295 377 289 365 q 308 400 302 389 q 317 415 313 412 q 331 439 324 428 q 342 457 336 448 q 350 469 347 466 q 362 485 353 473 q 381 512 371 498 q 399 539 391 526 q 411 555 408 552 q 415 564 411 558 q 424 577 419 570 q 432 589 428 583 q 436 599 436 595 l 456 632 l 472 656 l 482 672 l 482 692 l 482 701 q 472 705 477 703 q 464 707 468 706 q 456 708 459 708 l 446 708 l 428 708 q 414 705 421 706 q 393 701 402 701 l 370 692 q 354 690 366 692 q 330 688 342 689 q 306 685 317 686 q 292 684 294 684 q 278 677 285 680 q 267 674 273 675 q 257 672 260 672 q 247 669 254 672 q 231 664 239 667 q 216 658 223 661 q 205 656 209 656 l 189 648 q 178 646 186 648 q 163 640 171 643 q 147 634 155 637 q 136 632 140 632 q 127 631 132 632 q 116 628 121 629 q 103 624 110 626 l 86 624 l 68 624 q 57 632 64 627 q 43 644 50 638 q 31 656 36 650 q 25 665 25 662 l 25 692 l 25 737 q 30 746 27 742 q 33 753 31 749 q 35 761 35 758 q 37 769 35 764 q 43 777 39 774 q 52 786 46 781 l 68 794 l 110 794 l 154 794 q 168 793 157 794 q 192 790 179 791 q 216 787 204 789 q 231 786 227 786 l 248 786 l 257 786 l 292 794 q 304 796 294 794 q 325 799 314 798 q 346 803 336 801 q 359 804 356 804 q 371 806 363 804 q 386 808 378 807 q 401 811 394 810 q 411 812 408 812 q 429 814 414 812 q 462 817 444 815 q 495 819 479 818 q 514 821 510 821 q 523 822 517 821 q 535 825 529 823 q 548 828 542 827 q 557 829 553 829 l 583 839 l 608 839 l 625 839 l 644 829 q 651 827 647 829 q 659 821 656 824 q 668 812 663 817 l 677 804 l 677 777 l 677 746 l 660 718 l 652 701 l 644 672 q 620 642 631 656 q 600 618 610 630 q 583 599 589 606 q 574 588 580 595 q 562 572 568 581 q 549 557 555 564 q 541 546 543 549 l 532 538 q 516 521 525 531 q 500 502 508 511 q 482 478 492 490 q 472 464 478 475 q 459 442 466 454 q 446 419 452 430 q 436 406 439 409 q 431 398 436 404 q 419 384 426 392 q 408 369 413 376 q 403 358 403 362 q 395 348 399 355 q 387 335 391 342 q 380 323 383 329 q 378 314 378 317 q 369 296 374 307 q 357 275 363 286 q 348 256 352 264 q 340 239 343 248 q 326 215 334 226 q 309 198 317 204 q 293 187 300 191 q 281 178 287 182 q 253 147 269 164 q 237 121 237 130 q 260 114 237 113 q 317 118 282 115 l 385 123 l 393 123 l 403 123 q 415 124 405 123 q 438 126 425 125 q 467 129 451 127 q 496 132 482 131 q 519 134 509 133 q 532 135 529 135 l 583 135 l 640 131 l 652 123 l 660 115 l 668 100 l 668 71 l 668 47 q 665 39 668 43 q 659 31 663 35 q 651 24 655 26 q 644 21 647 21 q 625 16 634 18 q 611 14 618 15 q 600 12 604 12 q 573 11 594 12 q 526 7 551 9 q 478 4 501 5 q 446 3 456 3 l 359 3 q 349 1 356 3 q 333 -1 341 0 q 318 -4 326 -3 q 309 -5 311 -5 q 293 -7 305 -5 q 265 -9 280 -8 q 237 -12 250 -11 q 221 -14 224 -14 q 212 -16 219 -14 q 197 -21 205 -19 q 182 -25 189 -22 q 171 -28 174 -28 l 126 -28 l 86 -28 l 68 -18 l 58 -11 q 53 -3 56 -7 q 48 7 50 1 q 43 21 45 14 l 43 56 z "},"&":{"ha":893,"x_min":33,"x_max":860,"o":"m 534 -265 l 504 -200 l 494 -121 q 495 -70 494 -102 q 498 -3 496 -37 q 500 64 499 32 q 501 114 501 96 q 503 133 501 120 q 509 161 505 146 q 517 190 513 176 q 525 212 521 204 l 450 175 q 431 168 444 175 q 402 153 417 161 q 373 138 387 144 q 353 131 359 131 q 325 119 340 125 q 294 108 310 113 q 263 101 279 104 q 236 98 248 98 q 216 96 230 98 q 187 90 202 93 q 158 84 172 87 q 138 82 144 82 l 121 82 q 106 84 115 82 q 90 90 97 87 q 71 98 80 94 q 58 103 64 98 q 47 115 52 109 q 37 131 42 122 q 34 153 35 140 q 33 178 33 165 q 37 214 33 199 q 47 233 42 224 q 58 249 52 240 q 71 262 64 257 l 87 279 l 138 313 q 156 329 144 319 q 181 350 169 339 q 203 371 193 361 q 212 387 212 381 l 212 396 q 179 412 194 402 q 155 434 165 422 q 140 458 145 446 q 135 481 135 471 q 141 509 135 497 q 159 534 148 522 q 185 559 170 546 q 218 590 201 572 q 241 601 229 592 q 264 620 253 610 q 286 637 276 629 q 302 646 296 646 q 316 650 307 646 q 338 661 326 654 q 363 675 350 668 q 389 690 376 683 q 410 701 401 696 q 424 705 420 705 q 444 716 430 705 q 473 740 458 727 q 502 764 488 753 q 522 775 516 775 l 551 794 q 565 799 557 798 q 579 800 572 800 q 593 799 587 800 q 606 797 600 798 q 618 794 612 795 l 652 761 q 657 745 656 753 q 659 729 659 736 q 656 710 659 719 q 652 696 654 701 q 633 677 642 685 q 616 665 625 671 q 602 660 608 660 q 581 652 595 660 q 551 635 567 644 q 522 617 536 625 q 501 610 507 610 q 486 596 495 604 q 466 583 477 589 q 440 572 454 576 q 408 568 425 568 q 399 575 402 574 q 392 576 395 576 q 385 574 388 576 q 378 569 382 572 q 368 563 374 566 q 353 561 362 561 q 338 553 347 561 q 321 537 329 546 q 302 514 312 527 l 302 497 q 326 471 309 481 q 359 461 342 461 q 391 465 374 461 q 425 474 408 469 q 459 484 441 479 q 494 488 477 488 l 501 488 l 534 488 l 572 476 l 623 476 q 650 484 637 481 q 671 490 661 488 q 689 493 682 493 l 739 510 q 758 512 745 510 q 785 517 772 514 q 821 524 802 519 l 844 507 q 853 504 850 507 q 858 494 856 500 q 860 482 859 488 q 860 472 860 476 l 859 444 q 852 434 856 438 q 845 427 849 430 q 835 424 841 424 q 822 412 829 417 q 810 405 817 408 q 798 401 804 401 l 765 395 l 747 379 l 689 368 q 663 316 675 342 q 643 268 653 294 q 627 220 632 242 q 622 190 624 204 q 619 165 621 178 q 618 147 618 153 q 615 122 618 141 q 609 81 612 103 q 604 41 606 60 q 602 16 602 22 q 601 -5 602 9 q 598 -36 600 -20 q 597 -67 597 -52 q 596 -87 596 -81 q 607 -121 602 -105 q 614 -148 611 -134 q 618 -167 618 -161 l 635 -215 l 635 -249 q 632 -261 635 -255 q 626 -272 629 -267 q 618 -282 623 -277 l 551 -282 l 534 -265 m 319 329 q 280 306 300 319 q 242 275 260 292 q 209 243 224 259 q 186 214 195 227 q 184 210 184 212 q 196 203 184 204 q 220 203 207 203 l 240 203 q 248 203 244 203 q 256 207 252 203 q 260 205 258 205 q 265 205 263 205 q 289 210 276 205 q 313 218 302 214 q 331 227 324 222 q 336 231 338 231 q 359 236 342 231 q 394 249 376 241 q 430 265 413 256 q 453 279 447 273 l 488 294 l 509 315 l 536 370 l 528 370 q 503 371 515 370 q 478 373 490 372 q 456 375 466 374 q 440 376 446 376 l 363 354 l 319 329 z "},"a":{"ha":514,"x_min":50,"x_max":627,"o":"m 319 56 l 313 56 l 296 33 l 282 17 q 272 10 279 15 q 255 -1 264 5 q 237 -12 246 -7 q 222 -20 228 -17 q 207 -26 216 -20 q 193 -33 199 -33 l 184 -33 l 163 -26 q 152 -24 160 -26 q 136 -19 144 -22 q 120 -15 127 -17 q 111 -12 113 -12 l 96 -4 q 87 7 91 2 q 79 17 83 12 q 72 25 75 22 q 62 48 66 37 q 58 69 58 59 q 57 80 58 73 q 54 96 56 88 q 50 115 52 104 l 50 189 l 50 250 q 52 262 50 252 q 55 283 53 271 q 60 307 57 295 q 65 323 62 318 q 68 334 65 326 q 76 350 72 342 q 84 365 81 358 q 87 375 87 372 q 90 385 87 378 q 95 398 92 391 q 101 411 98 405 q 103 419 103 417 q 105 428 103 422 q 110 439 107 433 q 115 449 113 444 q 117 457 117 454 q 124 470 121 464 q 130 480 127 475 q 132 488 132 485 q 142 504 136 493 q 154 526 148 514 q 170 554 161 538 q 182 566 176 560 q 193 576 188 571 q 200 583 197 581 l 214 591 l 229 591 l 245 591 q 257 587 252 589 q 267 585 262 586 q 275 583 272 583 q 281 582 278 583 q 288 580 285 581 q 296 576 292 578 q 306 571 299 576 q 320 558 313 565 q 333 545 327 551 q 342 539 339 539 q 365 533 353 534 q 386 525 376 531 q 393 524 389 525 q 401 521 397 522 q 410 517 405 519 q 421 512 415 517 q 431 501 427 508 l 439 488 l 439 465 l 439 443 l 431 419 q 430 405 431 417 q 428 379 429 393 q 426 353 427 366 q 425 338 425 340 q 424 329 425 336 q 421 316 422 323 q 418 302 419 309 q 416 294 416 296 l 416 256 l 416 212 q 418 200 416 209 q 421 182 419 192 q 424 163 422 172 q 425 151 425 155 q 427 142 425 149 q 432 130 429 136 q 437 116 435 123 q 439 107 439 110 q 441 100 439 104 q 446 93 443 96 q 454 85 450 89 q 463 77 458 80 q 470 71 466 73 q 476 69 473 69 l 492 62 l 507 62 l 529 62 q 538 66 534 64 q 545 68 541 67 q 551 69 549 69 q 567 77 559 73 q 579 82 573 80 q 589 85 585 85 l 596 85 l 604 85 l 618 69 l 627 56 l 627 49 l 627 40 l 618 25 q 608 17 615 22 q 592 6 601 12 q 576 -4 584 1 q 566 -12 568 -9 q 557 -19 564 -15 q 544 -25 551 -22 q 530 -31 537 -28 q 521 -33 524 -33 q 501 -37 510 -35 q 486 -40 494 -39 q 476 -41 479 -41 l 463 -41 q 435 -36 450 -41 q 410 -20 421 -30 q 400 -12 406 -17 q 387 -1 394 -7 q 373 10 380 5 q 364 17 367 15 l 350 31 q 342 40 346 35 l 335 56 l 319 56 m 132 175 l 132 151 l 136 143 q 139 136 138 140 q 140 131 140 133 l 147 115 l 170 93 l 178 93 l 193 93 l 207 100 q 224 113 213 102 q 248 135 236 123 q 270 158 260 146 q 282 175 279 170 q 284 184 282 178 q 289 197 286 190 q 294 210 292 204 q 296 218 296 216 q 297 227 296 222 q 300 237 298 232 q 304 250 302 243 l 304 317 l 304 375 l 296 399 q 294 406 296 401 q 289 416 292 410 l 282 428 q 274 435 279 431 q 263 446 269 440 q 253 457 258 452 q 245 465 248 462 l 237 465 q 229 457 233 461 q 221 450 225 454 q 214 443 217 446 q 207 434 210 438 q 202 427 204 431 q 200 419 200 422 l 193 406 q 186 395 190 403 q 178 379 182 388 q 172 363 174 371 q 170 353 170 355 l 163 332 l 155 317 l 151 307 q 149 300 150 304 q 147 294 147 296 q 146 286 147 291 q 144 276 145 281 q 140 264 142 270 q 139 251 140 260 q 136 230 138 241 q 134 210 135 219 q 132 197 132 200 l 132 175 z "},"b":{"ha":582,"x_min":43,"x_max":532,"o":"m 65 39 l 65 78 q 66 86 65 80 q 68 98 67 92 q 72 114 70 105 q 73 123 72 117 q 76 137 75 130 q 79 150 78 144 q 81 160 81 157 q 82 175 81 166 q 85 193 83 184 q 89 214 87 203 l 89 273 l 89 342 q 87 381 89 353 q 85 440 86 409 q 82 499 83 471 q 81 538 81 527 q 80 561 81 544 q 77 599 79 577 q 73 645 75 621 q 69 690 71 669 q 66 728 67 712 q 65 750 65 745 l 65 818 q 64 844 65 826 q 62 881 63 862 q 60 917 61 901 q 60 940 60 934 l 52 970 q 50 981 52 972 q 47 1000 49 990 q 44 1019 45 1010 q 43 1031 43 1027 l 43 1038 l 43 1046 q 44 1060 43 1051 q 47 1078 45 1069 q 52 1099 49 1088 l 63 1110 q 73 1120 68 1115 q 81 1128 77 1124 l 97 1136 l 113 1136 l 135 1136 q 142 1135 138 1136 q 149 1132 146 1133 q 158 1128 153 1130 q 166 1120 162 1123 q 173 1113 170 1116 q 180 1107 177 1109 l 189 1090 l 189 1068 l 189 1046 q 186 1035 189 1042 q 178 1019 182 1027 q 170 1003 174 1010 q 167 991 167 995 q 164 980 165 985 q 162 970 163 975 q 161 962 161 965 q 160 951 161 959 q 157 935 159 944 q 154 919 155 926 q 153 909 153 911 q 154 876 153 898 q 156 825 155 853 q 160 766 158 797 q 163 706 161 734 q 166 655 165 678 q 167 621 167 632 l 167 591 q 170 573 167 585 q 172 554 172 560 l 180 538 l 189 538 l 196 538 l 279 599 q 296 603 288 601 q 309 606 302 604 q 317 607 315 607 l 325 607 l 342 607 q 351 606 345 607 q 365 603 357 604 q 378 600 372 602 q 387 599 384 599 q 394 597 391 599 q 401 595 398 596 q 410 591 406 593 q 419 584 412 588 q 432 576 425 580 q 449 568 439 572 q 456 556 452 562 q 464 546 460 551 q 471 538 467 541 q 473 528 471 534 q 479 515 476 522 q 487 502 483 508 q 494 493 491 496 l 501 477 q 506 464 504 470 q 509 456 509 458 q 513 447 511 451 q 515 439 514 444 q 517 432 517 435 q 523 418 520 427 q 527 400 525 409 q 532 379 530 390 l 532 342 l 532 296 q 531 286 532 292 q 528 273 530 280 q 526 259 527 266 q 525 250 525 253 q 524 243 525 247 q 521 236 522 239 q 517 228 519 232 q 513 219 517 225 q 505 205 509 212 q 494 191 500 198 q 486 182 489 184 q 471 163 478 172 q 458 148 465 155 q 449 138 452 141 l 441 129 l 416 100 l 410 92 q 385 75 401 86 q 350 52 368 64 q 317 30 332 39 q 296 17 302 20 q 285 8 292 14 q 269 -3 277 3 q 253 -12 260 -8 q 241 -16 245 -16 q 222 -22 231 -19 q 207 -26 214 -24 q 196 -28 199 -28 q 180 -34 190 -31 q 159 -39 170 -37 q 135 -45 147 -42 l 125 -41 q 118 -38 122 -39 q 113 -36 115 -36 l 97 -28 l 72 -7 l 65 8 l 65 39 m 196 122 l 204 107 q 206 101 204 104 q 211 96 208 98 q 218 92 214 94 l 227 92 l 241 92 q 251 94 245 92 q 265 100 258 96 q 278 107 272 104 q 288 114 284 111 q 297 120 290 114 q 310 133 303 125 q 324 145 317 140 q 334 151 330 151 l 371 182 q 379 191 374 184 q 389 205 384 198 q 399 219 395 212 q 407 228 404 225 l 414 250 q 422 267 418 259 q 428 279 425 273 q 431 288 431 285 l 431 304 l 431 319 l 422 342 l 425 379 q 416 400 420 390 q 409 418 413 409 q 403 432 406 427 q 393 450 397 439 q 387 463 390 456 q 378 466 384 463 q 365 474 372 469 q 351 481 357 478 q 342 485 345 485 l 334 485 l 317 485 q 311 484 315 485 q 304 481 307 483 q 296 478 300 479 q 286 469 292 475 q 273 455 280 463 q 259 441 266 448 q 250 432 253 435 q 241 419 247 429 q 230 397 236 409 q 219 373 224 385 q 212 355 214 361 l 208 339 q 205 327 207 333 q 204 319 204 321 q 203 305 204 314 q 200 288 201 296 q 196 267 198 277 l 196 197 l 196 122 z "},"c":{"ha":494,"x_min":36,"x_max":494,"o":"m 36 110 l 36 147 l 43 155 l 52 195 l 60 215 l 66 256 q 69 268 66 258 q 75 290 72 278 q 83 311 79 301 q 90 323 87 321 q 99 344 95 334 q 106 361 102 353 q 113 376 110 370 l 121 393 l 136 414 q 147 430 140 419 q 163 450 155 440 q 183 475 172 463 l 231 522 q 240 532 233 524 q 254 549 246 539 q 271 568 262 558 q 285 583 279 577 q 293 593 288 586 q 305 608 299 600 q 316 622 311 616 q 323 628 321 628 l 347 628 l 386 628 l 403 619 l 418 604 l 418 583 l 418 551 q 411 542 418 548 q 397 529 405 536 q 380 515 389 522 q 370 505 372 509 q 360 502 367 505 q 347 494 354 498 q 333 487 340 490 q 323 484 326 484 q 311 471 321 480 q 290 451 301 462 q 268 430 278 440 q 254 414 257 420 q 244 401 251 410 q 230 382 237 393 q 216 361 222 372 q 207 345 210 351 q 204 338 207 342 q 199 331 202 334 q 194 323 197 327 q 192 317 192 319 q 183 293 189 307 q 173 264 178 278 q 165 238 168 250 q 161 224 161 227 l 161 195 l 161 155 l 167 139 q 171 133 167 137 q 179 125 175 130 q 188 117 184 121 q 192 110 192 113 q 195 102 192 106 q 203 95 199 98 q 214 86 208 91 l 231 78 l 269 78 l 309 78 q 321 82 315 80 q 331 85 326 83 q 339 86 336 86 q 347 87 342 86 q 354 90 351 89 q 363 94 358 92 l 395 110 q 409 116 400 113 q 427 124 418 120 q 449 134 437 128 l 465 134 l 479 134 l 494 117 l 494 110 l 494 102 l 488 86 q 484 79 488 83 q 476 73 480 76 q 465 65 471 69 q 455 57 462 62 q 441 46 449 52 q 427 37 434 41 q 418 33 420 33 q 393 23 409 30 q 360 7 377 16 q 329 -9 343 -1 q 309 -20 314 -16 q 300 -21 305 -20 q 289 -24 294 -22 q 277 -26 283 -25 q 269 -28 272 -28 l 231 -28 l 200 -28 q 180 -22 189 -25 q 164 -17 172 -20 q 153 -11 156 -14 q 144 -9 149 -11 q 134 -3 139 -7 q 121 4 127 -1 q 109 16 115 10 q 98 25 103 20 q 90 33 94 30 q 75 52 83 39 q 66 65 71 58 l 60 86 q 51 104 54 98 q 36 110 47 110 z "},"d":{"ha":562,"x_min":50,"x_max":547,"o":"m 395 16 l 386 16 q 377 12 382 16 q 367 4 372 9 q 355 -3 361 0 q 347 -7 350 -7 q 340 -9 344 -7 q 331 -15 336 -12 q 322 -20 327 -18 q 315 -22 318 -22 q 308 -24 312 -22 q 300 -26 304 -25 q 290 -31 295 -28 l 241 -31 l 211 -31 q 172 -14 190 -22 q 139 2 156 -6 q 114 16 123 9 q 105 22 109 20 q 98 27 102 25 q 90 29 94 29 q 81 38 85 32 q 76 50 78 43 q 72 63 74 56 q 66 75 70 70 q 60 91 63 81 q 55 111 57 101 q 50 135 52 122 l 50 180 l 50 240 q 52 252 50 243 q 54 271 53 261 q 57 290 56 281 q 58 301 58 298 l 58 354 q 62 369 58 359 q 66 383 66 378 q 70 394 66 387 q 79 411 74 402 q 90 429 85 420 q 98 443 95 437 q 106 458 102 449 q 117 476 111 467 q 129 497 123 486 q 135 505 129 500 q 150 515 142 509 q 164 526 158 521 q 171 534 171 531 l 195 566 l 211 572 q 228 579 217 575 q 249 587 238 583 q 270 592 260 590 q 282 595 279 595 q 293 596 285 595 q 310 599 301 597 q 328 602 319 600 q 339 603 336 603 l 355 610 l 363 625 q 364 654 363 634 q 367 697 366 675 q 370 740 368 720 q 371 768 371 760 l 371 889 q 372 906 371 892 q 374 938 373 921 q 377 969 376 954 q 378 986 378 983 l 378 1025 l 378 1063 l 371 1092 l 371 1114 l 371 1136 l 384 1149 q 394 1159 389 1154 q 403 1166 399 1164 q 410 1169 406 1166 q 419 1174 414 1171 q 427 1180 423 1177 q 435 1182 431 1182 l 460 1182 l 484 1182 q 492 1177 486 1182 q 503 1166 497 1173 q 514 1154 509 1160 q 522 1145 519 1147 q 526 1133 524 1139 q 529 1122 528 1127 q 530 1114 530 1117 l 530 1107 l 530 1099 q 522 1081 527 1093 q 510 1054 516 1068 q 499 1027 505 1040 q 490 1008 493 1015 q 480 982 485 997 q 475 957 475 968 q 474 947 475 954 q 471 935 473 941 q 468 920 469 928 l 468 843 q 467 822 468 838 q 466 786 467 806 q 464 742 465 765 q 462 697 463 718 q 460 661 461 677 q 460 640 460 646 l 460 587 l 460 534 q 460 520 460 530 q 462 496 461 510 q 464 467 463 482 q 466 437 465 451 q 467 414 467 424 q 468 400 468 404 l 468 361 q 469 346 468 357 q 472 320 471 335 q 476 287 474 304 q 481 252 479 269 q 487 220 484 235 q 490 196 489 205 q 492 188 490 193 q 494 178 493 183 q 497 167 496 172 q 498 158 498 161 q 501 143 498 153 q 507 125 504 134 q 513 109 510 116 q 515 98 515 101 q 520 80 515 95 q 531 49 526 66 q 542 17 537 32 q 547 0 547 3 l 547 -16 l 547 -37 l 539 -53 q 529 -62 536 -56 q 514 -74 522 -68 q 500 -85 507 -81 q 490 -90 493 -90 l 475 -90 l 452 -90 q 444 -88 448 -90 q 436 -82 439 -85 q 429 -74 432 -78 q 427 -68 427 -71 q 426 -59 427 -65 q 423 -45 425 -52 q 420 -32 421 -38 q 419 -22 419 -26 q 418 -15 419 -20 q 415 -5 416 -11 l 411 7 l 403 16 l 395 16 m 154 172 l 163 150 q 165 142 163 147 q 170 133 167 138 q 178 121 173 127 l 195 106 q 204 98 199 101 q 212 92 208 94 q 220 90 216 90 l 235 83 l 241 83 l 250 83 q 273 84 259 83 q 299 87 286 85 q 330 90 314 88 q 351 107 342 99 q 367 122 359 115 q 378 135 375 130 l 386 150 l 386 196 l 386 240 q 385 258 386 246 q 382 282 383 269 q 379 307 380 295 q 378 323 378 318 l 371 346 q 370 363 371 349 q 367 395 368 378 q 364 427 366 412 q 363 443 363 441 q 361 451 363 446 q 359 462 360 456 q 355 475 357 468 q 350 478 353 476 q 345 481 347 479 q 339 482 342 482 q 324 486 332 482 q 315 489 320 487 l 290 489 l 273 489 q 267 487 271 489 q 258 482 262 484 q 249 477 254 479 q 241 475 245 475 q 234 466 239 471 q 223 455 229 460 q 211 445 217 450 q 203 437 205 439 q 194 425 197 431 q 188 414 191 419 q 186 407 186 410 q 183 399 186 404 q 178 388 181 394 q 173 377 176 382 q 171 370 171 372 q 170 362 171 366 q 167 355 168 358 q 163 346 165 351 q 161 337 163 343 q 158 325 159 331 q 154 309 156 317 l 154 240 l 154 172 z "},"e":{"ha":511,"x_min":49,"x_max":539,"o":"m 49 252 l 49 313 l 57 329 l 72 351 q 74 360 72 354 q 78 374 76 367 q 83 387 81 381 q 85 396 85 393 l 93 412 q 98 422 93 416 q 108 436 102 429 q 119 450 114 444 q 123 458 123 456 l 147 498 q 159 514 150 504 q 180 535 169 524 q 201 554 191 545 q 214 567 211 564 q 235 578 224 573 q 252 588 243 583 q 267 596 261 593 l 283 604 q 293 606 286 604 q 306 608 299 607 q 319 611 313 610 q 328 612 325 612 l 358 612 l 382 612 q 390 607 386 610 q 397 602 393 604 q 404 596 401 600 q 411 593 407 596 q 418 585 414 589 q 428 575 422 581 l 433 558 q 436 550 433 555 q 442 539 439 545 q 448 528 445 533 q 450 519 450 522 l 456 498 q 457 490 456 495 q 460 479 458 484 q 464 465 462 472 l 450 436 q 446 427 448 431 q 443 420 444 424 q 441 412 441 416 l 433 380 q 426 373 429 376 q 421 366 423 370 q 419 359 419 362 q 408 348 416 356 q 392 330 401 340 q 373 311 382 320 q 358 296 364 301 q 351 287 355 292 q 340 277 346 282 l 328 264 q 319 260 325 264 q 306 252 313 256 q 293 244 299 248 q 283 240 286 240 q 259 232 277 237 q 221 221 241 227 q 186 210 202 216 q 168 199 170 203 l 168 182 l 168 167 q 171 159 168 163 q 176 151 173 155 q 182 143 179 146 q 184 136 184 139 q 188 130 184 134 q 197 121 192 125 q 206 112 201 116 q 214 104 211 107 l 229 96 q 240 90 233 92 q 255 85 247 87 q 275 82 264 83 l 306 82 l 343 82 q 360 83 349 82 q 384 84 372 83 q 406 86 396 85 q 419 87 416 87 q 427 92 423 90 q 434 94 431 93 q 441 96 438 96 q 456 103 447 99 q 475 113 465 108 q 495 121 486 117 q 510 129 504 125 l 530 121 l 539 114 l 539 97 l 539 82 q 534 75 536 77 q 528 70 531 72 q 522 68 526 68 q 512 56 517 62 q 503 45 508 50 l 496 36 q 468 22 487 30 q 427 6 448 14 q 386 -8 406 -2 q 358 -18 367 -15 l 292 -18 l 222 -18 q 201 -13 211 -18 q 184 -1 191 -7 q 174 6 181 1 q 159 16 167 10 q 140 28 151 21 l 93 75 q 86 82 89 79 q 81 89 83 85 q 79 96 79 92 q 68 124 74 109 q 57 151 63 140 q 56 160 57 154 q 53 174 54 167 q 49 191 51 181 l 49 252 m 193 359 l 193 351 l 189 329 l 204 322 q 212 323 206 322 q 222 326 217 324 q 237 329 229 327 l 253 336 q 263 344 256 339 q 278 354 271 349 q 297 367 287 360 q 306 374 300 370 q 316 382 311 378 q 324 390 321 386 q 328 396 328 393 q 335 406 331 399 q 343 420 339 412 q 349 434 347 427 q 351 443 351 440 l 351 458 l 351 473 l 343 490 l 328 498 l 313 498 l 297 498 q 290 496 295 498 q 279 489 285 493 q 268 481 273 486 q 261 473 263 477 q 254 470 258 473 q 245 461 250 467 q 236 451 241 456 q 229 443 232 446 l 214 421 q 208 410 211 418 q 201 394 204 402 q 196 377 198 385 q 193 367 193 370 l 193 359 z "},"f":{"ha":473,"x_min":-21,"x_max":586,"o":"m 182 404 l 134 404 l 100 396 q 90 395 97 396 q 76 392 83 393 q 61 389 68 390 q 52 387 54 387 l 36 387 l 28 387 q 20 390 24 387 q 11 396 16 393 q 3 401 7 399 q -4 404 -1 404 l -12 419 q -14 428 -12 422 q -17 439 -16 434 q -21 453 -19 446 l -21 476 l -21 492 q -12 504 -16 498 q -4 513 -8 509 q 3 517 0 517 l 28 525 l 149 525 l 165 532 l 174 541 q 175 572 174 550 q 178 617 176 593 q 180 663 179 642 q 182 693 182 684 q 183 708 182 696 q 185 734 184 720 q 188 762 187 749 q 189 782 189 776 q 192 811 189 791 q 197 853 194 831 q 203 893 200 875 q 205 918 205 912 q 207 928 205 922 q 210 941 208 935 q 214 958 212 949 q 222 972 218 965 q 228 982 225 977 q 231 990 231 987 q 237 1000 233 994 q 245 1014 241 1007 q 254 1031 249 1021 q 261 1039 257 1034 q 271 1051 266 1045 q 279 1062 275 1057 q 286 1071 283 1067 q 296 1081 290 1074 q 310 1094 302 1087 q 328 1111 318 1101 q 345 1115 337 1113 q 358 1118 351 1116 q 368 1120 365 1120 l 424 1120 l 472 1120 l 489 1111 q 505 1100 495 1107 q 523 1083 514 1092 q 539 1066 532 1074 q 546 1055 546 1058 q 550 1044 546 1052 q 559 1026 553 1036 q 569 1006 564 1016 q 578 990 574 996 q 582 977 580 983 q 585 967 583 972 q 586 958 586 962 l 586 950 l 586 943 q 583 936 586 940 q 577 927 581 931 q 569 921 573 924 q 562 918 565 918 l 554 918 l 546 918 q 532 928 538 923 q 522 936 527 932 q 514 943 517 940 q 504 952 511 946 q 489 967 496 959 q 475 981 481 975 q 465 990 468 987 q 456 998 460 995 q 448 1004 452 1002 q 440 1007 444 1007 l 424 1015 l 400 1015 l 376 1015 q 368 1010 373 1015 q 356 998 362 1005 q 343 985 349 991 q 335 975 338 978 q 327 957 330 966 q 321 941 323 949 q 319 926 319 932 q 317 914 319 923 q 311 895 314 905 q 305 875 308 884 q 302 863 302 865 q 300 843 302 857 q 294 814 297 829 q 289 785 291 799 q 286 765 286 771 q 285 746 286 760 q 283 718 284 732 q 280 692 281 704 q 279 677 279 680 l 279 606 l 279 557 l 294 541 l 432 541 q 446 532 439 536 q 456 524 451 528 q 465 517 462 520 l 472 500 l 472 485 l 472 468 l 457 453 q 435 448 446 450 q 416 446 425 447 q 400 444 406 444 q 386 443 397 444 q 363 440 376 441 q 341 437 351 439 q 328 436 330 436 q 318 435 324 436 q 304 432 311 433 q 286 428 296 430 l 279 412 l 279 347 l 279 275 q 280 265 279 272 q 283 251 281 258 q 285 236 284 243 q 286 227 286 229 q 289 211 286 220 q 294 192 291 201 q 300 174 297 182 q 302 163 302 165 q 307 151 302 159 q 315 134 311 143 q 323 118 319 125 q 328 107 328 110 q 333 97 330 104 q 338 83 336 90 q 343 66 341 76 l 343 41 l 343 18 q 338 9 341 13 q 333 4 336 6 q 328 1 330 1 q 320 -1 324 1 q 311 -6 315 -3 q 302 -11 307 -9 q 294 -14 297 -14 q 284 -15 291 -14 q 270 -18 278 -16 q 256 -21 262 -20 q 245 -22 249 -22 l 222 -22 l 205 -22 q 200 -17 203 -20 q 195 -12 197 -14 q 189 -5 193 -9 q 185 5 189 -1 q 182 9 183 7 l 182 404 z "},"g":{"ha":562,"x_min":4,"x_max":515,"o":"m 4 -237 l 4 -189 l 21 -174 l 29 -174 l 36 -174 l 45 -189 q 46 -199 45 -192 q 49 -213 47 -205 q 52 -228 50 -221 q 53 -237 53 -235 q 65 -266 59 -250 q 78 -293 71 -281 q 85 -304 81 -296 q 93 -321 89 -313 q 102 -338 98 -330 q 110 -350 106 -347 q 123 -373 116 -362 q 142 -390 130 -384 q 146 -395 144 -393 q 151 -398 149 -397 q 167 -406 160 -406 q 186 -417 174 -413 q 199 -422 191 -420 l 232 -422 l 264 -422 q 277 -417 272 -420 q 296 -406 288 -413 l 308 -397 q 317 -389 313 -393 q 321 -382 321 -385 l 325 -377 q 329 -366 329 -372 q 336 -351 332 -360 q 344 -332 340 -341 q 348 -320 346 -326 q 353 -309 350 -315 q 357 -293 353 -307 q 365 -264 361 -280 q 374 -234 370 -248 q 378 -214 378 -219 q 379 -203 378 -211 q 382 -185 380 -195 q 385 -168 383 -176 q 386 -157 386 -160 q 387 -149 386 -154 q 390 -137 388 -143 q 392 -125 391 -131 q 393 -117 393 -120 l 393 50 l 389 68 q 387 81 388 75 q 386 90 386 87 l 378 107 l 288 18 q 279 10 285 16 q 268 0 274 5 q 256 -9 262 -5 q 248 -14 250 -14 q 237 -21 244 -17 q 222 -29 230 -25 q 208 -35 215 -33 q 199 -37 201 -37 l 167 -37 l 126 -37 q 113 -33 119 -35 q 102 -28 107 -31 q 93 -22 96 -25 l 85 -14 l 69 11 l 61 26 q 60 35 61 29 q 57 46 58 40 q 54 58 56 52 q 53 66 53 63 q 51 82 52 75 q 50 97 50 90 q 47 121 48 109 q 46 139 46 133 q 47 157 46 145 q 50 181 48 169 l 53 211 l 57 229 q 60 245 58 237 q 61 260 61 253 q 62 270 61 263 q 65 283 64 276 l 69 300 q 71 310 69 303 q 77 323 73 317 q 80 331 78 327 q 85 340 82 336 l 93 364 l 110 396 q 118 412 113 399 q 130 440 123 425 q 141 468 136 455 q 150 485 146 481 q 160 497 153 488 q 175 518 167 507 q 192 540 184 529 q 207 557 201 551 q 216 568 210 560 q 231 585 223 576 q 245 599 239 593 q 256 606 252 606 q 267 608 258 606 q 285 614 275 610 q 305 622 295 618 q 321 629 315 626 l 329 629 l 336 629 l 353 621 q 365 609 355 617 q 385 593 374 602 q 405 577 395 585 q 418 566 414 569 l 441 549 q 450 541 445 545 q 461 534 456 537 l 475 525 q 485 513 478 522 q 498 496 492 505 q 510 479 505 487 q 515 468 515 471 l 515 453 l 515 436 q 514 425 515 433 q 511 408 513 417 q 509 391 510 399 q 507 380 507 383 q 504 367 507 377 q 495 344 500 356 q 487 321 491 332 q 484 309 484 311 l 484 275 l 484 228 q 485 204 484 222 q 487 167 486 186 q 489 131 488 148 q 490 107 490 113 q 492 97 490 104 q 494 82 493 90 q 497 68 496 75 q 498 58 498 61 l 499 -17 l 498 -29 l 494 -55 q 492 -76 493 -65 q 490 -93 490 -87 q 488 -113 490 -96 q 483 -149 486 -130 q 477 -185 479 -168 q 475 -205 475 -202 l 475 -237 q 472 -247 475 -241 q 466 -261 469 -254 q 461 -276 463 -269 q 458 -286 458 -283 q 457 -295 458 -289 q 454 -310 456 -302 q 452 -324 453 -317 q 450 -333 450 -330 q 439 -355 447 -339 q 421 -390 431 -372 q 404 -424 412 -408 q 393 -446 396 -440 l 385 -458 q 377 -467 381 -463 q 370 -471 373 -471 q 358 -479 366 -474 q 340 -491 350 -485 q 320 -503 330 -497 q 304 -511 311 -508 q 296 -513 301 -511 q 285 -519 290 -515 l 272 -526 l 254 -530 q 241 -533 247 -532 q 232 -534 235 -534 l 224 -534 l 215 -534 q 205 -533 212 -534 q 192 -530 199 -532 l 175 -526 q 165 -524 172 -526 q 150 -518 158 -522 q 136 -510 142 -514 q 126 -503 129 -506 l 104 -486 q 88 -472 96 -479 q 78 -463 81 -466 q 66 -454 73 -463 q 64 -451 65 -453 q 61 -446 62 -448 l 53 -422 l 36 -390 q 34 -380 36 -387 q 28 -366 31 -374 q 23 -351 26 -358 q 21 -341 21 -345 q 15 -327 18 -336 q 9 -308 12 -317 l 4 -286 l 4 -237 m 134 163 l 134 131 q 135 122 134 128 q 138 111 136 117 q 140 99 139 104 q 142 90 142 93 l 158 75 l 175 75 l 199 75 q 215 79 205 75 q 232 83 226 83 q 246 91 237 83 q 251 94 248 92 q 256 98 253 96 q 265 110 258 102 q 280 127 272 118 q 294 144 288 136 q 304 155 301 152 l 336 187 q 339 194 336 190 q 344 203 341 199 q 350 212 347 208 q 353 220 353 216 q 354 229 353 222 q 357 244 355 236 q 359 258 358 252 q 361 268 361 265 l 361 283 l 361 292 l 357 304 q 354 315 355 310 q 353 323 353 320 q 350 334 353 327 q 345 351 348 342 l 336 372 l 321 396 l 313 412 q 310 422 313 416 q 304 437 307 429 q 298 451 301 445 q 296 461 296 458 l 288 476 l 281 476 l 264 468 q 255 460 260 465 q 243 448 250 454 q 232 436 237 442 q 224 428 227 431 q 219 419 221 423 q 214 411 217 414 q 206 397 210 404 q 199 387 202 391 q 196 380 199 385 q 191 372 194 376 q 185 363 188 368 q 183 355 183 359 q 179 345 183 353 q 171 328 175 337 q 162 311 166 319 q 158 300 158 303 q 157 292 158 296 q 154 284 155 288 l 150 275 q 149 266 150 273 q 146 252 147 259 q 143 237 144 244 q 142 228 142 231 l 138 211 q 135 197 136 204 q 134 187 134 191 l 134 163 z "},"h":{"ha":597,"x_min":46,"x_max":575,"o":"m 71 57 q 73 65 71 60 q 78 77 75 71 q 84 88 81 83 q 86 97 86 94 l 86 161 q 87 175 86 164 q 90 198 89 186 q 93 220 92 210 q 94 233 94 231 l 94 241 q 93 257 94 245 q 90 282 92 269 q 87 307 89 296 q 86 322 86 319 q 85 359 86 334 q 82 410 83 383 q 79 459 81 436 q 78 492 78 482 l 78 653 q 77 662 78 656 q 74 676 76 669 q 72 691 73 684 q 71 700 71 697 q 70 712 71 702 q 68 735 69 722 q 66 764 68 749 q 64 794 65 780 q 63 818 64 808 q 62 829 62 827 q 58 846 60 839 q 56 860 57 853 q 54 869 54 866 l 46 901 l 46 926 l 46 950 q 51 958 48 955 q 56 964 53 962 q 62 966 59 966 q 75 974 69 970 q 86 980 81 977 q 94 982 91 982 q 102 983 98 982 q 110 986 106 985 q 119 990 115 988 l 126 990 l 135 990 l 151 982 q 159 979 155 982 q 167 973 163 977 q 174 965 171 970 q 176 958 176 961 l 183 942 l 183 909 l 183 878 q 182 866 183 874 q 180 849 181 859 q 177 832 178 840 q 176 821 176 824 l 176 685 l 176 555 q 177 530 176 546 q 180 498 178 514 q 183 460 181 480 l 192 452 q 200 460 195 454 q 212 472 206 466 q 224 483 218 477 q 232 492 229 488 q 237 501 232 494 q 249 516 242 508 q 260 530 255 524 q 265 541 265 537 q 275 552 270 547 q 282 560 278 556 q 289 564 286 564 l 314 579 q 321 581 317 579 q 329 583 326 582 q 338 587 333 585 l 363 587 l 387 587 l 403 579 q 415 570 410 574 q 424 563 420 567 q 428 555 428 559 q 435 547 431 552 q 443 536 439 542 q 452 524 447 530 q 460 507 456 514 q 466 493 463 500 q 468 484 468 487 q 469 476 468 480 q 472 469 471 472 q 476 460 474 465 q 479 447 476 456 q 485 427 481 438 q 490 407 488 416 q 493 395 493 397 l 500 371 q 503 359 500 368 q 508 342 505 351 q 514 325 511 333 q 517 314 517 317 q 538 241 529 278 q 558 168 547 205 q 561 158 558 165 q 567 144 564 151 q 572 129 570 136 q 575 119 575 122 l 575 113 l 575 96 l 567 79 q 558 71 564 76 q 547 60 553 66 l 534 47 q 525 43 529 45 q 517 40 521 41 q 510 39 513 39 l 494 39 l 478 39 l 461 47 l 453 56 q 451 65 453 58 q 445 80 448 72 q 440 94 442 87 q 437 104 437 101 l 437 153 q 436 162 437 155 q 433 177 435 169 q 431 191 432 184 q 429 200 429 197 q 428 214 429 203 q 424 237 426 225 q 421 260 422 250 q 419 273 419 271 l 411 298 l 403 330 q 399 343 403 334 q 391 362 395 352 q 383 382 387 373 q 379 395 379 391 q 376 404 379 397 q 370 419 374 411 q 362 433 366 427 q 354 443 357 439 l 346 452 l 338 452 l 330 452 q 322 446 326 449 q 316 441 319 444 q 314 435 314 438 q 286 400 301 417 q 258 366 271 383 q 251 355 255 362 q 243 340 247 348 q 236 324 239 332 q 233 314 233 317 l 232 282 q 230 271 232 279 q 224 254 227 262 q 219 237 221 245 q 216 227 216 229 l 216 17 q 211 8 214 12 q 206 1 208 5 q 200 -7 203 -3 q 191 -14 197 -10 q 180 -20 186 -17 q 169 -27 174 -24 q 160 -33 163 -31 l 143 -41 l 135 -41 q 115 -28 128 -35 q 94 -16 101 -22 q 86 -3 90 -9 q 80 8 83 3 q 78 17 78 14 q 77 27 78 20 q 74 40 75 33 q 71 57 72 47 z "},"i":{"ha":281,"x_min":40,"x_max":233,"o":"m 97 40 q 96 69 97 49 q 93 112 94 90 q 90 155 92 135 q 89 184 89 176 q 85 211 87 199 q 82 233 83 222 q 81 250 81 243 q 79 265 81 256 q 76 283 77 274 q 72 306 74 294 l 64 339 l 64 395 l 49 427 q 47 434 49 430 q 44 443 45 439 q 40 453 42 448 l 40 485 l 40 509 q 43 517 40 511 q 49 529 45 523 q 57 541 53 535 q 64 549 61 546 q 73 557 68 553 q 81 563 77 560 q 89 566 85 566 l 104 574 q 113 575 108 574 q 123 578 118 576 q 136 582 130 580 q 146 579 139 582 q 160 573 153 576 q 175 565 168 569 q 184 557 181 560 l 201 542 q 204 534 201 538 q 209 525 206 530 q 214 516 212 520 q 216 509 216 511 l 216 501 l 216 493 q 214 481 216 490 q 209 464 212 473 q 204 446 206 454 q 201 435 201 437 q 200 425 201 431 q 197 412 199 418 q 193 395 195 404 l 193 322 l 193 241 q 195 232 193 238 q 197 217 196 225 q 200 203 199 210 q 201 193 201 196 q 205 183 201 190 q 213 169 209 176 q 221 154 218 161 q 225 144 225 147 q 227 138 225 142 q 229 130 228 134 q 233 121 231 125 l 233 113 l 233 97 q 232 86 233 94 q 229 70 231 78 q 225 49 227 60 q 220 39 222 44 q 215 31 217 35 q 210 24 212 27 q 202 17 206 21 q 194 9 198 13 l 184 0 l 161 0 l 129 0 l 113 8 l 104 17 l 97 40 m 58 786 l 58 803 q 62 825 58 810 q 66 847 66 840 l 77 865 l 85 873 q 97 881 88 877 q 114 890 105 886 q 136 900 124 895 q 146 895 142 897 q 164 890 156 890 q 174 885 169 888 q 189 873 182 880 q 199 866 193 870 q 210 857 205 861 q 224 847 217 852 l 224 821 l 224 794 q 210 780 217 787 q 199 769 205 774 q 189 760 193 763 q 172 748 182 752 q 154 743 161 743 l 119 743 l 85 743 l 66 750 l 58 768 l 58 786 z "},"j":{"ha":290,"x_min":-56,"x_max":256,"o":"m -56 -397 l -56 -374 q -53 -366 -56 -370 q -47 -358 -51 -362 q -39 -349 -44 -353 l -22 -349 l -16 -349 l 35 -389 l 43 -389 l 60 -389 l 75 -380 q 87 -372 82 -376 q 96 -364 92 -368 q 100 -357 100 -360 q 104 -350 100 -354 q 112 -341 108 -345 q 121 -332 117 -336 q 125 -325 125 -328 l 134 -309 l 140 -277 l 149 -253 l 149 -20 q 146 -9 149 -17 q 141 8 144 -1 q 136 25 138 17 q 134 36 134 33 q 132 50 134 39 q 129 72 131 60 q 126 95 127 84 q 125 109 125 105 q 122 118 125 111 q 116 133 119 125 q 111 147 113 140 q 109 157 109 153 q 107 169 109 160 q 104 189 106 178 q 101 209 102 199 q 100 221 100 218 l 92 253 l 83 293 q 75 317 80 302 q 64 347 70 332 q 55 374 59 362 q 52 389 52 386 q 46 399 52 392 q 35 413 41 406 q 23 428 28 421 q 18 437 18 434 q 6 466 12 450 q 1 494 1 482 l 1 510 q 4 519 1 513 q 11 534 7 526 q 19 548 15 542 q 26 558 23 555 q 36 573 26 565 q 52 582 45 582 l 92 582 l 125 582 q 133 581 128 582 q 144 578 138 579 q 157 574 150 576 q 165 565 161 569 q 171 557 168 562 q 174 550 174 553 l 182 533 l 182 510 l 182 478 l 174 446 l 174 437 l 174 422 l 178 401 q 180 385 179 392 q 182 374 182 377 l 191 334 q 192 323 191 330 q 195 309 193 317 q 197 294 196 301 q 199 285 199 288 l 207 261 q 208 250 207 258 q 211 232 210 241 q 214 215 212 223 q 215 204 215 207 q 217 195 215 201 q 223 181 220 189 q 228 167 226 174 q 231 157 231 160 q 233 139 231 153 q 239 106 236 124 q 245 71 242 88 q 248 45 248 54 q 249 26 248 39 q 252 1 250 14 q 254 -22 253 -12 q 256 -36 256 -33 l 256 -109 l 256 -180 q 254 -207 256 -189 q 252 -242 253 -224 q 249 -275 250 -260 q 248 -293 248 -290 q 230 -324 237 -309 q 216 -351 222 -337 q 207 -374 210 -364 q 204 -382 207 -376 q 198 -393 201 -387 q 190 -404 194 -399 q 182 -412 185 -410 q 174 -421 178 -416 q 166 -432 170 -427 q 157 -446 161 -439 q 145 -456 153 -449 q 130 -472 138 -464 l 109 -493 q 95 -497 102 -495 q 84 -500 90 -498 q 75 -501 79 -501 l 52 -501 l 26 -501 q 18 -500 23 -501 q 7 -497 12 -498 q -7 -493 0 -495 q -14 -489 -10 -493 q -23 -480 -18 -486 q -32 -470 -27 -475 q -39 -461 -36 -465 q -51 -445 -45 -455 q -56 -429 -56 -435 l -56 -397 m 1 822 l 1 831 l 9 847 q 14 854 9 850 q 22 863 18 859 q 31 871 26 867 q 35 879 35 876 l 52 895 q 60 899 56 897 q 68 901 64 900 q 75 903 72 903 q 86 904 79 903 q 103 907 94 905 q 125 911 113 909 l 140 903 q 146 900 144 903 q 151 895 149 898 q 157 888 154 892 q 161 871 159 878 q 164 857 162 864 q 165 847 165 850 l 165 839 l 165 831 q 161 814 165 824 q 157 799 157 805 q 154 790 157 795 q 148 779 151 785 q 143 767 145 772 q 140 758 140 761 l 134 750 l 117 743 l 83 743 l 60 743 q 50 747 55 745 q 35 758 41 752 l 26 766 q 19 777 23 770 q 11 791 15 783 q 4 805 7 799 q 1 815 1 812 l 1 822 z "},"k":{"ha":596,"x_min":52,"x_max":610,"o":"m 75 50 l 75 64 l 82 81 q 83 105 82 88 q 84 145 83 123 q 86 192 85 167 q 88 238 87 216 q 90 278 89 260 q 90 302 90 295 l 90 310 q 89 323 90 313 q 86 345 87 333 q 83 366 85 356 q 82 379 82 376 l 82 591 q 82 623 82 601 q 80 672 81 644 q 79 730 79 699 q 77 788 78 760 q 76 837 76 815 q 75 868 75 859 q 67 876 71 872 q 62 883 64 880 q 60 890 60 887 q 56 903 58 897 q 53 913 54 909 q 52 921 52 918 l 52 928 l 52 936 q 54 944 52 939 q 59 954 56 949 q 66 966 62 960 q 82 981 73 973 q 97 989 92 989 q 114 993 106 991 q 129 996 121 994 q 143 997 136 997 l 150 997 l 174 989 l 189 981 l 197 975 l 197 958 l 197 936 q 195 924 197 932 q 189 905 192 915 q 183 886 186 895 q 180 875 180 878 q 179 863 180 872 q 177 844 178 854 q 175 825 176 834 q 174 814 174 817 q 173 784 174 805 q 170 741 172 764 q 168 697 169 718 q 167 668 167 677 l 167 624 l 167 585 q 168 560 167 579 q 170 519 169 541 q 173 477 172 497 q 174 449 174 457 q 175 431 174 443 q 177 407 176 419 q 179 384 178 395 q 180 371 180 374 l 189 354 q 202 367 192 357 q 224 386 213 376 q 246 405 236 396 q 260 416 256 414 q 273 433 264 422 q 291 454 281 444 q 308 474 300 465 q 318 485 315 483 q 327 498 321 488 q 338 519 332 508 q 349 541 344 531 q 357 554 354 551 l 372 561 l 403 561 l 427 561 l 441 554 l 456 539 l 456 517 l 456 485 l 449 471 l 424 441 l 389 410 l 343 371 l 317 339 l 273 304 l 260 288 q 261 281 260 284 q 264 276 262 279 q 268 271 266 273 q 283 266 275 269 q 295 261 289 264 q 304 256 301 259 q 317 248 311 251 q 327 242 322 244 q 335 240 332 240 q 351 232 338 237 q 380 221 365 227 q 410 211 396 216 q 427 203 423 205 l 456 189 q 474 179 462 186 q 498 167 486 173 q 521 156 511 161 q 534 151 531 151 l 571 136 q 578 135 574 136 q 586 132 583 134 q 595 129 590 130 q 600 127 597 129 q 605 122 603 125 q 610 115 608 119 l 610 103 l 610 81 l 602 64 q 597 60 600 62 q 586 57 592 57 q 579 56 583 57 q 572 54 576 55 q 564 50 568 52 l 541 50 q 533 51 538 50 q 524 53 529 52 q 511 56 517 54 q 501 57 508 56 q 487 61 494 59 q 473 65 480 63 q 464 66 467 66 l 441 74 q 427 80 438 74 q 403 93 416 86 q 379 106 390 100 q 366 113 368 113 q 351 116 362 113 q 325 125 339 120 q 295 135 310 130 q 272 143 281 140 l 236 158 l 214 174 l 200 170 l 199 163 l 197 142 l 197 119 l 197 96 q 200 87 197 93 q 205 76 202 82 q 210 65 208 71 q 212 57 212 60 l 212 50 l 212 35 l 205 21 q 197 12 202 18 q 185 1 191 7 q 175 -9 180 -4 q 167 -18 170 -15 l 150 -26 l 126 -26 l 114 -26 l 104 -18 q 97 -12 100 -15 q 90 -9 93 -9 l 82 4 q 81 12 82 7 q 79 22 80 17 q 75 35 77 28 l 75 50 z "},"l":{"ha":281,"x_min":22,"x_max":236,"o":"m 114 4 q 105 23 111 10 q 94 52 100 37 q 85 80 89 66 q 81 100 81 94 l 81 109 l 81 125 q 82 134 81 128 q 85 146 83 140 q 87 157 86 152 q 89 165 89 163 q 87 178 89 168 q 85 198 86 187 q 82 218 83 209 q 81 231 81 227 q 79 253 81 236 q 76 291 78 271 q 73 330 75 311 q 72 358 72 349 l 72 392 q 71 407 72 395 q 68 433 69 419 q 65 458 66 446 q 64 472 64 469 l 64 504 q 62 525 64 507 q 60 562 61 542 q 57 599 58 582 q 56 619 56 616 q 54 649 56 625 q 52 699 53 672 q 49 750 50 726 q 47 779 47 773 l 39 811 l 39 844 q 36 854 39 847 q 30 869 33 861 q 25 884 27 877 q 22 893 22 890 l 22 918 l 22 933 l 72 982 l 89 982 l 122 982 l 136 974 q 144 971 140 974 q 152 966 148 969 q 161 958 157 962 l 178 933 l 178 918 l 178 901 q 175 891 178 898 q 169 877 172 884 q 164 862 166 869 q 161 851 161 855 q 160 841 161 848 q 157 824 159 833 q 154 807 155 815 q 153 796 153 799 l 153 715 l 153 627 q 153 615 153 625 q 155 593 154 606 q 157 566 156 581 q 159 538 158 551 q 161 515 160 525 q 161 504 161 506 l 161 481 q 163 452 161 472 q 165 410 164 431 q 168 370 167 388 q 170 350 170 353 q 171 339 170 347 q 174 322 172 332 q 176 305 175 313 q 178 294 178 297 q 179 281 178 291 q 182 258 180 271 q 184 236 183 246 q 186 222 186 225 q 189 211 186 219 q 194 194 191 203 q 200 176 197 184 q 203 165 203 168 q 211 153 208 159 q 217 142 214 147 q 220 134 220 137 l 236 109 l 236 83 l 236 52 q 235 43 236 49 q 232 32 233 38 q 229 20 231 26 q 228 11 228 14 l 220 4 q 186 -10 201 -8 q 153 -12 172 -12 l 127 -12 l 114 4 z "},"m":{"ha":839,"x_min":65,"x_max":815,"o":"m 85 16 l 85 32 q 86 41 85 35 q 88 54 87 47 q 91 67 90 60 q 92 77 92 73 l 92 119 l 92 171 q 91 184 92 174 q 88 206 90 194 q 86 229 87 218 q 85 245 85 240 l 79 278 l 79 410 q 78 419 79 412 q 76 433 77 425 q 73 449 74 441 q 72 463 72 456 l 65 492 l 65 498 l 65 505 q 72 515 69 510 q 77 522 75 518 q 79 529 79 526 q 82 536 79 532 q 89 543 85 540 q 98 551 93 547 l 114 558 l 134 558 l 153 558 l 167 551 l 180 536 q 185 528 182 533 q 191 518 188 524 q 197 505 193 512 l 197 492 l 197 469 q 196 449 197 459 q 194 428 195 439 q 192 401 193 416 q 191 368 191 387 l 189 309 l 192 309 q 203 329 198 319 q 213 346 208 337 q 221 361 218 355 q 227 369 224 363 q 232 380 229 374 q 237 392 235 387 q 241 400 239 397 q 245 409 241 403 q 254 422 250 415 q 262 436 258 429 q 267 446 267 442 q 272 454 269 448 q 278 467 275 460 q 286 482 281 474 q 292 498 289 488 q 299 521 296 509 q 305 543 302 532 q 307 558 307 553 q 309 564 307 560 q 314 571 311 568 q 321 578 317 575 q 326 581 324 581 q 345 584 336 582 q 362 586 353 585 q 376 587 370 587 l 389 587 l 401 587 l 416 581 q 424 568 420 574 q 431 558 427 563 q 436 551 434 554 l 443 536 q 445 514 443 531 q 450 477 448 496 q 455 440 452 457 q 457 416 457 422 l 457 335 l 458 318 l 469 342 q 480 366 472 349 q 497 403 488 383 q 514 439 506 422 q 524 463 522 456 q 526 471 524 465 q 531 484 528 477 q 535 496 533 490 q 538 505 538 503 q 546 515 541 509 q 558 528 552 521 q 571 540 565 534 q 579 549 576 546 l 608 589 q 620 596 614 593 q 629 603 625 600 q 636 610 633 606 q 643 614 640 612 q 649 616 646 615 q 654 618 652 618 l 669 618 l 676 618 q 687 610 682 613 q 695 604 691 606 q 703 602 700 602 l 711 596 q 714 581 711 591 q 717 566 717 572 q 719 535 717 555 q 722 495 720 516 q 726 455 724 474 q 728 424 728 435 q 729 411 728 421 q 732 389 730 401 q 734 363 733 376 q 736 342 736 351 q 737 331 736 339 q 740 313 738 322 q 742 295 741 303 q 743 283 743 286 q 744 274 743 281 q 747 260 745 267 q 750 240 748 251 q 753 219 750 235 q 759 188 755 204 q 767 156 763 171 q 775 136 772 141 q 777 127 775 132 q 782 117 779 122 q 787 106 785 111 q 789 97 789 101 l 802 68 q 807 59 804 65 q 811 47 809 54 q 815 32 814 40 q 812 23 813 27 q 808 8 808 15 q 806 2 808 5 q 802 -5 804 -2 q 796 -14 800 -9 l 782 -21 l 761 -21 l 741 -21 q 716 -14 727 -17 q 698 -8 707 -10 q 686 -5 690 -5 q 674 2 681 -5 q 667 16 667 10 q 662 38 664 22 q 658 72 660 54 q 655 106 656 90 q 654 126 654 121 q 654 139 654 130 q 652 158 653 148 q 650 176 651 168 q 650 189 650 185 l 644 208 q 644 217 644 212 q 642 227 643 222 q 639 240 640 233 q 638 248 639 242 q 635 261 637 254 q 633 275 634 269 q 632 283 632 281 l 631 314 q 630 328 631 316 q 629 355 629 340 q 627 382 628 370 q 627 397 627 395 q 627 408 627 400 q 626 424 627 416 q 624 438 625 432 q 618 443 622 444 l 606 428 q 593 401 599 414 q 584 382 588 391 q 576 370 579 372 q 574 362 576 367 q 569 352 572 357 q 565 341 567 347 q 562 332 562 336 q 558 318 562 328 q 550 296 555 308 q 542 274 545 284 q 538 260 538 263 q 535 251 538 257 q 528 237 532 244 q 521 222 524 229 q 518 212 518 216 q 516 201 518 209 q 512 185 514 194 q 507 167 509 176 q 505 154 505 159 l 498 119 l 493 97 l 484 68 q 480 61 482 66 q 473 51 477 56 q 461 42 468 46 q 443 39 454 39 l 416 39 q 408 41 413 39 q 397 47 403 43 q 387 55 392 51 q 380 61 382 58 q 374 64 377 61 q 370 73 372 68 q 367 82 368 77 q 366 90 366 87 q 365 109 366 96 q 364 138 365 122 q 363 173 363 155 q 362 207 363 191 q 361 235 361 223 q 361 253 361 248 q 360 262 361 256 q 358 275 359 268 q 356 289 357 282 q 355 298 355 295 l 355 335 q 356 348 355 337 q 357 372 357 359 q 356 394 357 385 q 353 404 356 404 q 348 399 351 404 q 336 380 345 394 q 320 355 328 368 q 306 333 313 345 q 294 314 299 321 q 290 303 294 311 q 280 287 286 296 q 269 268 275 277 q 261 253 264 259 l 239 216 l 227 196 l 218 163 l 218 117 q 217 108 218 113 q 214 98 216 103 q 211 87 212 93 q 212 78 211 84 q 215 66 213 73 q 217 55 216 60 q 218 46 218 49 l 216 38 q 213 31 214 35 q 208 25 211 28 q 200 16 205 22 q 190 5 195 11 q 181 -6 185 -1 q 174 -14 176 -11 l 158 -21 l 140 -21 l 119 -21 l 98 -14 l 85 1 l 85 16 z "},"n":{"ha":582,"x_min":69,"x_max":562,"o":"m 69 57 l 69 72 q 72 78 69 75 q 78 86 75 82 q 83 94 81 90 q 86 102 86 98 l 92 187 l 86 264 l 90 304 l 86 427 q 83 446 86 431 q 78 478 81 461 q 72 510 75 494 q 69 530 69 525 l 69 538 q 71 548 69 541 q 74 565 72 556 q 77 581 75 573 q 78 591 78 588 l 100 606 l 115 614 l 132 614 l 146 614 q 165 605 157 609 q 181 597 173 602 q 192 591 189 593 l 197 583 l 205 568 l 205 561 l 197 530 q 196 519 197 527 q 194 503 195 512 q 193 486 193 494 q 192 471 192 477 l 192 464 l 192 456 l 195 436 l 203 436 l 222 471 q 227 479 222 473 q 237 490 231 484 q 247 500 243 495 q 252 509 252 506 l 267 530 q 276 542 271 536 q 284 550 280 547 q 292 554 288 554 q 298 562 293 557 q 309 571 303 566 q 319 579 314 576 q 328 583 325 583 l 336 583 q 343 581 339 583 q 350 576 347 578 q 358 568 354 572 q 366 560 361 566 q 377 549 371 555 q 388 538 382 544 q 395 530 393 533 q 407 519 401 524 q 415 509 412 514 q 419 501 419 504 l 425 486 q 433 469 428 480 q 444 445 439 457 q 452 422 448 433 q 456 410 456 412 q 458 399 456 407 q 464 383 460 392 q 469 365 467 374 q 472 350 472 356 q 474 339 472 348 q 477 319 475 331 q 483 294 479 307 q 488 268 486 280 q 491 248 490 256 q 493 237 493 239 q 497 222 493 232 q 501 207 501 212 l 510 184 q 511 174 510 182 q 513 158 512 167 q 516 142 515 150 q 517 132 517 135 q 518 125 517 129 q 521 118 519 121 q 525 110 523 114 q 529 100 525 106 q 539 87 534 94 q 550 74 545 80 q 554 65 554 68 l 562 50 l 562 33 l 562 26 q 560 19 562 24 q 555 9 557 14 q 547 -4 551 3 q 535 -12 541 -9 q 525 -16 530 -14 q 517 -18 520 -18 l 493 -26 l 486 -26 q 480 -25 484 -26 q 473 -22 476 -24 q 464 -18 469 -20 q 455 -12 459 -14 q 448 -6 452 -9 q 440 -4 444 -4 l 425 11 q 418 31 420 22 q 413 47 415 39 q 411 57 411 54 q 410 65 411 60 q 407 74 408 69 q 403 85 405 79 l 403 117 l 395 147 q 394 159 395 149 q 392 180 393 169 q 390 201 391 191 q 389 214 389 211 q 384 235 387 225 q 379 253 382 244 q 374 268 377 262 l 366 290 q 365 301 366 293 q 362 320 363 310 q 359 338 360 330 q 358 350 358 347 q 356 360 358 353 q 350 376 353 368 q 343 392 347 385 q 336 403 339 399 l 321 418 l 313 418 l 304 409 q 297 402 300 406 q 292 395 293 398 l 283 387 q 278 380 280 383 q 275 374 275 376 l 248 357 q 228 294 236 323 q 214 231 219 264 l 214 184 q 214 149 214 174 q 215 96 215 123 q 214 58 215 76 q 214 33 214 41 q 203 23 210 31 q 187 8 195 16 q 172 -7 179 0 q 163 -18 165 -15 l 146 -26 l 132 -26 l 115 -26 q 109 -25 112 -26 q 102 -22 105 -24 q 94 -18 98 -20 q 86 -6 90 -12 q 80 3 83 -1 q 78 11 78 8 q 76 18 78 14 q 73 25 75 22 q 69 33 71 29 l 69 57 z "},"o":{"ha":636,"x_min":50,"x_max":586,"o":"m 50 285 l 50 310 q 55 336 52 323 q 60 356 57 346 q 66 374 63 367 q 68 381 66 377 q 71 389 69 385 q 75 397 73 393 q 87 422 78 404 q 107 462 96 441 q 126 502 117 484 q 139 526 136 521 l 147 534 l 180 559 l 196 575 q 216 576 202 575 q 245 579 230 578 q 274 582 260 581 q 293 583 288 583 q 301 585 296 583 q 314 587 307 586 q 326 590 320 589 q 335 591 332 591 l 358 591 l 383 591 q 396 587 390 589 q 407 585 401 586 q 415 583 412 583 l 432 575 q 439 573 435 575 q 447 567 444 570 q 456 559 451 564 q 466 550 458 556 q 480 535 473 543 q 495 521 488 528 q 505 511 502 514 q 514 498 510 504 q 529 479 522 486 q 531 472 529 476 q 537 464 534 468 q 546 454 541 459 q 553 444 549 451 q 561 430 557 437 q 567 415 564 422 q 570 406 570 408 q 574 393 572 399 q 576 382 575 387 q 578 374 578 377 q 579 355 578 368 q 582 330 581 342 q 585 307 583 317 q 586 293 586 296 l 586 244 l 586 204 q 585 195 586 201 q 581 184 583 190 q 575 173 578 178 q 570 164 572 167 q 565 154 570 161 q 553 139 559 147 q 539 125 546 132 q 529 115 532 118 q 512 98 523 109 q 489 76 500 87 q 468 55 478 64 q 456 43 458 46 l 424 26 q 412 21 420 26 q 395 11 404 16 q 378 0 386 5 q 367 -5 370 -5 q 362 -6 365 -5 q 351 -9 359 -7 q 330 -11 344 -10 q 293 -12 316 -12 q 276 -13 285 -12 q 260 -14 268 -14 q 235 -12 247 -14 q 212 -5 224 -11 q 191 7 201 1 q 175 18 183 13 q 164 26 168 23 q 156 31 161 26 q 147 39 152 35 q 138 47 142 43 q 131 52 134 52 l 123 58 q 115 68 120 62 q 104 81 109 75 q 90 98 97 89 l 82 115 q 75 133 79 121 q 67 155 71 144 q 61 175 64 166 q 58 187 58 184 q 57 200 58 191 q 54 221 56 210 q 52 244 53 233 q 50 261 50 255 l 50 285 m 155 236 q 164 218 159 231 q 176 192 170 206 q 187 166 182 178 q 196 147 193 153 q 204 138 199 144 q 217 127 210 133 q 229 116 223 121 q 237 107 234 110 q 258 99 248 102 q 275 94 267 96 q 286 92 283 92 l 293 92 l 301 92 q 320 93 307 92 q 345 95 332 94 q 375 98 359 96 q 392 108 385 103 q 405 116 399 112 q 415 123 412 120 l 424 132 q 432 141 427 135 q 443 155 437 147 q 456 172 449 162 q 464 185 460 179 q 470 196 467 191 q 472 204 472 201 q 473 212 472 208 q 476 219 475 216 q 481 228 478 223 q 482 240 481 231 q 485 261 484 250 q 488 284 486 273 q 489 301 489 295 l 489 310 l 489 317 q 485 333 489 323 q 481 350 481 344 l 472 366 l 456 406 q 447 419 451 412 q 439 430 444 425 q 432 439 435 435 l 407 463 q 398 470 404 466 q 388 477 393 474 q 375 486 382 481 l 367 486 l 350 486 l 335 479 l 326 471 l 310 439 l 301 431 l 286 422 q 274 420 283 422 q 254 414 264 417 q 233 408 243 411 q 221 406 224 406 l 204 397 l 187 382 q 184 372 185 377 q 180 357 180 363 q 178 342 180 351 q 172 323 176 333 q 164 301 169 313 q 163 291 164 298 q 160 277 161 285 q 157 262 158 269 q 155 253 155 256 l 155 244 l 155 236 z "},"p":{"ha":648,"x_min":66,"x_max":627,"o":"m 107 -354 q 111 -336 109 -345 q 114 -320 113 -329 q 115 -306 115 -312 l 123 -273 l 123 -250 l 123 -218 q 122 -207 123 -215 q 119 -190 121 -199 q 117 -173 118 -180 q 115 -161 115 -165 q 114 -149 115 -158 q 111 -129 113 -140 q 109 -110 110 -119 q 107 -97 107 -100 q 105 -72 107 -87 q 99 -42 102 -57 q 94 -15 96 -27 q 92 0 92 -3 l 75 32 l 75 47 l 75 64 l 83 81 q 85 89 83 83 q 87 99 86 94 l 92 113 l 92 136 l 92 168 q 90 183 92 171 q 87 208 89 195 q 85 234 86 222 q 83 249 83 245 l 83 353 q 82 381 83 362 q 79 422 81 401 q 77 463 78 444 q 75 490 75 481 q 74 501 75 493 q 71 518 73 509 q 68 535 69 528 q 66 546 66 543 q 72 559 69 553 q 77 570 75 565 q 83 579 80 576 l 92 586 q 101 589 94 586 q 116 594 108 591 q 130 600 123 597 q 140 603 137 603 l 164 603 l 180 603 l 212 571 l 221 554 l 237 546 l 244 546 l 253 546 q 264 548 256 546 q 281 554 272 551 q 298 559 290 557 q 310 562 307 562 q 318 564 313 562 q 330 567 324 565 q 342 570 336 568 q 350 571 347 571 q 376 572 359 571 q 410 575 393 574 q 440 578 427 576 q 456 579 453 579 q 468 578 458 579 q 489 575 478 576 q 512 572 500 574 q 529 571 523 571 q 545 567 536 571 q 561 562 555 562 l 578 554 q 586 547 581 551 q 597 539 591 543 q 610 530 603 535 q 612 523 610 527 q 618 514 615 519 q 624 506 621 510 q 627 498 627 502 l 627 467 l 627 433 q 617 408 622 420 q 609 386 613 397 q 602 370 605 376 l 595 353 q 580 330 588 343 q 564 304 572 317 l 546 273 q 535 257 546 270 q 510 226 525 243 q 480 191 496 209 q 456 161 465 174 l 449 153 l 407 121 q 397 115 404 121 q 383 101 391 109 q 368 87 375 93 q 358 81 361 81 q 349 72 353 75 q 342 66 346 68 q 335 64 338 64 q 324 57 333 62 q 303 45 315 52 q 278 32 292 39 q 252 18 264 24 q 232 6 240 12 q 221 0 223 1 l 212 -8 l 212 -32 q 222 -121 212 -75 q 237 -210 231 -167 q 238 -221 237 -213 q 241 -238 239 -229 q 243 -255 242 -247 q 244 -265 244 -262 q 245 -275 244 -269 q 249 -290 247 -282 q 252 -304 250 -297 q 253 -314 253 -311 l 261 -346 l 261 -363 l 261 -378 q 256 -387 258 -383 q 250 -392 253 -390 q 244 -395 248 -395 l 229 -403 l 204 -427 l 189 -435 l 172 -435 l 155 -435 l 140 -418 q 132 -403 137 -412 q 121 -384 126 -393 q 111 -366 115 -374 q 107 -354 107 -357 m 415 467 q 359 461 385 467 q 301 450 333 456 q 294 449 298 450 q 287 446 290 447 q 278 441 283 444 q 269 438 275 441 q 257 430 263 434 q 245 421 251 425 q 237 418 240 418 q 228 408 234 414 q 214 395 221 401 q 196 378 205 387 l 196 121 l 204 113 l 212 113 l 229 113 l 244 121 q 269 137 254 127 q 300 158 285 148 q 328 177 315 169 q 343 184 340 184 q 354 196 346 188 q 372 214 362 204 q 392 233 382 224 q 407 249 401 243 q 420 266 414 258 q 431 279 426 273 q 440 289 437 286 l 456 314 l 472 346 q 476 354 472 349 q 485 366 480 359 q 493 377 489 372 q 497 386 497 382 l 504 401 l 504 418 l 504 427 l 497 441 q 485 453 491 448 q 472 458 479 458 q 464 460 469 458 q 453 463 458 461 q 440 467 447 465 l 415 467 z "},"q":{"ha":615,"x_min":28,"x_max":632,"o":"m 412 149 l 403 155 l 386 149 q 376 143 382 149 q 362 131 370 138 q 347 118 354 124 q 338 109 340 111 q 324 96 334 105 q 301 75 313 86 q 278 54 289 64 q 265 41 268 45 l 248 33 q 234 25 240 29 q 224 18 227 22 l 207 9 q 197 3 203 6 q 184 -1 191 1 q 167 -5 176 -4 l 150 -5 l 135 -5 q 124 -4 132 -5 q 110 -2 117 -3 q 95 0 102 -1 q 85 1 87 1 l 68 9 q 59 18 64 13 q 48 30 54 24 q 36 41 42 36 q 28 50 31 47 l 28 58 l 36 92 l 36 149 q 38 158 36 151 q 44 172 41 165 q 49 186 47 180 q 52 196 52 193 q 56 211 52 199 q 64 237 60 223 q 73 262 68 250 q 77 278 77 275 l 85 294 q 92 304 87 297 q 101 319 97 311 q 110 333 106 326 q 118 343 115 340 q 125 351 121 346 q 134 361 130 356 q 143 375 138 368 l 158 392 q 162 401 158 395 q 171 416 166 408 q 179 430 175 424 q 183 440 183 437 q 188 450 183 444 q 200 465 193 457 q 214 479 207 473 q 224 489 220 486 q 234 499 227 492 q 249 514 241 506 q 263 529 256 522 q 273 539 270 536 q 286 548 277 542 q 306 563 295 555 q 325 577 316 570 q 338 586 334 583 q 347 590 342 588 q 355 593 351 591 q 363 595 359 595 q 376 595 366 595 q 399 596 387 595 q 422 599 411 597 q 436 603 433 601 l 469 603 l 501 603 q 510 600 505 603 q 522 594 515 597 q 533 589 528 591 q 542 586 538 586 l 551 577 q 557 570 554 574 q 559 562 559 566 q 562 553 559 559 q 567 542 564 548 q 573 530 570 536 q 575 521 575 524 l 575 513 l 575 497 q 571 485 575 494 q 563 464 567 476 q 554 437 558 451 q 550 408 550 422 q 549 395 550 405 q 546 375 547 386 q 543 355 545 364 q 542 343 542 346 q 539 328 542 340 q 533 302 536 316 q 528 277 530 288 q 525 262 525 265 l 525 164 l 525 41 q 526 21 525 36 q 529 -10 528 7 q 532 -41 530 -26 q 533 -62 533 -56 q 534 -73 533 -66 q 537 -87 536 -79 q 542 -104 539 -95 q 543 -117 542 -108 q 546 -137 545 -126 q 549 -156 547 -147 q 550 -168 550 -165 q 553 -182 550 -172 q 558 -207 555 -193 q 564 -232 562 -220 q 567 -250 567 -244 l 575 -282 q 576 -292 575 -286 q 579 -306 578 -298 q 582 -321 581 -314 q 583 -330 583 -328 q 587 -340 585 -335 q 590 -348 589 -344 q 591 -355 591 -352 q 596 -369 591 -358 q 608 -392 602 -380 q 619 -415 614 -404 q 624 -429 624 -427 l 632 -453 l 632 -461 l 624 -476 q 615 -488 621 -479 q 604 -504 610 -496 q 591 -525 598 -513 l 575 -534 l 559 -534 l 542 -534 q 534 -530 538 -534 q 525 -521 530 -526 q 517 -510 521 -515 q 510 -501 513 -505 q 505 -492 507 -496 q 503 -484 504 -488 q 501 -476 501 -479 q 500 -463 501 -473 q 497 -441 498 -453 q 494 -418 496 -429 q 493 -404 493 -408 l 485 -371 q 483 -353 485 -368 q 477 -319 480 -337 q 472 -286 474 -301 q 469 -267 469 -270 q 467 -257 469 -264 q 461 -242 464 -250 q 455 -227 458 -234 q 453 -216 453 -220 q 452 -203 453 -214 q 449 -180 450 -193 q 446 -158 447 -168 q 444 -144 444 -148 q 443 -134 444 -142 q 440 -116 441 -125 q 437 -99 439 -107 q 436 -87 436 -91 q 435 -78 436 -85 q 432 -63 433 -71 q 429 -48 431 -56 q 428 -39 428 -41 q 425 -21 426 -29 q 422 -8 423 -14 q 421 1 421 -1 q 420 32 421 11 q 417 75 418 52 q 414 118 415 98 q 412 149 412 139 m 135 149 q 139 139 137 144 q 142 131 140 135 q 143 123 143 127 l 150 115 l 167 109 q 176 110 170 109 q 191 113 183 111 q 205 117 199 115 q 215 123 212 120 q 224 132 220 128 q 232 138 228 135 q 239 140 236 140 q 248 145 242 140 q 260 156 254 151 q 273 167 267 162 q 282 172 279 172 l 314 196 l 329 212 q 339 223 332 216 q 353 238 346 230 q 366 252 360 245 q 371 262 371 259 q 378 271 374 265 q 386 282 382 276 q 392 294 389 288 q 395 302 395 299 q 399 321 397 312 q 401 336 400 328 q 403 350 403 345 l 403 358 q 403 371 403 361 q 405 389 404 380 q 407 414 406 401 l 399 431 q 391 437 395 433 q 383 444 387 440 q 374 452 378 447 q 363 450 368 451 q 354 449 358 450 q 346 449 349 449 l 329 449 q 320 444 324 446 q 313 438 317 441 q 306 432 309 435 q 297 425 302 429 q 286 418 292 421 q 273 408 280 413 l 257 392 q 245 378 252 388 q 230 356 238 369 q 212 331 221 344 q 196 305 203 317 q 183 283 189 292 q 175 269 177 273 q 168 260 172 267 q 159 246 163 254 q 153 232 155 239 q 150 221 150 224 q 146 208 148 214 q 143 189 143 195 q 142 179 143 186 q 139 165 140 172 q 135 149 137 158 z "},"r":{"ha":476,"x_min":72,"x_max":484,"o":"m 77 14 l 77 79 q 76 92 77 81 q 76 115 76 102 q 76 138 76 127 q 75 151 75 149 l 75 176 q 75 187 75 180 q 73 202 74 194 l 72 222 q 73 233 72 224 q 77 253 75 241 q 82 278 79 264 q 86 303 84 291 q 90 323 89 315 q 92 334 92 332 l 92 382 l 92 446 q 91 457 92 449 q 88 474 90 465 q 86 491 87 484 q 85 503 85 499 l 77 525 l 77 533 q 83 549 80 539 q 90 568 86 558 l 97 590 q 104 599 100 593 q 113 610 109 604 q 121 619 117 615 q 129 623 125 623 l 150 623 l 182 623 q 189 621 184 623 q 196 618 193 619 q 204 614 200 616 q 212 605 208 610 q 222 595 217 600 q 233 582 227 589 q 232 568 233 578 q 229 544 231 557 q 227 520 228 531 q 225 505 225 509 l 250 525 l 272 542 q 280 544 275 542 q 290 549 285 546 q 301 557 295 552 q 318 565 307 560 q 339 573 328 569 q 358 579 350 576 q 370 582 367 582 l 378 582 l 393 582 q 403 581 397 582 q 415 578 409 579 q 431 574 422 576 q 446 561 439 567 q 458 550 452 555 q 467 542 465 545 q 478 528 473 535 q 484 511 484 522 l 484 503 l 467 486 l 454 478 l 401 478 l 392 474 q 378 471 383 471 q 361 463 372 467 q 336 454 349 458 q 312 445 323 450 q 296 437 301 440 l 288 429 q 283 420 288 427 q 272 405 278 413 q 259 388 265 396 q 250 374 253 379 l 233 349 q 227 339 231 345 q 220 326 224 332 q 212 309 216 318 q 208 297 210 302 q 205 288 207 292 q 204 279 204 283 q 203 264 204 276 q 201 238 202 252 q 198 210 199 224 q 197 191 197 197 l 197 174 l 197 167 q 201 149 199 157 q 203 135 202 142 q 204 125 204 128 q 205 117 204 122 q 208 106 207 112 q 212 93 210 100 l 227 62 l 227 46 l 227 31 l 220 14 q 208 5 214 9 q 197 -3 202 1 q 189 -9 193 -7 l 175 -18 q 166 -20 172 -18 q 156 -22 161 -21 q 143 -26 150 -24 q 135 -22 139 -24 q 128 -20 132 -21 q 121 -18 124 -18 q 113 -16 118 -18 q 104 -11 109 -14 q 92 -3 98 -7 l 77 14 z "},"s":{"ha":618,"x_min":26,"x_max":585,"o":"m 26 28 l 26 43 l 35 60 q 43 64 39 62 q 51 66 47 65 q 58 68 55 68 q 68 69 61 68 q 82 72 75 71 q 97 75 90 74 q 107 77 104 77 l 155 77 q 164 78 159 77 q 176 80 170 79 q 188 82 182 81 q 196 83 193 83 q 212 87 199 83 q 242 97 226 92 q 273 108 258 102 q 293 117 288 113 q 301 119 296 117 q 313 124 307 121 q 325 130 319 127 q 334 132 331 132 q 341 135 336 132 q 350 140 345 137 q 359 146 355 143 q 367 149 363 149 q 377 156 370 152 q 390 163 383 160 q 407 172 397 168 l 422 189 l 422 197 l 422 205 q 414 208 420 205 q 402 213 408 210 q 390 219 396 216 q 382 221 385 221 q 372 222 379 221 q 358 225 366 224 q 343 228 351 227 q 334 229 336 229 q 292 231 321 229 q 228 233 262 232 q 165 236 195 235 q 123 237 136 237 q 107 241 117 237 q 92 245 97 245 l 75 253 l 58 269 q 54 279 56 274 q 52 286 53 282 q 50 293 50 290 l 50 318 l 50 335 l 58 350 q 66 360 62 353 q 74 373 70 366 q 83 390 79 380 q 95 403 86 393 q 113 423 103 412 q 132 443 123 433 q 147 456 142 452 l 164 464 q 172 466 168 464 q 180 471 176 468 q 189 479 184 475 q 197 488 192 482 q 209 498 203 493 q 220 508 215 504 q 229 511 226 511 l 261 545 q 281 562 267 550 q 310 588 295 574 q 338 615 325 602 q 358 633 352 627 l 375 640 q 384 646 378 644 q 397 652 390 649 q 415 657 405 654 l 431 657 l 439 657 q 452 644 446 650 q 463 634 458 639 q 471 625 468 629 l 479 608 l 479 576 l 479 551 l 467 538 q 456 528 461 533 q 447 519 450 523 l 431 511 l 390 496 l 375 488 l 350 471 l 310 447 l 285 431 l 253 415 q 243 405 250 412 q 228 391 236 399 q 214 376 220 383 q 204 367 207 370 l 196 350 l 204 342 q 234 341 214 342 q 278 338 255 340 q 321 336 300 337 q 350 335 341 335 q 372 332 356 335 q 408 326 389 330 q 444 317 427 321 q 471 310 462 313 q 488 306 477 310 q 511 298 499 302 q 532 290 522 294 q 545 286 541 286 q 557 273 551 279 q 568 262 563 267 q 576 253 573 256 l 585 237 l 585 229 l 585 221 q 581 211 585 218 q 573 196 577 204 q 565 182 568 189 q 561 172 561 175 q 548 157 557 166 q 528 138 539 147 q 508 120 517 128 q 496 109 498 111 q 476 101 492 109 q 440 82 460 93 q 399 60 420 71 q 367 43 379 49 q 355 40 363 43 q 338 34 347 38 q 321 26 329 31 q 310 20 313 22 q 300 15 305 17 q 292 12 296 14 q 285 11 288 11 l 253 3 q 243 0 250 3 q 228 -5 236 -2 q 214 -10 220 -7 q 204 -12 207 -12 l 189 -21 q 176 -22 186 -21 q 156 -25 167 -24 q 136 -28 146 -26 q 123 -29 127 -29 l 98 -29 l 75 -29 q 66 -24 71 -26 q 58 -18 62 -21 q 50 -12 54 -16 q 43 -5 47 -9 q 35 2 39 -1 l 26 11 l 26 28 z "},"t":{"ha":482,"x_min":-21,"x_max":489,"o":"m 100 49 l 100 136 l 100 216 q 101 229 100 220 q 104 249 102 238 q 107 271 106 260 q 109 288 109 281 q 111 304 109 290 q 116 334 113 318 q 122 362 119 349 q 125 378 125 376 l 125 400 l 125 425 l 109 433 q 98 431 105 433 q 84 425 92 428 q 71 419 77 422 q 61 416 64 416 l 47 416 l 33 416 l 20 425 q 12 427 16 425 q 5 432 8 429 q -4 439 1 435 q -13 452 -9 446 q -19 462 -16 457 q -21 469 -21 467 l -21 485 l -21 493 q -13 503 -16 498 q -7 510 -9 506 q -4 517 -4 514 q 11 532 1 523 q 26 546 21 541 q 43 547 32 546 q 66 549 54 548 q 87 552 78 551 q 100 553 97 553 q 114 554 106 553 q 130 557 123 555 q 149 561 139 559 q 160 570 155 566 q 169 577 165 573 q 172 585 172 581 q 176 593 174 589 q 178 600 177 596 q 179 607 179 604 q 182 622 179 613 q 184 637 184 631 l 193 677 l 201 704 q 203 714 201 707 q 205 728 204 721 q 208 742 207 735 q 210 751 210 748 l 218 782 q 220 805 218 788 q 224 840 222 821 q 229 874 227 858 q 231 896 231 890 l 239 913 q 255 927 245 919 q 269 935 264 935 q 283 939 276 937 q 294 942 288 940 q 302 943 299 943 l 310 943 l 315 943 q 328 935 322 939 q 339 930 334 932 q 347 928 344 928 l 355 921 l 363 904 l 363 888 l 363 872 q 359 858 363 867 q 355 846 355 850 q 350 834 355 843 q 339 814 345 825 q 329 794 334 804 q 323 782 323 785 q 321 773 323 779 q 317 763 319 768 q 312 751 314 757 q 310 743 310 746 q 306 727 310 740 q 297 696 302 713 q 286 663 292 680 q 278 637 281 647 q 276 629 278 634 q 273 619 275 625 q 269 607 271 613 q 275 595 269 601 q 286 589 280 589 q 350 598 319 594 q 415 602 380 602 l 453 602 l 468 593 l 476 586 l 476 571 l 476 555 l 468 541 l 444 528 l 278 485 q 265 479 271 482 q 255 474 260 477 q 248 469 250 472 l 239 463 q 236 453 239 459 q 231 440 234 447 q 226 426 229 433 q 224 416 224 420 q 223 406 224 413 q 221 390 222 399 q 219 374 220 382 q 218 364 218 367 q 217 355 218 361 q 214 340 216 348 q 211 326 212 332 q 210 317 210 319 q 208 285 210 306 q 205 243 207 264 q 203 203 204 222 q 201 179 201 185 q 205 164 203 172 q 208 152 207 158 q 210 143 210 146 q 211 135 210 140 q 214 125 212 130 q 218 111 216 118 l 224 96 q 237 88 231 91 q 247 83 242 85 q 254 81 252 81 l 262 81 l 286 87 q 294 90 290 87 q 304 95 299 92 q 315 103 309 98 q 332 117 325 110 q 346 127 339 122 q 355 136 352 133 q 371 149 361 142 q 391 164 381 157 q 411 179 401 172 q 425 191 420 186 l 441 191 l 457 191 l 472 184 l 489 170 l 489 161 l 489 153 q 485 145 489 151 q 474 134 480 140 q 464 121 469 127 q 460 113 460 115 q 457 108 458 111 q 454 101 456 105 q 449 90 452 96 l 440 83 q 426 70 435 77 q 408 56 417 63 q 390 44 398 50 q 379 36 382 39 q 358 24 368 29 q 342 14 350 18 q 330 7 334 9 q 322 -1 328 3 q 310 -8 316 -5 q 294 -17 302 -12 q 285 -21 290 -19 q 277 -24 281 -22 q 269 -25 273 -25 q 260 -26 267 -25 q 248 -29 254 -28 q 231 -33 240 -31 l 210 -33 l 184 -33 q 179 -32 182 -33 q 173 -29 176 -31 q 165 -25 170 -27 q 155 -16 162 -22 q 141 -2 149 -9 q 126 12 133 5 q 117 22 119 19 q 114 28 117 25 q 108 36 111 32 q 102 43 105 39 q 100 49 100 47 z "},"u":{"ha":578,"x_min":31,"x_max":581,"o":"m 385 149 q 377 140 382 146 q 366 129 372 135 q 355 117 360 123 q 349 109 351 111 l 334 87 q 330 79 334 84 q 320 67 326 73 q 310 56 315 62 q 302 47 304 50 l 294 39 q 279 25 289 33 q 260 11 270 18 q 237 -4 250 3 l 207 -14 l 176 -9 l 147 -4 q 140 1 142 -2 q 132 9 132 5 q 130 17 132 13 q 124 24 127 21 q 117 33 121 28 q 113 43 115 38 q 110 51 111 47 q 109 58 109 55 q 107 66 109 62 q 104 77 105 71 q 100 89 102 83 q 98 104 100 93 q 94 131 96 116 q 89 163 92 146 q 84 196 86 180 q 80 222 81 211 q 78 237 78 234 q 74 254 76 247 q 71 277 71 269 l 71 309 q 70 316 71 311 q 67 327 68 321 q 65 338 66 333 q 64 347 64 344 l 64 371 q 60 386 64 376 q 56 401 56 396 q 52 416 56 404 q 43 440 47 427 q 35 465 39 454 q 31 479 31 477 l 31 488 l 31 503 l 33 518 q 41 527 36 521 q 52 539 47 532 q 63 551 58 545 q 71 559 68 556 q 85 569 77 564 q 93 574 89 572 l 109 574 l 123 574 q 136 562 130 568 q 146 551 142 556 q 154 543 151 547 q 168 527 161 536 q 175 511 175 517 q 181 503 178 508 q 186 492 184 498 q 192 479 189 486 l 183 449 q 182 439 183 446 q 179 426 180 433 q 175 410 177 418 l 175 378 l 175 347 q 176 332 175 344 q 179 307 178 321 q 182 280 180 293 q 183 261 183 267 q 184 245 183 255 q 188 227 186 236 q 191 209 189 217 q 192 197 192 200 l 200 175 q 203 168 200 172 q 210 159 206 163 q 220 149 214 154 l 227 149 l 241 149 l 264 157 q 279 173 270 163 q 294 187 288 182 l 310 211 l 334 243 q 340 255 336 246 q 347 274 344 264 q 353 293 351 284 q 355 306 355 302 q 356 318 355 309 q 357 338 356 327 q 358 358 357 349 q 358 371 358 368 q 361 387 359 380 q 364 400 363 394 q 366 410 366 406 l 366 433 l 366 449 l 358 472 q 357 480 358 475 q 355 490 356 485 q 351 503 353 496 l 351 526 l 351 543 q 355 562 351 550 q 358 574 356 568 q 362 582 358 576 q 371 592 366 587 q 381 601 376 597 q 389 604 386 604 q 397 607 392 604 q 408 612 403 609 q 419 618 414 615 q 428 621 425 621 l 449 621 l 464 621 q 471 618 467 621 q 479 612 475 615 q 488 607 484 609 q 494 604 492 604 l 503 589 l 503 559 l 503 526 q 500 516 503 523 q 495 503 498 510 q 490 489 492 496 q 488 479 488 482 l 488 323 l 488 300 l 488 277 q 489 260 488 271 q 491 238 490 250 q 493 218 492 227 q 494 205 494 208 q 497 195 494 202 q 503 179 500 187 q 509 162 506 170 q 511 151 511 155 l 518 136 q 526 125 521 133 q 538 109 532 117 q 549 93 544 100 q 558 83 555 86 q 565 75 562 79 q 570 67 568 71 q 572 60 572 63 l 581 43 l 581 35 q 577 25 581 31 q 569 12 574 19 q 562 -2 565 5 q 558 -11 558 -8 l 542 -26 l 528 -35 l 519 -35 q 516 -35 517 -35 q 513 -35 515 -35 q 511 -36 512 -36 q 498 -32 505 -34 q 488 -29 493 -31 q 479 -28 483 -28 q 472 -26 476 -28 q 465 -24 469 -25 q 457 -20 461 -22 l 448 -11 q 441 -3 445 -7 q 436 4 438 1 q 433 9 436 6 q 427 16 431 13 q 419 25 424 20 q 416 41 419 28 q 410 71 413 55 q 403 100 406 87 q 400 117 400 113 q 399 124 400 120 q 397 132 398 128 q 393 142 395 137 l 393 149 l 385 149 z "},"v":{"ha":518,"x_min":14,"x_max":541,"o":"m 14 543 l 14 559 q 18 574 14 564 q 22 590 22 584 l 31 597 q 37 600 33 597 q 45 605 41 602 q 54 612 49 608 l 79 621 l 94 621 l 111 621 q 119 619 115 621 q 126 616 123 618 q 135 612 130 614 q 144 604 140 608 q 153 597 149 601 q 160 590 157 593 l 176 566 l 176 481 q 181 458 176 478 q 193 410 186 437 q 207 356 200 383 q 216 311 213 328 q 220 302 218 307 q 223 295 222 299 q 225 289 225 292 q 232 271 228 283 q 240 246 236 259 q 249 222 245 233 q 257 204 254 210 l 265 204 l 273 211 q 277 222 273 214 q 285 239 281 230 q 293 255 290 248 q 297 267 297 263 q 300 275 297 269 q 306 289 302 281 q 311 302 309 296 q 314 311 314 309 q 316 320 314 314 q 321 331 319 326 q 327 342 324 337 q 329 351 329 348 q 332 362 329 353 q 337 380 334 370 q 343 400 340 391 q 346 412 346 409 q 351 430 346 415 q 362 461 356 444 q 373 494 368 479 q 378 513 378 509 q 380 523 378 515 q 386 540 383 531 q 392 556 389 549 q 395 566 395 564 q 397 575 395 568 q 402 589 399 582 q 408 603 406 596 q 411 612 411 609 l 419 628 q 426 635 422 631 q 434 643 431 640 l 443 652 q 452 654 446 652 q 463 659 457 656 q 475 664 469 662 q 484 667 480 667 l 492 667 l 500 667 q 508 664 503 667 q 519 659 513 662 q 532 652 525 656 l 541 636 l 541 628 q 536 615 538 621 q 533 605 534 610 q 532 597 532 600 q 522 570 528 583 q 507 544 515 557 q 490 517 498 530 q 475 489 481 503 q 472 480 475 486 q 467 470 470 475 q 462 458 465 464 q 460 450 460 453 q 452 429 458 445 q 439 392 446 413 q 423 347 431 371 q 407 301 414 323 q 394 264 399 280 q 386 241 388 248 q 384 234 386 239 q 378 223 381 229 q 373 212 376 217 q 371 204 371 207 q 368 191 371 201 q 362 168 366 180 q 357 144 359 156 q 354 126 354 132 q 353 113 354 123 q 350 91 351 102 q 347 70 349 80 q 346 58 346 60 q 345 51 346 55 q 342 43 343 47 q 338 33 340 38 q 331 24 338 31 q 317 11 325 18 q 303 -3 310 4 q 297 -12 297 -9 l 273 -43 l 257 -43 l 232 -43 l 225 -35 l 208 -12 q 206 -4 208 -9 q 200 7 203 1 q 192 20 197 13 q 188 31 192 22 q 180 51 184 40 q 172 72 176 61 q 168 89 168 83 q 165 100 168 92 q 160 119 163 109 q 154 138 157 130 q 151 149 151 146 l 143 174 q 141 185 143 176 q 135 204 138 194 q 130 223 132 214 q 127 235 127 232 q 125 247 127 237 q 119 269 122 257 q 114 291 116 281 q 111 304 111 301 q 107 313 109 309 q 104 320 106 316 q 103 326 103 323 q 99 339 103 330 q 91 358 96 348 q 83 377 87 368 q 79 389 79 386 l 71 428 q 58 455 64 439 q 46 481 52 470 q 41 490 46 484 q 30 505 36 497 q 19 518 24 512 q 14 528 14 525 l 14 543 z "},"w":{"ha":817,"x_min":26,"x_max":777,"o":"m 400 357 q 379 316 387 339 q 366 275 372 294 l 357 243 l 340 211 q 337 198 340 208 q 329 178 333 189 q 320 158 324 168 q 317 146 317 149 q 315 138 317 143 q 313 127 314 133 q 309 114 311 121 l 309 57 q 303 41 309 51 q 293 25 298 31 q 289 18 293 22 q 279 9 285 14 q 268 0 274 5 q 260 -7 262 -4 q 252 -15 257 -10 q 240 -23 246 -19 q 228 -29 234 -26 q 220 -32 222 -32 l 204 -32 l 179 -32 l 164 -24 l 139 1 l 131 17 l 127 54 l 129 100 l 131 163 l 123 186 q 122 196 123 189 q 119 211 121 203 q 117 225 118 218 q 115 235 115 232 q 113 247 115 237 q 107 267 110 256 q 101 287 104 278 q 98 300 98 296 l 90 323 l 83 364 l 75 380 q 74 390 75 383 q 71 405 73 397 q 68 419 69 412 q 66 429 66 426 l 50 461 l 43 494 l 35 510 q 33 521 35 513 q 31 539 32 530 q 28 559 29 549 q 26 575 26 569 l 26 583 l 26 590 q 29 599 26 593 q 34 611 31 605 q 40 623 37 618 q 43 632 43 629 l 58 647 q 79 651 70 649 q 96 654 87 652 q 107 656 104 656 l 115 656 l 123 656 q 133 648 126 652 q 148 640 140 644 q 162 631 155 635 q 172 624 169 627 q 176 614 174 619 q 178 606 177 610 q 179 599 179 602 l 179 583 l 179 567 l 172 543 l 172 526 l 172 510 q 173 492 172 504 q 176 467 174 479 q 178 443 177 454 q 179 429 179 432 q 180 420 179 426 q 183 409 182 415 q 186 397 184 403 q 187 389 187 392 q 190 377 187 385 q 196 360 193 370 q 201 343 199 351 q 204 332 204 335 q 211 315 207 326 q 219 293 216 304 q 225 272 222 282 q 228 260 228 262 l 236 243 l 244 243 l 260 260 q 268 277 264 269 q 274 290 271 283 q 277 300 277 296 l 285 323 q 287 334 285 326 q 292 352 290 342 q 297 369 295 361 q 300 380 300 377 q 302 390 300 383 q 308 405 305 397 q 314 419 311 412 q 317 429 317 426 q 319 438 317 432 q 325 449 322 444 q 331 460 328 455 q 334 469 334 466 q 335 482 334 473 q 337 502 336 492 q 339 522 338 513 q 340 534 340 531 q 345 546 340 538 q 354 564 349 554 q 365 583 359 574 q 374 599 370 593 l 380 607 q 388 613 384 610 q 396 618 392 616 q 406 624 401 621 l 437 624 l 463 624 l 469 615 q 482 598 476 609 q 494 575 488 587 l 494 486 l 503 453 q 509 427 505 444 q 517 390 513 409 q 524 354 521 371 q 526 332 526 338 q 529 314 526 328 q 535 283 532 300 q 541 252 538 267 q 543 235 543 237 q 546 227 543 232 q 551 215 548 221 q 556 203 553 209 q 558 195 558 197 l 575 179 l 583 186 q 587 195 585 191 q 589 203 588 199 q 590 211 590 208 q 593 222 590 214 q 598 240 595 231 q 604 257 602 249 q 607 268 607 264 l 615 292 l 624 332 l 631 349 q 632 361 631 351 q 635 381 633 370 q 637 400 636 391 q 639 412 639 410 l 656 446 l 656 453 q 651 486 656 472 q 647 518 647 500 l 647 526 q 656 542 647 532 q 672 558 666 552 q 686 570 677 564 q 696 575 690 572 l 720 575 l 736 575 q 749 566 743 570 q 760 557 754 562 q 768 550 765 553 l 777 543 l 777 469 q 754 403 765 435 q 735 347 745 375 q 720 300 726 318 q 716 289 720 296 q 708 272 712 281 q 700 254 703 262 q 696 243 696 246 q 694 233 696 239 q 692 219 693 227 q 689 204 690 211 q 688 195 688 197 q 685 183 688 191 q 680 166 683 175 q 674 150 677 157 q 672 139 672 142 q 671 127 672 136 q 668 110 669 119 q 665 93 667 101 q 664 82 664 85 q 663 71 664 79 q 660 54 661 62 q 656 33 658 44 q 654 26 656 30 q 651 18 652 22 q 647 8 649 13 q 629 -14 637 -3 q 613 -33 621 -23 q 599 -47 605 -42 q 593 -54 595 -51 q 588 -59 590 -57 q 583 -64 585 -62 l 567 -64 l 543 -64 q 534 -59 538 -62 q 529 -54 531 -57 q 526 -47 526 -51 q 518 -35 522 -41 q 512 -24 515 -29 q 510 -16 510 -19 l 503 8 l 486 41 q 484 54 486 44 q 479 74 481 63 q 474 94 477 85 q 472 107 472 104 l 472 122 q 467 140 472 125 q 456 171 462 154 q 445 202 450 188 q 440 220 440 216 q 438 234 440 222 q 433 260 435 246 q 428 285 430 273 q 425 300 425 296 q 424 309 425 303 q 420 320 422 315 q 416 334 418 327 q 411 345 416 339 q 400 357 406 351 z "},"x":{"ha":457,"x_min":-35,"x_max":467,"o":"m -35 -21 l -35 1 l -28 16 q -11 33 -22 20 q 12 59 0 45 q 36 85 24 73 q 53 102 47 97 q 60 111 56 104 q 71 124 65 117 q 81 136 77 130 q 89 146 86 142 q 99 157 92 149 q 114 176 106 165 q 130 196 122 186 q 140 211 137 205 q 146 219 143 214 q 153 229 150 224 q 161 240 157 234 l 161 254 l 161 269 q 157 277 159 273 q 154 290 154 284 q 151 299 154 293 q 143 312 147 305 q 136 325 139 319 q 132 334 132 331 q 130 343 132 336 q 125 356 127 349 q 120 369 123 363 q 118 378 118 375 q 116 385 118 380 q 111 396 114 390 q 106 406 109 401 q 104 414 104 411 q 102 421 104 416 q 96 431 100 427 q 89 443 93 437 l 68 465 q 64 472 68 467 q 56 482 60 477 q 48 493 52 488 q 45 501 45 498 q 41 509 43 505 q 37 522 37 516 l 37 529 q 41 543 37 535 q 45 551 43 547 q 52 559 49 555 q 57 567 55 563 q 60 574 60 570 l 68 579 q 75 585 70 583 q 84 590 79 588 q 96 595 90 593 l 111 595 l 125 595 q 133 593 127 595 q 142 591 138 592 q 154 587 148 589 q 162 579 158 583 q 169 572 165 576 q 176 566 173 569 l 183 551 q 194 527 190 541 q 197 501 197 512 l 204 465 l 212 450 q 216 438 212 448 q 223 418 219 429 q 231 397 228 407 q 235 385 235 388 l 249 371 l 256 378 q 264 393 260 386 q 271 405 267 399 q 278 414 275 411 l 285 429 l 292 450 q 295 459 292 453 q 303 472 298 465 q 311 484 307 478 q 314 493 314 490 q 320 507 317 498 q 328 524 324 515 q 334 541 331 533 q 336 551 336 548 q 337 569 336 557 q 340 595 338 581 q 342 621 341 608 q 343 639 343 633 l 350 646 q 359 651 353 648 q 373 659 366 655 q 386 664 380 662 q 395 667 392 667 l 401 667 l 415 667 q 422 664 418 667 q 431 659 427 662 q 438 654 435 656 q 446 652 442 652 l 460 639 l 467 624 l 467 610 l 467 595 q 466 587 467 592 q 463 576 465 582 q 461 566 462 571 q 460 558 460 561 q 447 530 456 551 q 426 486 437 509 q 404 443 414 463 q 387 414 393 422 q 381 403 387 411 q 369 385 376 395 q 356 367 361 376 q 350 357 350 359 l 328 321 l 314 297 q 308 289 311 294 q 300 277 304 283 q 292 261 296 269 l 292 254 l 292 248 q 294 240 292 245 q 299 229 296 235 q 305 219 302 224 q 307 211 307 214 q 316 193 310 205 q 329 168 322 181 q 341 142 335 154 q 350 125 347 130 q 352 117 350 121 q 357 110 354 113 q 364 102 359 106 q 373 101 367 102 q 387 99 380 100 q 399 97 393 98 q 408 96 406 96 q 415 93 411 96 q 422 88 418 91 q 431 81 426 85 q 434 69 432 75 q 436 60 435 64 q 437 53 437 56 l 437 45 l 437 37 l 431 29 q 426 22 428 26 q 424 16 424 19 q 417 8 420 12 q 410 1 413 5 l 401 -7 q 389 -14 395 -12 q 379 -19 384 -17 q 372 -21 375 -21 q 360 -24 366 -23 q 343 -28 349 -28 l 336 -28 l 328 -28 l 314 -21 q 308 -18 311 -21 q 299 -10 304 -14 q 291 -2 295 -5 q 285 1 288 1 l 271 16 l 264 29 q 259 44 264 32 q 249 70 255 56 q 239 95 243 83 q 235 110 235 106 l 228 125 l 212 138 l 204 138 l 197 138 q 159 98 176 119 q 126 56 142 77 q 95 13 111 35 q 60 -28 79 -9 l 24 -64 l 8 -64 l -5 -64 q -14 -60 -9 -64 q -23 -52 -18 -57 q -31 -43 -28 -47 q -35 -35 -35 -38 l -35 -21 z "},"y":{"ha":582,"x_min":29,"x_max":538,"o":"m 385 -407 l 385 -392 q 387 -376 385 -389 q 394 -348 390 -363 q 401 -316 397 -332 q 408 -293 406 -301 l 416 -271 q 420 -252 416 -264 q 424 -240 422 -246 l 424 0 q 423 9 424 3 q 420 23 422 16 q 417 36 418 30 q 416 46 416 43 l 416 158 l 408 174 l 401 174 l 393 165 q 384 151 390 163 q 370 124 377 138 q 356 98 363 110 q 347 83 350 86 l 317 53 q 301 38 311 47 q 280 20 291 29 q 261 3 269 11 q 250 -7 252 -4 l 235 -16 q 222 -19 228 -18 q 203 -22 210 -22 l 195 -22 l 182 -16 l 158 0 l 150 8 l 143 31 l 127 53 q 126 64 127 56 q 124 83 125 73 q 122 101 123 93 q 121 113 121 110 q 119 122 121 115 q 117 136 118 129 q 114 149 115 143 q 113 158 113 155 q 110 170 113 161 q 105 189 108 178 q 101 208 103 199 q 98 218 98 216 l 90 241 l 82 257 q 78 269 80 263 q 75 279 77 274 q 74 286 74 283 q 72 301 74 289 q 67 327 69 313 q 62 354 64 341 q 60 370 60 366 l 53 393 l 45 422 l 29 453 l 29 490 l 29 528 l 45 542 q 56 549 51 546 q 66 554 61 552 q 74 557 71 557 q 81 558 77 557 q 89 561 85 559 q 98 566 93 563 l 121 566 l 143 566 l 165 557 q 173 546 168 554 q 183 527 178 537 q 191 508 188 517 q 195 497 195 500 l 195 490 l 195 482 q 193 470 195 479 q 188 452 191 461 q 184 434 186 442 q 182 422 182 425 l 182 393 l 182 361 q 185 341 183 350 q 188 327 186 334 q 189 317 189 319 l 195 286 q 196 277 195 283 q 199 264 197 271 q 201 251 200 258 q 203 241 203 245 q 207 223 203 236 q 215 197 210 210 q 223 172 219 183 q 227 158 227 161 q 229 152 227 155 q 234 144 231 148 q 239 136 237 140 q 241 129 241 132 l 250 129 q 257 136 252 132 q 268 144 262 140 q 277 152 273 148 q 281 158 281 155 q 288 174 284 167 q 295 187 292 181 q 302 196 299 193 q 335 265 319 231 q 364 340 351 300 q 366 348 364 342 q 368 360 367 354 l 372 376 l 378 427 l 374 467 l 378 496 l 370 530 l 372 596 l 378 610 q 386 619 380 612 q 396 632 391 625 q 408 644 402 639 q 416 648 413 648 q 423 651 419 648 q 431 655 427 653 q 439 660 435 658 q 446 663 443 663 l 463 663 l 468 663 q 475 660 471 663 q 484 655 479 658 q 493 651 489 653 q 500 648 497 648 q 508 642 503 646 q 517 633 513 637 q 526 625 522 629 q 529 618 529 621 q 533 606 531 612 q 536 596 534 602 q 538 589 538 591 l 538 574 l 538 566 q 535 556 538 562 q 530 543 533 549 q 525 530 527 536 q 522 521 522 524 q 521 509 522 517 q 518 491 519 500 q 515 472 517 481 q 514 461 514 464 l 507 437 l 507 429 l 507 422 q 508 402 507 419 q 511 366 509 385 q 513 329 512 346 q 514 310 514 313 l 514 286 q 515 265 514 281 q 516 229 515 250 q 518 185 517 208 q 520 141 519 161 q 522 104 521 120 q 522 83 522 89 l 522 17 l 522 -52 q 522 -80 522 -61 q 520 -121 521 -98 q 518 -169 519 -144 q 516 -215 517 -193 q 515 -255 515 -237 q 514 -279 514 -272 q 513 -297 514 -285 q 511 -322 512 -309 q 508 -347 509 -336 q 507 -361 507 -358 q 503 -370 505 -366 q 500 -383 500 -378 q 494 -393 497 -387 q 490 -406 492 -399 q 485 -421 487 -413 q 475 -429 479 -425 q 468 -436 472 -433 q 463 -443 465 -440 l 446 -452 l 432 -452 l 416 -452 q 408 -448 413 -452 q 397 -439 403 -444 q 388 -430 392 -435 q 385 -421 385 -425 l 385 -407 z "},"z":{"ha":558,"x_min":0,"x_max":614,"o":"m 37 36 l 45 53 q 47 59 45 56 q 52 66 49 62 q 60 74 55 69 q 65 83 60 77 q 78 97 71 90 q 91 110 85 104 q 97 119 97 116 q 107 131 100 122 q 120 150 113 140 q 134 171 127 161 q 143 186 140 180 l 157 216 q 168 230 159 219 q 187 254 177 241 q 205 277 197 267 q 216 292 214 288 q 221 302 216 294 q 232 317 226 309 q 243 333 238 326 q 248 343 248 340 q 259 356 250 346 q 277 377 267 366 q 295 398 286 388 q 307 411 304 408 q 314 418 310 414 q 321 429 318 423 q 327 439 324 435 q 329 447 329 444 q 325 459 329 454 q 315 469 321 464 q 297 471 309 469 q 273 474 286 472 q 249 477 260 475 q 232 478 238 478 l 216 478 l 201 478 q 189 476 199 478 q 165 470 178 473 q 141 465 153 467 q 127 463 130 463 l 97 463 l 66 463 q 59 464 64 463 q 48 466 54 465 q 37 468 43 467 q 29 469 32 469 l 16 478 l 8 485 l 0 500 l 0 522 l 0 538 q 12 553 6 546 q 22 566 17 559 q 29 575 26 572 q 37 582 33 578 q 44 589 41 585 l 53 597 q 67 601 58 597 q 82 604 77 604 q 97 602 85 604 q 123 596 109 600 q 149 591 137 593 q 164 589 161 589 q 175 588 167 589 q 191 585 182 587 q 207 583 199 584 q 216 582 214 582 q 235 581 222 582 q 261 578 248 580 q 285 576 274 577 q 298 575 296 575 l 351 575 q 360 574 354 575 q 374 571 367 572 q 388 568 381 570 q 397 567 394 567 q 407 565 400 567 q 423 559 414 562 q 439 554 431 556 q 450 551 447 551 q 460 547 456 551 q 471 538 465 543 q 477 530 474 534 q 481 523 479 526 q 486 514 484 519 l 486 500 l 486 493 q 480 481 484 490 q 472 463 476 473 q 464 444 467 452 q 457 432 460 435 q 451 422 457 429 q 436 405 444 414 q 418 387 427 396 q 404 374 409 378 q 392 360 401 370 q 371 339 382 351 q 349 318 359 328 q 336 306 339 309 q 327 294 334 303 q 314 275 321 286 q 300 255 307 265 q 292 239 294 245 q 288 229 292 235 q 280 216 285 223 q 273 202 276 209 q 269 193 269 196 q 261 178 265 185 q 254 165 258 172 q 248 155 250 159 l 232 135 l 225 119 l 232 111 l 278 111 q 367 116 322 111 q 457 126 412 121 q 465 127 460 126 q 475 131 469 129 q 486 134 481 132 q 494 135 491 135 l 517 142 l 547 142 l 576 142 l 591 135 l 606 119 l 614 104 l 614 97 l 606 82 q 600 75 603 79 q 593 68 596 71 l 585 60 q 574 59 581 60 q 558 56 566 58 q 542 54 549 55 q 532 53 534 53 q 508 47 526 51 q 468 39 491 43 q 419 30 445 35 q 370 21 393 25 q 330 13 347 16 q 307 7 313 9 q 295 6 304 7 q 277 3 286 5 q 259 1 267 2 q 248 0 250 0 q 237 -1 244 0 q 222 -4 230 -3 q 201 -8 212 -6 q 191 -11 199 -8 q 172 -16 182 -13 q 151 -24 161 -20 q 135 -31 140 -28 l 119 -37 l 111 -37 l 97 -37 q 83 -34 92 -37 q 75 -31 79 -33 q 68 -26 72 -31 q 60 -15 64 -21 q 52 -2 56 -8 q 45 7 47 4 q 41 16 43 12 q 37 29 37 24 l 37 36 z "},"(":{"ha":500,"x_min":118,"x_max":602,"o":"m 425 -418 q 412 -413 419 -418 q 397 -404 404 -409 q 380 -389 389 -397 q 367 -375 377 -385 q 343 -351 357 -365 q 315 -323 330 -338 q 287 -295 300 -308 q 263 -272 273 -281 q 249 -258 252 -262 l 205 -171 q 201 -154 205 -165 q 191 -130 196 -142 q 176 -98 184 -115 q 174 -85 176 -93 q 169 -71 172 -78 q 161 -56 165 -64 q 151 -14 156 -39 q 142 36 146 12 q 135 80 138 60 q 132 104 133 99 q 123 218 127 157 q 118 336 118 279 q 120 399 118 369 q 123 453 121 429 q 128 496 125 478 q 132 525 130 515 q 136 540 133 530 q 141 561 138 550 q 145 582 143 572 q 147 597 147 592 q 154 614 151 606 q 159 628 157 621 q 161 642 161 636 q 173 676 165 656 q 191 720 181 697 q 211 766 201 743 q 230 809 221 789 q 243 842 238 828 q 249 859 249 855 q 265 889 257 875 q 280 913 272 901 q 293 930 288 925 q 308 950 298 936 q 328 980 318 965 q 351 1018 339 998 q 382 1056 368 1038 q 407 1085 395 1071 q 425 1105 419 1100 l 439 1120 l 513 1120 q 527 1111 520 1116 q 537 1101 532 1107 q 542 1090 542 1096 l 555 1061 q 555 1051 555 1056 q 553 1042 554 1046 q 551 1032 552 1037 q 535 1010 543 1020 q 521 996 528 1002 q 509 989 514 989 l 468 960 l 439 946 l 410 901 l 380 873 q 353 836 364 857 q 333 791 342 814 q 316 744 324 768 q 297 699 308 720 q 286 681 292 693 q 277 657 281 669 q 268 627 272 643 q 263 605 268 621 q 253 569 259 588 q 243 533 248 550 q 239 511 239 516 q 236 445 239 486 q 233 353 233 403 q 234 301 233 328 q 239 249 235 275 q 242 168 243 208 q 245 90 241 127 q 252 52 250 70 q 257 23 255 37 q 260 3 260 8 q 267 -20 264 -9 q 273 -40 271 -30 q 275 -56 275 -50 q 277 -68 275 -61 q 282 -82 279 -75 q 289 -98 285 -90 q 303 -130 296 -115 q 316 -154 309 -142 q 329 -171 323 -165 l 358 -214 q 371 -230 363 -220 q 387 -249 379 -239 q 403 -272 395 -260 q 415 -286 408 -278 q 429 -300 422 -293 q 446 -315 437 -307 q 462 -323 454 -320 q 477 -328 469 -326 q 490 -330 484 -330 q 507 -333 495 -330 q 531 -337 518 -335 q 555 -342 543 -340 q 572 -345 566 -345 l 602 -374 l 602 -403 l 572 -432 l 454 -432 l 425 -418 z "},")":{"ha":500,"x_min":-147,"x_max":396,"o":"m -28 -415 l -61 -382 l -61 -338 l -45 -322 l -11 -322 l 21 -338 l 54 -338 q 74 -330 60 -338 q 104 -313 88 -322 q 134 -295 120 -303 q 154 -288 148 -288 q 179 -256 168 -271 q 196 -232 189 -244 q 204 -214 204 -220 q 220 -170 212 -190 q 231 -135 226 -152 q 236 -113 236 -119 q 239 -97 236 -106 q 244 -79 241 -88 q 250 -60 248 -69 q 253 -45 253 -52 q 255 -14 253 -32 q 260 21 257 3 q 266 52 263 38 q 269 72 268 66 q 274 118 273 91 q 275 174 275 144 q 274 234 275 203 q 272 292 273 264 q 270 341 271 319 q 269 375 269 363 q 261 403 264 390 q 255 425 258 414 q 253 441 253 436 l 236 493 q 231 513 236 499 q 220 541 226 527 q 204 576 212 558 q 189 615 198 589 q 169 667 179 640 q 150 717 159 694 q 135 746 141 739 q 127 763 135 752 q 111 784 120 773 q 87 810 100 796 q 62 842 75 822 q 38 881 50 862 q 17 913 27 899 q 1 926 7 926 l -78 960 q -92 965 -83 960 q -108 978 -100 970 q -121 994 -115 985 q -126 1010 -126 1003 q -137 1023 -132 1016 q -144 1035 -141 1028 q -147 1047 -147 1042 l -147 1082 l -131 1097 l -126 1116 q -104 1119 -117 1118 q -78 1120 -92 1120 q -50 1119 -63 1120 q -28 1116 -36 1118 q -9 1105 -18 1111 q 6 1093 -2 1099 q 21 1082 14 1087 l 37 1064 q 58 1044 43 1058 q 86 1014 72 1029 q 112 984 101 998 q 123 964 123 970 q 153 928 136 951 q 185 884 170 906 q 222 829 203 859 q 227 813 222 825 q 239 785 232 801 q 256 751 247 769 q 275 715 266 732 q 291 684 283 699 q 302 661 298 669 l 335 576 l 351 543 q 354 528 351 537 q 360 510 357 519 q 366 491 363 500 q 368 476 368 482 q 370 460 368 472 q 374 433 372 448 q 380 400 377 418 q 386 367 383 382 q 390 340 389 352 q 392 325 392 329 q 394 291 392 315 q 396 239 396 267 q 392 191 396 211 q 389 173 391 186 q 385 142 387 160 q 379 104 382 125 q 373 64 376 83 q 370 30 371 45 q 368 5 368 14 q 359 -39 363 -19 q 354 -73 356 -57 q 351 -96 351 -90 q 349 -116 351 -102 q 343 -144 347 -130 q 335 -179 340 -161 q 319 -206 326 -193 q 308 -229 313 -218 q 302 -248 302 -241 q 294 -268 302 -254 q 275 -297 286 -281 q 253 -328 264 -313 q 236 -349 242 -342 l 220 -364 q 201 -382 210 -374 q 185 -394 194 -389 q 171 -399 177 -399 l 138 -415 q 122 -418 132 -415 q 104 -424 113 -420 q 86 -429 95 -427 q 71 -432 77 -432 l 21 -432 q 6 -430 14 -432 q -9 -424 -2 -427 q -28 -415 -18 -420 z "},"[":{"ha":500,"x_min":49,"x_max":546,"o":"m 82 -437 q 70 -433 75 -437 q 59 -424 64 -429 q 49 -410 54 -418 l 49 -361 q 50 -350 49 -355 q 54 -339 52 -345 q 58 -328 56 -333 l 85 -304 q 93 -289 90 -296 q 99 -275 96 -282 q 102 -262 102 -268 l 102 -221 q 104 -206 102 -216 q 110 -186 106 -197 q 115 -166 113 -176 q 118 -151 118 -157 l 118 58 q 123 97 121 68 q 127 163 125 125 q 131 245 129 201 q 133 331 132 289 q 135 408 134 372 q 135 464 135 443 q 136 492 135 471 q 139 543 138 514 q 143 604 141 571 q 147 665 145 636 q 150 715 149 693 q 151 743 151 736 l 151 897 q 144 926 147 913 q 140 949 142 938 q 138 966 138 961 l 125 1010 l 125 1038 q 126 1052 125 1043 q 130 1070 127 1061 q 135 1093 132 1081 l 151 1107 l 183 1114 l 250 1114 l 315 1100 l 397 1100 q 415 1102 404 1100 q 439 1107 427 1104 q 462 1112 451 1109 q 479 1114 473 1114 l 513 1107 q 525 1102 519 1107 q 535 1093 530 1098 q 546 1079 541 1086 l 546 1028 q 519 1013 531 1020 q 496 1003 507 1008 q 479 999 486 999 l 332 987 l 298 974 l 282 946 q 280 924 282 941 q 274 888 277 908 q 269 850 271 869 q 267 821 267 831 q 266 794 267 814 q 263 747 264 774 q 259 691 261 721 q 255 635 257 662 q 253 589 254 609 q 252 562 252 569 q 251 536 252 555 q 248 494 250 518 q 243 443 245 470 q 240 392 241 416 q 236 350 238 368 q 235 325 235 332 q 230 216 231 271 q 229 110 229 162 q 229 28 229 68 q 228 -50 228 -12 q 229 -104 228 -79 q 231 -155 229 -130 q 232 -180 232 -168 q 232 -204 232 -193 q 231 -261 232 -235 q 228 -304 229 -287 l 298 -304 q 315 -302 304 -304 q 336 -297 325 -300 q 357 -293 347 -295 q 374 -290 368 -290 q 387 -288 380 -290 q 401 -281 394 -285 q 416 -275 408 -277 q 429 -272 423 -272 l 479 -272 q 494 -276 486 -272 q 510 -288 502 -281 q 523 -301 517 -294 q 528 -314 528 -309 q 524 -330 526 -322 q 521 -355 521 -345 l 504 -380 q 497 -390 504 -386 q 483 -397 490 -393 q 463 -403 474 -400 l 415 -399 q 398 -400 409 -399 q 376 -402 387 -401 q 353 -405 364 -404 q 336 -406 342 -406 q 320 -408 330 -406 q 301 -412 311 -410 q 278 -418 290 -414 l 197 -427 q 182 -436 193 -431 q 156 -444 172 -440 q 114 -452 140 -448 l 82 -437 z "},"]":{"ha":513,"x_min":-66,"x_max":453,"o":"m 235 -370 q 209 -372 220 -370 q 184 -375 197 -375 q 158 -371 171 -375 q 126 -367 145 -367 q 94 -372 112 -367 q 59 -382 76 -376 q 28 -393 42 -388 q 8 -397 14 -397 l -43 -397 l -60 -380 q -65 -360 -64 -371 q -66 -339 -66 -349 q -65 -319 -66 -326 q -60 -306 -63 -312 l -43 -289 q -24 -281 -33 -284 q -7 -275 -16 -277 q 8 -272 2 -272 l 25 -272 q 56 -270 37 -272 q 94 -264 75 -267 q 128 -258 113 -261 q 150 -256 144 -256 q 165 -253 156 -256 q 184 -247 174 -250 q 202 -241 193 -244 q 218 -239 212 -239 q 228 -192 222 -220 q 233 -132 233 -163 q 233 -87 233 -110 q 232 -46 233 -65 q 231 -12 231 -26 q 231 9 231 2 q 233 30 231 16 q 237 60 235 44 q 242 90 240 75 q 244 110 244 104 q 245 135 244 116 q 248 176 246 155 q 251 217 250 198 q 252 243 252 237 l 268 310 q 269 347 268 322 q 272 398 271 372 q 276 447 274 425 q 278 475 277 469 q 282 600 282 530 q 283 741 282 669 q 283 876 283 813 q 286 933 283 905 q 290 981 288 961 q 281 979 286 979 q 271 979 276 979 q 240 981 256 979 q 208 982 224 982 q 198 982 203 982 q 187 981 193 982 l 114 966 q 69 962 92 962 q 29 964 44 962 q 12 966 20 965 q -10 988 2 975 q -22 1017 -22 1002 l -8 1057 l 25 1082 q 50 1082 33 1082 q 86 1082 66 1082 q 128 1083 106 1082 q 170 1085 150 1084 q 205 1087 189 1086 q 228 1092 220 1089 q 254 1099 233 1094 q 297 1109 274 1104 q 342 1118 321 1114 q 370 1122 363 1122 q 381 1122 376 1122 q 391 1123 387 1122 q 401 1124 397 1123 q 427 1105 416 1114 q 445 1088 437 1097 q 453 1074 453 1080 l 453 1048 q 446 1034 449 1041 q 442 1020 444 1027 q 440 1007 440 1013 q 436 985 440 1001 q 426 950 431 969 q 415 910 420 930 q 411 875 411 890 q 410 852 411 869 q 408 817 409 836 q 405 781 406 798 q 404 758 404 764 q 404 727 404 750 q 402 673 403 704 q 400 608 401 642 q 398 544 399 574 q 397 490 397 513 q 396 458 396 467 q 394 438 396 454 q 390 399 393 421 q 384 351 387 376 q 377 302 380 325 q 373 263 374 280 q 371 243 371 247 q 370 211 371 230 q 367 172 368 191 q 363 126 365 150 q 357 91 358 109 q 355 58 355 74 q 359 2 355 27 q 363 -40 363 -24 l 363 -47 q 361 -100 363 -65 q 359 -171 359 -135 q 362 -229 359 -203 q 371 -257 365 -254 l 380 -290 l 382 -301 q 381 -315 382 -309 q 378 -328 380 -321 q 369 -341 375 -334 q 353 -358 363 -348 q 331 -375 345 -374 q 302 -378 317 -377 q 285 -376 296 -378 q 262 -374 274 -375 q 235 -370 250 -372 z "}}}
